<svg width="493" height="491" viewBox="0 0 493 491" fill="none" xmlns="http://www.w3.org/2000/svg">
<path fill-rule="evenodd" clip-rule="evenodd" d="M161.031 316.562C161.394 316.562 161.688 316.857 161.688 317.221V337.389L169.395 329.665C169.652 329.408 170.068 329.408 170.325 329.665C170.582 329.923 170.582 330.34 170.325 330.597L162.618 338.321H182.743C183.106 338.321 183.4 338.615 183.4 338.979C183.4 339.343 183.106 339.638 182.743 339.638H162.618L170.325 347.361C170.582 347.618 170.582 348.035 170.325 348.293C170.068 348.55 169.652 348.55 169.395 348.293L161.688 340.569V360.737C161.688 361.101 161.394 361.396 161.031 361.396C160.668 361.396 160.374 361.101 160.374 360.737V340.569L152.666 348.293C152.41 348.55 151.993 348.55 151.737 348.293C151.48 348.035 151.48 347.618 151.737 347.361L159.444 339.638H139.319C138.956 339.638 138.662 339.343 138.662 338.979C138.662 338.615 138.956 338.321 139.319 338.321H159.444L151.737 330.597C151.48 330.34 151.48 329.923 151.737 329.665C151.993 329.408 152.41 329.408 152.666 329.665L160.374 337.389V317.221C160.374 316.857 160.668 316.562 161.031 316.562ZM55.0111 423.05C55.0111 422.686 54.7166 422.391 54.3538 422.391C53.9906 422.391 53.6965 422.686 53.6965 423.05V454.833L41.2344 442.344C40.9776 442.087 40.5618 442.087 40.305 442.344C40.0482 442.602 40.0482 443.019 40.305 443.276L52.7667 455.764H20.6132C20.25 455.764 19.9559 456.059 19.9559 456.423C19.9559 456.787 20.25 457.082 20.6132 457.082H52.7667L40.305 469.57C40.0482 469.827 40.0482 470.244 40.305 470.502C40.5618 470.759 40.9776 470.759 41.2344 470.502L53.6965 458.013V490.236C53.6965 490.599 53.9906 490.894 54.3538 490.894C54.7166 490.894 55.0111 490.599 55.0111 490.236V458.013L67.4728 470.502C67.7295 470.759 68.1454 470.759 68.4022 470.502C68.659 470.244 68.659 469.827 68.4022 469.57L55.9405 457.082H87.6562C88.019 457.082 88.3135 456.787 88.3135 456.423C88.3135 456.059 88.019 455.764 87.6562 455.764H55.9405L68.4022 443.276C68.659 443.019 68.659 442.602 68.4022 442.344C68.1454 442.087 67.7295 442.087 67.4728 442.344L55.0111 454.833V423.05Z" fill="#CDB1AA"/>
<path fill-rule="evenodd" clip-rule="evenodd" d="M298.253 227.819L41.2751 325.228L20.7599 66.5528L285.296 29.7529L298.253 227.819Z" fill="#FFF5EE"/>
<path fill-rule="evenodd" clip-rule="evenodd" d="M317.173 0L319.726 104.056V104.086L212.485 132.24L204.825 9.38416L317.173 0Z" fill="#CDB1AA"/>
<path fill-rule="evenodd" clip-rule="evenodd" d="M21.8389 302.499L170.844 250.547L163.285 184.524L14.281 210.501L21.8389 302.499Z" fill="#E3D4C5"/>
<path fill-rule="evenodd" clip-rule="evenodd" d="M271.055 216.872L206.574 238.027C205.939 238.235 205.592 238.92 205.8 239.556C206.009 240.192 206.691 240.54 207.326 240.331L273.628 218.58L267.008 140.751C266.952 140.085 266.366 139.59 265.7 139.646C265.035 139.703 264.541 140.29 264.598 140.958L271.055 216.872Z" fill="#583318"/>
<path fill-rule="evenodd" clip-rule="evenodd" d="M203.839 157.459C203.839 159.102 205.168 160.434 206.808 160.434C208.447 160.434 209.775 159.102 209.775 157.459C209.775 155.815 208.447 154.483 206.808 154.483C205.168 154.483 203.839 155.815 203.839 157.459Z" fill="#94C0E9"/>
<path fill-rule="evenodd" clip-rule="evenodd" d="M241.153 155.334C241.153 156.977 242.481 158.309 244.121 158.309C245.76 158.309 247.088 156.977 247.088 155.334C247.088 153.69 245.76 152.358 244.121 152.358C242.481 152.358 241.153 153.69 241.153 155.334Z" fill="#94C0E9"/>
<path fill-rule="evenodd" clip-rule="evenodd" d="M214.862 207.4C214.862 208.926 216.096 210.163 217.618 210.163C219.141 210.163 220.374 208.926 220.374 207.4C220.374 205.874 219.141 204.637 217.618 204.637C216.096 204.637 214.862 205.874 214.862 207.4Z" fill="#94C0E9"/>
<path fill-rule="evenodd" clip-rule="evenodd" d="M64.2438 87.6433L167.881 74.6551C169.666 74.4344 171.313 75.5838 171.585 77.2399L172.232 86.1076C172.513 87.8115 171.235 89.3965 169.398 89.6236L65.7597 102.612C63.9745 102.833 62.3279 101.683 62.0562 100.026L61.4087 91.1594C61.1297 89.4555 62.4077 87.8697 64.2438 87.6433Z" fill="#3973B0"/>
<path fill-rule="evenodd" clip-rule="evenodd" d="M97.843 109.401L168.229 99.8669C169.423 99.7303 170.596 100.948 170.868 102.604L171.514 111.471C171.794 113.174 171.016 114.689 169.788 114.829L99.4032 124.364C98.2082 124.5 97.0358 123.284 96.7632 121.627L96.1157 112.76C95.8368 111.056 96.6157 109.541 97.843 109.401Z" fill="#3973B0"/>
<path fill-rule="evenodd" clip-rule="evenodd" d="M117.282 131.147L168.229 123.874C169.422 123.738 170.595 124.954 170.867 126.61L171.514 135.478C171.794 137.182 171.016 138.696 169.787 138.837L118.843 146.11C117.648 146.246 116.475 145.03 116.203 143.373L115.556 134.506C115.276 132.802 116.055 131.287 117.282 131.147Z" fill="#3973B0"/>
<path fill-rule="evenodd" clip-rule="evenodd" d="M169.723 251.004C169.974 251.624 170.68 251.923 171.299 251.671C171.918 251.419 172.215 250.712 171.964 250.091C168.603 241.803 165.678 235.878 161.817 230.654C156.286 223.169 150.06 219.366 143.008 220.445C137.34 221.312 133.654 225.062 129.616 232.272C129.095 233.203 127.44 236.275 127.222 236.673C124.831 241.01 122.544 244.278 120.001 246.435C116.724 249.216 113.689 249.499 110.541 246.74C107.826 244.363 106.443 240.935 105.367 235.151C105.216 234.338 105.191 234.194 104.835 232.091C104.463 229.902 104.237 228.707 103.936 227.454C103.679 226.388 102.586 221.607 102.296 220.384C101.546 217.213 100.855 214.562 100.091 212.014C96.9374 201.495 93.0057 194.495 87.3838 191.512C82.5699 188.958 78.4174 190.361 75.1892 194.941C72.6945 198.481 70.7562 203.813 69.1412 210.765C67.9892 215.724 65.8362 228.653 65.8003 228.814C64.0886 236.467 59.6061 242.357 53.8498 243.293C48.4845 244.165 43.0117 240.91 37.4438 234.622C31.1243 227.484 25.8704 219.401 21.912 210.726C21.4392 209.69 18.8965 203.753 18.0827 201.992C13.4739 192.013 8.72096 186.539 1.41137 185.3C0.752715 185.188 0.128495 185.633 0.0171216 186.293C-0.0942516 186.954 0.349403 187.579 1.00806 187.691C7.29719 188.757 11.5853 193.695 15.8875 203.01C16.683 204.733 19.2229 210.663 19.7122 211.735C23.7703 220.629 29.1558 228.914 35.6345 236.232C41.6993 243.082 47.8313 246.728 54.2371 245.687C61.1563 244.561 66.2561 237.861 68.1607 229.344C68.2169 229.093 70.3677 216.177 71.4971 211.315C73.047 204.644 74.8942 199.562 77.1648 196.34C79.7388 192.689 82.6054 191.72 86.2517 193.655C91.1261 196.242 94.795 202.774 97.7744 212.711C98.5235 215.208 99.2025 217.815 99.9427 220.943C100.229 222.153 101.323 226.94 101.584 228.023C101.869 229.206 102.088 230.362 102.45 232.498C102.809 234.618 102.834 234.763 102.989 235.595C104.156 241.873 105.714 245.733 108.949 248.566C113.085 252.189 117.441 251.784 121.564 248.286C124.391 245.887 126.815 242.424 129.339 237.845C129.567 237.43 131.216 234.368 131.725 233.458C135.429 226.846 138.655 223.564 143.374 222.842C149.363 221.926 154.82 225.258 159.873 232.097C163.581 237.114 166.434 242.892 169.723 251.004Z" fill="#9B7368"/>
<path fill-rule="evenodd" clip-rule="evenodd" d="M287.188 31.5337C295.293 38.3144 300.527 49.0306 300.527 61.0966C300.527 81.5995 285.422 98.2194 266.788 98.2194C252.68 98.2194 240.601 88.689 235.563 75.164L270.513 64.6531L287.188 31.5337Z" fill="#94C0E9"/>
<path fill-rule="evenodd" clip-rule="evenodd" d="M264.38 24.0784C265.176 24.0162 265.977 23.9741 266.788 23.9741C274.455 23.9741 281.522 26.7926 287.188 31.534L270.513 64.653L264.38 24.0784Z" fill="#3973B0"/>
<path fill-rule="evenodd" clip-rule="evenodd" d="M264.38 24.0786L270.513 64.6533L233.09 62.9001C233.063 62.3028 233.049 61.7014 233.049 61.0968C233.049 41.4866 246.871 25.4381 264.38 24.0786Z" fill="#5BA092"/>
<path fill-rule="evenodd" clip-rule="evenodd" d="M270.513 64.6532L235.562 75.1633C234.142 71.3515 233.277 67.2244 233.09 62.9009L270.513 64.6532Z" fill="#2F6858"/>
<path fill-rule="evenodd" clip-rule="evenodd" d="M142.191 365.317L163.918 383L147.487 392.865L142.191 365.317Z" fill="#F2B08F"/>
<path fill-rule="evenodd" clip-rule="evenodd" d="M147.487 392.865L142.191 365.317L133.865 385.072L147.487 392.865ZM147.487 392.865L154.539 406.89L163.918 383L147.487 392.865Z" fill="#E58857"/>
<path fill-rule="evenodd" clip-rule="evenodd" d="M147.487 392.865L154.539 406.89L133.865 385.072L147.487 392.865Z" fill="#333333"/>
<path fill-rule="evenodd" clip-rule="evenodd" d="M367.282 248.059C367.282 248.059 351.337 312.86 349.165 471.812L387.078 470.656L394.287 470.437L397.132 279.866L403.257 279.724C403.257 279.724 414.332 468.127 414.332 471.501L463.107 471.812C463.107 471.812 453.371 278.519 436.407 248.059H367.282Z" fill="#5BA092"/>
<path fill-rule="evenodd" clip-rule="evenodd" d="M432.028 252.327C430.833 252.347 429.616 252.368 428.379 252.388L428.381 252.396C428.474 252.963 428.583 253.637 428.709 254.415C429.068 256.638 429.485 259.252 429.955 262.24C431.296 270.777 432.79 280.597 434.399 291.559C438.998 322.878 443.596 357.069 447.887 393C451.008 419.126 453.85 445.231 456.349 471.081C456.372 471.322 456.196 471.537 455.955 471.56C455.714 471.584 455.5 471.407 455.477 471.166C452.978 445.323 450.137 419.224 447.018 393.105C442.727 357.181 438.13 322.999 433.533 291.687C431.924 280.728 430.43 270.911 429.089 262.377C428.62 259.39 428.203 256.777 427.844 254.555C427.718 253.778 427.609 253.105 427.516 252.538L427.494 252.403C424.271 252.455 420.926 252.507 417.519 252.557C412.164 252.635 406.968 252.702 402.05 252.756C381.675 252.979 368.713 252.945 366.45 252.554C366.211 252.513 366.051 252.285 366.093 252.046C366.134 251.807 366.36 251.647 366.599 251.688C368.777 252.065 381.824 252.099 402.04 251.878C406.958 251.824 412.152 251.757 417.507 251.679C420.913 251.629 424.258 251.577 427.482 251.525C427.547 251.435 427.646 251.369 427.764 251.35C427.928 251.322 428.086 251.39 428.182 251.513C429.481 251.492 430.759 251.47 432.013 251.449C433.613 251.421 435.058 251.396 436.323 251.373C436.765 251.365 437.154 251.358 437.486 251.351L437.889 251.344C438.131 251.339 438.331 251.532 438.336 251.775C438.34 252.017 438.148 252.217 437.906 252.222L437.501 252.23C437.17 252.236 436.781 252.243 436.338 252.251C435.073 252.274 433.628 252.299 432.028 252.327ZM397.57 279.88C397.561 280.123 397.358 280.312 397.117 280.304L391.482 280.109C391.241 280.101 391.051 279.897 391.06 279.655C391.068 279.413 391.271 279.223 391.513 279.231L397.147 279.426C397.389 279.435 397.578 279.638 397.57 279.88Z" fill="#2F6858"/>
<path fill-rule="evenodd" clip-rule="evenodd" d="M387.591 470.557L386.622 489.359H372.175L372.57 486.92L368.144 489.359H341.104C341.104 489.359 340.042 485.682 344.24 483.382C348.995 480.777 349.72 479.834 350.564 477.458C351.849 473.84 351.342 471.478 351.342 471.478L387.591 470.557Z" fill="#B9B3B8"/>
<path fill-rule="evenodd" clip-rule="evenodd" d="M386.857 484.789L386.621 489.36H372.175L372.569 486.92L368.144 489.36H341.103C341.103 489.36 340.323 486.649 342.76 484.426L386.857 484.789Z" fill="#010101"/>
<path fill-rule="evenodd" clip-rule="evenodd" d="M452.238 471.274L454.098 484.451L441.052 486.403L440.456 484.285L434.852 489.066L411.181 489.36C411.181 489.36 410.064 485.581 414.316 483.382C417.282 481.849 418.442 480.792 418.914 478.778C419.792 475.04 419.666 471.479 419.666 471.479L452.238 471.274Z" fill="#B9B3B8"/>
<path fill-rule="evenodd" clip-rule="evenodd" d="M453.309 479.261L454.098 484.451L441.052 486.404L440.456 484.285L434.852 489.066L411.181 489.36C411.181 489.36 410.633 487.341 411.655 485.869C411.655 485.869 432.202 484.948 434.634 484.013C438.463 482.542 445.357 480.879 445.357 480.879L453.309 479.261Z" fill="#010101"/>
<path fill-rule="evenodd" clip-rule="evenodd" d="M389.03 135.17C389.406 135.194 389.725 134.901 389.718 134.522C389.716 134.415 389.714 134.308 389.714 134.2C389.714 122.051 401.682 112.202 416.445 112.202C431.208 112.202 443.176 122.051 443.176 134.2C443.176 134.315 443.175 134.429 443.172 134.543C443.165 134.926 443.49 135.223 443.87 135.187C444.085 135.167 444.303 135.156 444.525 135.156C447.954 135.156 450.734 137.505 450.734 140.401C450.734 143.298 447.954 145.646 444.525 145.646C443.134 145.646 441.853 145.257 440.818 144.604C440.495 144.399 440.076 144.484 439.863 144.802C436.263 150.176 430.016 154.177 422.565 155.613C421.922 155.738 421.471 156.324 421.509 156.981L422.217 169.455H410.673L411.381 156.981C411.419 156.323 410.968 155.738 410.325 155.613C402.917 154.185 396.698 150.222 393.088 144.894C392.881 144.588 392.48 144.496 392.164 144.685C391.153 145.289 389.923 145.646 388.591 145.646C385.163 145.646 382.383 143.298 382.383 140.401C382.383 137.505 385.163 135.156 388.591 135.156C388.739 135.156 388.885 135.161 389.03 135.17Z" fill="#F7D3BB"/>
<path fill-rule="evenodd" clip-rule="evenodd" d="M389.714 134.201C389.714 122.051 401.682 112.202 416.445 112.202C416.71 112.202 416.973 112.208 417.236 112.214C409.96 110.782 404.699 106.305 404.978 101.318C405.279 95.9511 411.887 91.8945 420.088 91.7935C416.766 90.8507 414.363 88.129 414.363 84.9142C414.363 80.9181 418.073 77.6787 422.65 77.6787C427.227 77.6787 430.937 80.9181 430.937 84.9142C430.937 88.5075 427.933 91.4808 424.001 92.0451C431.953 93.1684 437.877 97.8797 437.581 103.165C437.275 108.627 430.434 112.73 422.029 112.689C434.111 114.803 443.176 123.628 443.176 134.201C443.176 134.315 443.174 134.429 443.172 134.543C443.167 134.81 443.144 134.774 443.144 134.774C440.668 134.315 426.643 133.6 420.569 117.352C420.588 117.353 420.55 117.35 420.569 117.352C415.85 133.862 389.718 134.522 389.718 134.522" fill="#E58857"/>
<path fill-rule="evenodd" clip-rule="evenodd" d="M407.735 151.693C407.735 152.772 409.55 153.647 411.789 153.647C414.028 153.647 415.843 152.772 415.843 151.693C415.843 150.614 414.028 149.739 411.789 149.739C409.55 149.739 407.735 150.614 407.735 151.693Z" fill="#E74B33"/>
<path fill-rule="evenodd" clip-rule="evenodd" d="M400.11 134.107C403.974 134.107 407.153 137.054 407.584 140.848H411.167C411.598 137.054 414.778 134.107 418.642 134.107C422.8 134.107 426.17 137.519 426.17 141.728C426.17 145.936 422.8 149.347 418.642 149.347C414.744 149.347 411.539 146.35 411.152 142.509H407.599C407.213 146.35 404.007 149.347 400.11 149.347C395.952 149.347 392.581 145.936 392.581 141.728C392.581 137.519 395.952 134.107 400.11 134.107Z" fill="#010101"/>
<path fill-rule="evenodd" clip-rule="evenodd" d="M354.267 198.991C361.623 178.669 382.778 171.484 399.129 169.023C399.908 167.313 402.013 162.863 403.47 161.403C405.288 159.581 426.06 160.189 428.888 161.2C431.716 162.213 432.7 169.611 432.7 169.611C444.371 171.759 460.657 176.365 467.056 185.672C474.885 197.059 484.951 214.646 489.276 222.33C492.166 227.466 493.148 233.507 491.796 239.246C489.715 248.08 481.822 258.524 456.833 260.8C411.854 264.898 370.282 259.776 370.282 259.776C370.282 259.776 338.348 261.483 338.348 245.092C338.348 230.062 354.267 198.991 354.267 198.991Z" fill="#F2B08F"/>
<mask id="mask0_71_3687" style="mask-type:luminance" maskUnits="userSpaceOnUse" x="338" y="160" width="155" height="103">
<path fill-rule="evenodd" clip-rule="evenodd" d="M354.267 198.991C361.623 178.669 382.778 171.484 399.129 169.023C399.908 167.313 402.013 162.863 403.47 161.403C405.288 159.581 426.06 160.189 428.888 161.2C431.716 162.213 432.7 169.611 432.7 169.611C444.371 171.759 460.657 176.365 467.056 185.672C474.885 197.059 484.951 214.646 489.276 222.33C492.166 227.466 493.148 233.507 491.796 239.246C489.715 248.08 481.822 258.524 456.833 260.8C411.854 264.898 370.282 259.776 370.282 259.776C370.282 259.776 338.348 261.483 338.348 245.092C338.348 230.062 354.267 198.991 354.267 198.991Z" fill="white"/>
</mask>
<g mask="url(#mask0_71_3687)">
<path d="M389.597 181.265C388.924 181.265 388.378 180.315 388.378 179.681C388.378 179.046 388.924 178.357 389.597 178.357C390.27 178.357 390.815 179.046 390.815 179.681C390.815 180.315 390.27 181.265 389.597 181.265Z" fill="#F4F0F0"/>
<path d="M392.41 245.501C392.41 246.135 392.955 247.085 393.628 247.085C394.3 247.085 394.846 246.135 394.846 245.501C394.846 244.866 394.3 244.177 393.628 244.177C392.955 244.177 392.41 244.866 392.41 245.501Z" fill="#F4F0F0"/>
<path d="M341.609 246.879C341.609 247.514 342.154 248.463 342.827 248.463C343.5 248.463 344.045 247.514 344.045 246.879C344.045 246.245 343.5 245.556 342.827 245.556C342.154 245.556 341.609 246.245 341.609 246.879Z" fill="#F4F0F0"/>
<path d="M365.729 208.003C365.729 208.605 366.165 209.505 366.703 209.505C367.241 209.505 367.678 208.605 367.678 208.003C367.678 207.401 367.241 206.748 366.703 206.748C366.165 206.748 365.729 207.401 365.729 208.003Z" fill="#F4F0F0"/>
<path d="M382.421 243.968C381.882 243.968 381.446 243.067 381.446 242.465C381.446 241.864 381.882 241.21 382.421 241.21C382.959 241.21 383.395 241.864 383.395 242.465C383.395 243.067 382.959 243.968 382.421 243.968Z" fill="#F4F0F0"/>
<path d="M404.458 212.412C404.458 213.013 404.022 213.914 403.484 213.914C402.946 213.914 402.509 213.013 402.509 212.412C402.509 211.81 402.946 211.157 403.484 211.157C404.022 211.157 404.458 211.81 404.458 212.412Z" fill="#F4F0F0"/>
<path d="M360.816 221.899C361.448 222.116 362.305 221.4 362.535 220.804C362.765 220.207 362.503 219.384 361.871 219.167C361.238 218.95 360.476 219.422 360.246 220.018C360.015 220.614 360.184 221.682 360.816 221.899Z" fill="#F4F0F0"/>
<path d="M378.252 255.266C378.022 255.862 377.165 256.579 376.533 256.362C375.901 256.145 375.733 255.076 375.963 254.48C376.193 253.884 376.956 253.412 377.587 253.629C378.22 253.846 378.482 254.67 378.252 255.266Z" fill="#F4F0F0"/>
<path d="M351.931 227.336C352.598 227.414 353.263 226.534 353.345 225.904C353.427 225.274 352.974 224.528 352.307 224.45C351.639 224.373 351.009 224.994 350.927 225.624C350.844 226.253 351.263 227.259 351.931 227.336Z" fill="#F4F0F0"/>
<path d="M366.712 227.031C366.045 226.954 365.414 227.575 365.332 228.205C365.25 228.834 365.669 229.84 366.337 229.917C367.004 229.994 367.669 229.115 367.75 228.484C367.832 227.855 367.38 227.108 366.712 227.031Z" fill="#F4F0F0"/>
<path d="M381.442 228.539C380.774 228.462 380.356 227.456 380.438 226.826C380.519 226.197 381.15 225.575 381.818 225.653C382.486 225.73 382.938 226.476 382.856 227.106C382.774 227.736 382.11 228.616 381.442 228.539Z" fill="#F4F0F0"/>
<path d="M406.617 206.497C406.535 207.127 406.954 208.132 407.622 208.209C408.289 208.287 408.953 207.407 409.035 206.777C409.118 206.147 408.665 205.4 407.997 205.323C407.33 205.246 406.699 205.868 406.617 206.497Z" fill="#F4F0F0"/>
<path d="M365.229 194.424C364.561 194.347 364.143 193.342 364.224 192.712C364.307 192.082 364.937 191.461 365.605 191.538C366.273 191.615 366.725 192.362 366.643 192.992C366.561 193.621 365.897 194.501 365.229 194.424Z" fill="#F4F0F0"/>
<path d="M392.124 195.469C392.042 196.099 392.46 197.104 393.128 197.181C393.796 197.258 394.46 196.378 394.542 195.749C394.624 195.119 394.172 194.372 393.504 194.295C392.836 194.218 392.206 194.839 392.124 195.469Z" fill="#F4F0F0"/>
<path d="M384.853 216.592C384.185 216.514 383.767 215.509 383.849 214.879C383.93 214.25 384.561 213.628 385.228 213.706C385.897 213.783 386.349 214.53 386.266 215.159C386.184 215.789 385.521 216.669 384.853 216.592Z" fill="#F4F0F0"/>
<path d="M348.765 250.72C348.683 251.35 349.101 252.355 349.77 252.432C350.437 252.51 351.101 251.63 351.183 251.001C351.265 250.37 350.813 249.624 350.145 249.547C349.478 249.469 348.847 250.09 348.765 250.72Z" fill="#F4F0F0"/>
<path d="M399.565 249.342C399.647 248.712 400.278 248.09 400.946 248.168C401.613 248.245 402.066 248.991 401.983 249.622C401.901 250.251 401.238 251.131 400.57 251.054C399.902 250.977 399.483 249.971 399.565 249.342Z" fill="#F4F0F0"/>
<path d="M396.539 185.234C397.207 185.312 397.871 184.432 397.953 183.802C398.034 183.172 397.582 182.425 396.915 182.348C396.247 182.271 395.617 182.892 395.535 183.522C395.453 184.152 395.872 185.157 396.539 185.234Z" fill="#F4F0F0"/>
<path d="M376.062 201.33C375.554 201.746 375.152 202.757 375.593 203.236C376.035 203.715 377.153 203.48 377.661 203.064C378.168 202.647 378.362 201.807 377.921 201.328C377.479 200.85 376.57 200.914 376.062 201.33Z" fill="#F4F0F0"/>
<path d="M340.51 239.077C340.069 238.598 340.471 237.587 340.979 237.171C341.487 236.755 342.396 236.69 342.837 237.17C343.279 237.648 343.085 238.489 342.577 238.905C342.07 239.321 340.952 239.556 340.51 239.077Z" fill="#F4F0F0"/>
<path d="M393.378 237.526C393.885 237.11 394.079 236.269 393.638 235.791C393.196 235.312 392.287 235.376 391.779 235.792C391.272 236.208 390.869 237.219 391.311 237.699C391.752 238.177 392.87 237.943 393.378 237.526Z" fill="#F4F0F0"/>
<path d="M399.304 226.845C399.746 227.323 399.551 228.164 399.044 228.58C398.536 228.997 397.418 229.231 396.977 228.752C396.535 228.273 396.938 227.262 397.446 226.846C397.953 226.43 398.863 226.366 399.304 226.845Z" fill="#F4F0F0"/>
<path d="M387.956 204.754C388.755 204.649 389.526 205.381 389.638 206.136C389.75 206.889 389.27 208.104 388.471 208.21C387.671 208.316 386.855 207.273 386.743 206.519C386.63 205.765 387.156 204.861 387.956 204.754Z" fill="#F4F0F0"/>
<path d="M353.387 244.052C354.187 243.945 354.667 242.731 354.554 241.977C354.442 241.223 353.672 240.49 352.872 240.596C352.073 240.702 351.547 241.607 351.659 242.361C351.772 243.114 352.588 244.157 353.387 244.052Z" fill="#F4F0F0"/>
<path d="M407.118 242.155C407.918 242.049 408.688 242.782 408.8 243.536C408.913 244.29 408.433 245.504 407.634 245.611C406.834 245.716 406.018 244.673 405.905 243.92C405.793 243.166 406.319 242.261 407.118 242.155Z" fill="#F4F0F0"/>
<path d="M398.429 175.162C398.541 175.916 399.357 176.959 400.157 176.853C400.956 176.747 401.436 175.533 401.324 174.779C401.212 174.025 400.441 173.292 399.642 173.398C398.842 173.503 398.316 174.409 398.429 175.162Z" fill="#F4F0F0"/>
<path d="M358.343 247.419C357.766 247.092 357.817 246.013 358.164 245.469C358.51 244.925 359.354 244.6 359.931 244.927C360.508 245.253 360.599 246.108 360.252 246.652C359.906 247.197 358.92 247.746 358.343 247.419Z" fill="#F4F0F0"/>
<path d="M409.452 254.315C409.105 254.858 409.054 255.938 409.631 256.265C410.208 256.591 411.194 256.042 411.54 255.498C411.887 254.954 411.796 254.099 411.219 253.772C410.643 253.445 409.799 253.771 409.452 254.315Z" fill="#F4F0F0"/>
<path d="M405.112 180.221C404.536 179.894 404.587 178.815 404.934 178.271C405.28 177.728 406.124 177.401 406.7 177.728C407.277 178.055 407.368 178.911 407.022 179.455C406.675 179.999 405.689 180.548 405.112 180.221Z" fill="#F4F0F0"/>
<path d="M386.216 196.973C385.709 197.389 385.306 198.4 385.748 198.879C386.189 199.358 387.307 199.123 387.814 198.707C388.322 198.29 388.516 197.45 388.075 196.971C387.634 196.492 386.724 196.556 386.216 196.973Z" fill="#F4F0F0"/>
<path d="M398.928 194.262C398.486 193.784 398.889 192.772 399.396 192.356C399.904 191.94 400.813 191.876 401.255 192.355C401.696 192.833 401.503 193.674 400.995 194.09C400.487 194.506 399.369 194.741 398.928 194.262Z" fill="#F4F0F0"/>
<path d="M351.133 232.814C350.625 233.23 350.223 234.241 350.664 234.72C351.106 235.199 352.223 234.964 352.731 234.547C353.239 234.132 353.433 233.292 352.991 232.812C352.55 232.334 351.641 232.397 351.133 232.814Z" fill="#F4F0F0"/>
<path d="M408.571 233.283C409.012 233.761 408.818 234.602 408.311 235.018C407.803 235.434 406.685 235.668 406.245 235.19C405.802 234.711 406.205 233.7 406.712 233.284C407.22 232.868 408.13 232.804 408.571 233.283Z" fill="#F4F0F0"/>
<path d="M349.808 218.006C350.316 217.59 350.509 216.749 350.068 216.27C349.626 215.792 348.717 215.855 348.209 216.272C347.702 216.688 347.299 217.7 347.741 218.178C348.182 218.657 349.3 218.423 349.808 218.006Z" fill="#F4F0F0"/>
<path d="M365.785 250.733C366.226 251.212 366.032 252.052 365.525 252.468C365.017 252.885 363.899 253.119 363.458 252.64C363.016 252.162 363.419 251.151 363.927 250.734C364.434 250.318 365.344 250.254 365.785 250.733Z" fill="#F4F0F0"/>
<path d="M352.483 210.674C352.253 211.27 352.421 212.338 353.053 212.555C353.686 212.772 354.542 212.056 354.772 211.46C355.003 210.864 354.74 210.04 354.108 209.823C353.476 209.606 352.713 210.077 352.483 210.674Z" fill="#F4F0F0"/>
<path d="M370.489 245.922C370.72 245.326 370.457 244.502 369.825 244.285C369.193 244.068 368.43 244.54 368.2 245.136C367.97 245.732 368.138 246.801 368.771 247.018C369.402 247.234 370.259 246.518 370.489 245.922Z" fill="#F4F0F0"/>
<path d="M366.104 236.732C366.334 236.136 366.072 235.312 365.44 235.095C364.807 234.878 364.045 235.35 363.815 235.946C363.584 236.542 363.753 237.611 364.385 237.828C365.017 238.045 365.874 237.328 366.104 236.732Z" fill="#F4F0F0"/>
<path d="M366.863 215.693C366.244 215.941 365.304 215.473 365.04 214.889C364.778 214.305 365.031 213.674 365.65 213.427C366.269 213.179 367.02 213.407 367.283 213.991C367.546 214.575 367.483 215.445 366.863 215.693Z" fill="#F4F0F0"/>
<path d="M407.882 170.577C408.144 171.161 409.085 171.63 409.704 171.382C410.323 171.133 410.387 170.264 410.124 169.68C409.861 169.095 409.11 168.867 408.491 169.115C407.871 169.363 407.619 169.993 407.882 170.577Z" fill="#F4F0F0"/>
<path d="M383.001 248.453C383.263 249.037 383.2 249.908 382.58 250.155C381.961 250.404 381.021 249.935 380.758 249.351C380.495 248.768 380.748 248.137 381.367 247.889C381.987 247.641 382.737 247.869 383.001 248.453Z" fill="#F4F0F0"/>
<path d="M393.716 224.111C394.335 223.863 394.399 222.993 394.136 222.409C393.873 221.825 393.122 221.597 392.503 221.845C391.883 222.093 391.631 222.723 391.893 223.307C392.156 223.891 393.097 224.359 393.716 224.111Z" fill="#F4F0F0"/>
<path d="M409.176 217.567C408.557 217.815 407.616 217.346 407.353 216.762C407.091 216.178 407.343 215.548 407.963 215.3C408.582 215.052 409.333 215.281 409.596 215.865C409.859 216.449 409.796 217.319 409.176 217.567Z" fill="#F4F0F0"/>
<path d="M375.681 189.192C375.944 189.776 376.884 190.245 377.503 189.997C378.123 189.749 378.186 188.879 377.924 188.295C377.661 187.711 376.91 187.482 376.29 187.73C375.671 187.978 375.418 188.609 375.681 189.192Z" fill="#F4F0F0"/>
<path d="M404.768 185.785C405.032 186.369 404.968 187.239 404.349 187.487C403.729 187.735 402.789 187.267 402.526 186.683C402.263 186.098 402.516 185.468 403.135 185.22C403.754 184.972 404.505 185.2 404.768 185.785Z" fill="#F4F0F0"/>
<path d="M371.915 195.737C372.178 196.321 373.119 196.789 373.738 196.541C374.357 196.293 374.421 195.423 374.158 194.839C373.895 194.255 373.144 194.027 372.525 194.275C371.906 194.523 371.653 195.153 371.915 195.737Z" fill="#F4F0F0"/>
<path d="M387.633 230.199C387.37 229.615 387.623 228.985 388.242 228.737C388.861 228.489 389.612 228.718 389.876 229.302C390.138 229.886 390.075 230.756 389.455 231.004C388.836 231.251 387.896 230.783 387.633 230.199Z" fill="#F4F0F0"/>
<path d="M403.093 223.655C403.355 224.239 404.296 224.707 404.915 224.459C405.534 224.211 405.598 223.341 405.335 222.757C405.072 222.173 404.321 221.945 403.702 222.193C403.082 222.441 402.829 223.071 403.093 223.655Z" fill="#F4F0F0"/>
<path d="M374.713 221.814C374.093 222.062 373.153 221.593 372.89 221.009C372.627 220.425 372.88 219.795 373.499 219.547C374.119 219.299 374.869 219.528 375.133 220.112C375.395 220.696 375.332 221.566 374.713 221.814Z" fill="#F4F0F0"/>
<path d="M399.069 200.68C399.333 201.264 400.273 201.733 400.893 201.485C401.512 201.236 401.575 200.367 401.312 199.783C401.05 199.199 400.299 198.97 399.679 199.218C399.06 199.466 398.807 200.096 399.069 200.68Z" fill="#F4F0F0"/>
<path d="M410.202 194.385C409.582 194.633 408.642 194.164 408.378 193.58C408.116 192.996 408.369 192.366 408.988 192.118C409.608 191.87 410.359 192.098 410.621 192.682C410.884 193.266 410.821 194.136 410.202 194.385Z" fill="#F4F0F0"/>
<path d="M384.576 189.652C384.839 190.236 385.78 190.704 386.399 190.456C387.018 190.208 387.082 189.338 386.819 188.754C386.556 188.17 385.805 187.942 385.185 188.19C384.566 188.438 384.313 189.068 384.576 189.652Z" fill="#F4F0F0"/>
<path d="M434.746 179.123C435.42 179.076 435.896 178.023 435.848 177.346C435.8 176.669 435.2 175.974 434.526 176.022C433.85 176.07 433.355 176.844 433.403 177.521C433.451 178.197 434.07 179.172 434.746 179.123Z" fill="#F4F0F0"/>
<path d="M436.788 247.847C436.837 248.524 436.361 249.576 435.686 249.623C435.011 249.672 434.391 248.698 434.343 248.021C434.295 247.344 434.791 246.571 435.466 246.522C436.141 246.474 436.74 247.17 436.788 247.847Z" fill="#F4F0F0"/>
<path d="M487.876 245.681C487.924 246.358 487.449 247.41 486.774 247.458C486.098 247.506 485.479 246.532 485.431 245.856C485.383 245.178 485.878 244.405 486.553 244.357C487.229 244.309 487.828 245.004 487.876 245.681Z" fill="#F4F0F0"/>
<path d="M460.725 205.938C460.771 206.58 460.4 207.571 459.86 207.609C459.321 207.648 458.814 206.719 458.768 206.077C458.723 205.435 459.112 204.707 459.652 204.669C460.192 204.63 460.679 205.296 460.725 205.938Z" fill="#F4F0F0"/>
<path d="M446.697 245.497C447.238 245.458 447.607 244.466 447.561 243.824C447.516 243.183 447.029 242.517 446.488 242.556C445.948 242.594 445.56 243.323 445.605 243.964C445.651 244.606 446.157 245.535 446.697 245.497Z" fill="#F4F0F0"/>
<path d="M422.19 213.412C422.235 214.053 422.741 214.983 423.282 214.944C423.821 214.906 424.191 213.914 424.146 213.272C424.1 212.631 423.612 211.965 423.073 212.004C422.532 212.042 422.144 212.77 422.19 213.412Z" fill="#F4F0F0"/>
<path d="M466.707 220.41C466.09 220.686 465.175 219.983 464.899 219.364C464.623 218.744 464.824 217.847 465.442 217.57C466.061 217.294 466.861 217.742 467.137 218.362C467.414 218.981 467.326 220.133 466.707 220.41Z" fill="#F4F0F0"/>
<path d="M451.736 257.251C452.012 257.87 452.927 258.573 453.545 258.297C454.163 258.019 454.25 256.868 453.974 256.249C453.698 255.629 452.897 255.18 452.279 255.457C451.661 255.734 451.46 256.631 451.736 257.251Z" fill="#F4F0F0"/>
<path d="M476.037 225.573C475.373 225.704 474.639 224.812 474.509 224.146C474.379 223.48 474.777 222.652 475.441 222.521C476.105 222.391 476.785 223.009 476.915 223.674C477.045 224.34 476.701 225.443 476.037 225.573Z" fill="#F4F0F0"/>
<path d="M461.179 226.306C461.843 226.175 462.523 226.793 462.653 227.458C462.783 228.124 462.439 229.227 461.774 229.357C461.11 229.488 460.377 228.596 460.247 227.93C460.117 227.265 460.515 226.436 461.179 226.306Z" fill="#F4F0F0"/>
<path d="M446.511 228.968C447.175 228.837 447.518 227.735 447.389 227.069C447.259 226.403 446.579 225.786 445.915 225.916C445.25 226.046 444.853 226.875 444.984 227.541C445.113 228.207 445.846 229.098 446.511 228.968Z" fill="#F4F0F0"/>
<path d="M419.575 207.257C419.705 207.923 419.361 209.025 418.697 209.155C418.033 209.285 417.299 208.394 417.17 207.729C417.039 207.062 417.436 206.234 418.101 206.103C418.765 205.973 419.445 206.591 419.575 207.257Z" fill="#F4F0F0"/>
<path d="M460.197 191.417C460.862 191.286 461.206 190.184 461.076 189.518C460.946 188.852 460.266 188.234 459.602 188.365C458.937 188.495 458.54 189.324 458.67 189.99C458.8 190.656 459.533 191.547 460.197 191.417Z" fill="#F4F0F0"/>
<path d="M433.285 194.455C433.415 195.121 433.071 196.224 432.407 196.354C431.742 196.484 431.01 195.593 430.88 194.927C430.749 194.261 431.147 193.433 431.812 193.302C432.475 193.172 433.155 193.79 433.285 194.455Z" fill="#F4F0F0"/>
<path d="M442.182 216.468C442.847 216.337 443.191 215.235 443.06 214.569C442.931 213.903 442.251 213.286 441.587 213.416C440.922 213.546 440.525 214.375 440.655 215.041C440.785 215.707 441.518 216.598 442.182 216.468Z" fill="#F4F0F0"/>
<path d="M480.986 250.29C481.115 250.956 480.771 252.059 480.107 252.189C479.442 252.319 478.709 251.428 478.58 250.762C478.45 250.096 478.847 249.268 479.511 249.137C480.176 249.007 480.855 249.624 480.986 250.29Z" fill="#F4F0F0"/>
<path d="M429.898 252.456C429.767 251.79 429.088 251.173 428.423 251.303C427.759 251.433 427.362 252.262 427.492 252.928C427.622 253.594 428.355 254.485 429.019 254.355C429.683 254.225 430.027 253.122 429.898 252.456Z" fill="#F4F0F0"/>
<path d="M428.079 183.854C427.415 183.985 426.681 183.093 426.552 182.427C426.422 181.761 426.819 180.933 427.483 180.802C428.147 180.672 428.827 181.29 428.957 181.956C429.087 182.621 428.743 183.724 428.079 183.854Z" fill="#F4F0F0"/>
<path d="M449.849 199.559C450.39 199.966 450.87 201.016 450.463 201.559C450.057 202.101 448.917 201.93 448.376 201.523C447.835 201.115 447.577 200.233 447.983 199.69C448.39 199.148 449.307 199.151 449.849 199.559Z" fill="#F4F0F0"/>
<path d="M488.388 237.28C488.794 236.737 488.314 235.688 487.773 235.28C487.232 234.872 486.314 234.869 485.908 235.411C485.501 235.954 485.759 236.836 486.3 237.244C486.841 237.651 487.981 237.822 488.388 237.28Z" fill="#F4F0F0"/>
<path d="M435.213 239.409C434.672 239.002 434.413 238.119 434.82 237.577C435.227 237.034 436.144 237.038 436.685 237.445C437.227 237.853 437.707 238.902 437.3 239.446C436.894 239.988 435.754 239.817 435.213 239.409Z" fill="#F4F0F0"/>
<path d="M428.456 228.439C428.049 228.982 428.307 229.864 428.848 230.271C429.389 230.68 430.529 230.85 430.936 230.307C431.343 229.765 430.862 228.716 430.321 228.308C429.78 227.9 428.863 227.897 428.456 228.439Z" fill="#F4F0F0"/>
<path d="M438.172 204.063C437.361 204.007 436.644 204.844 436.588 205.657C436.533 206.469 437.106 207.73 437.916 207.786C438.727 207.841 439.467 206.671 439.523 205.859C439.579 205.046 438.982 204.119 438.172 204.063Z" fill="#F4F0F0"/>
<path d="M475.841 243.508C475.03 243.451 474.457 242.191 474.513 241.378C474.568 240.566 475.286 239.729 476.096 239.784C476.907 239.841 477.503 240.768 477.447 241.58C477.392 242.393 476.652 243.563 475.841 243.508Z" fill="#F4F0F0"/>
<path d="M421.773 245.331C420.962 245.275 420.246 246.112 420.189 246.924C420.134 247.736 420.707 248.997 421.518 249.054C422.329 249.109 423.069 247.938 423.124 247.126C423.18 246.314 422.584 245.386 421.773 245.331Z" fill="#F4F0F0"/>
<path d="M425.419 173.245C425.364 174.057 424.624 175.228 423.813 175.172C423.002 175.116 422.429 173.855 422.485 173.043C422.54 172.231 423.258 171.394 424.068 171.449C424.878 171.505 425.475 172.433 425.419 173.245Z" fill="#F4F0F0"/>
<path d="M471.123 247.455C471.677 247.065 471.543 245.917 471.155 245.362C470.766 244.807 469.894 244.52 469.34 244.91C468.786 245.3 468.759 246.219 469.149 246.774C469.537 247.33 470.569 247.845 471.123 247.455Z" fill="#F4F0F0"/>
<path d="M420.352 258.469C420.741 259.024 420.874 260.172 420.32 260.562C419.766 260.951 418.734 260.436 418.346 259.881C417.957 259.325 417.984 258.406 418.538 258.016C419.091 257.626 419.963 257.913 420.352 258.469Z" fill="#F4F0F0"/>
<path d="M419.095 179.12C419.649 178.73 419.516 177.582 419.127 177.027C418.738 176.472 417.866 176.185 417.312 176.575C416.758 176.965 416.732 177.884 417.12 178.439C417.51 178.994 418.541 179.51 419.095 179.12Z" fill="#F4F0F0"/>
<path d="M439.328 195.637C439.869 196.045 440.349 197.095 439.943 197.637C439.536 198.18 438.396 198.009 437.855 197.601C437.314 197.194 437.056 196.311 437.463 195.769C437.869 195.227 438.787 195.23 439.328 195.637Z" fill="#F4F0F0"/>
<path d="M426.365 193.656C426.772 193.114 426.291 192.064 425.751 191.656C425.21 191.248 424.292 191.245 423.885 191.787C423.478 192.33 423.737 193.212 424.278 193.62C424.819 194.028 425.958 194.198 426.365 193.656Z" fill="#F4F0F0"/>
<path d="M477.252 231.359C477.794 231.767 478.274 232.816 477.867 233.359C477.46 233.901 476.321 233.731 475.78 233.323C475.239 232.916 474.98 232.033 475.387 231.491C475.794 230.948 476.711 230.951 477.252 231.359Z" fill="#F4F0F0"/>
<path d="M419.643 235.97C419.236 236.513 419.494 237.395 420.036 237.802C420.577 238.211 421.716 238.381 422.123 237.838C422.53 237.296 422.049 236.247 421.508 235.839C420.967 235.432 420.05 235.428 419.643 235.97Z" fill="#F4F0F0"/>
<path d="M477.461 215.468C476.92 215.061 476.661 214.178 477.068 213.636C477.475 213.093 478.392 213.096 478.933 213.504C479.474 213.912 479.955 214.962 479.548 215.504C479.141 216.046 478.002 215.876 477.461 215.468Z" fill="#F4F0F0"/>
<path d="M463.905 251.522C463.498 252.064 463.757 252.947 464.298 253.355C464.839 253.763 465.978 253.933 466.384 253.391C466.792 252.848 466.311 251.798 465.77 251.391C465.229 250.983 464.312 250.98 463.905 251.522Z" fill="#F4F0F0"/>
<path d="M474.22 207.838C474.496 208.458 474.409 209.609 473.791 209.886C473.173 210.163 472.259 209.46 471.983 208.84C471.706 208.221 471.907 207.323 472.525 207.046C473.143 206.77 473.944 207.218 474.22 207.838Z" fill="#F4F0F0"/>
<path d="M458.819 246.728C458.543 246.108 458.744 245.211 459.362 244.934C459.98 244.657 460.781 245.106 461.057 245.726C461.334 246.344 461.246 247.497 460.627 247.773C460.009 248.05 459.095 247.347 458.819 246.728Z" fill="#F4F0F0"/>
<path d="M462.524 236.61C462.248 235.991 462.449 235.094 463.067 234.817C463.685 234.54 464.486 234.989 464.762 235.608C465.038 236.227 464.95 237.379 464.332 237.656C463.715 237.933 462.8 237.23 462.524 236.61Z" fill="#F4F0F0"/>
<path d="M460.168 214.222C460.809 214.442 461.717 213.876 461.937 213.234C462.156 212.592 461.855 211.938 461.214 211.718C460.574 211.497 459.838 211.795 459.618 212.437C459.399 213.078 459.528 214.002 460.168 214.222Z" fill="#F4F0F0"/>
<path d="M415.586 169.031C415.366 169.673 414.457 170.239 413.817 170.019C413.176 169.799 413.047 168.875 413.266 168.234C413.486 167.592 414.222 167.295 414.863 167.515C415.503 167.735 415.805 168.389 415.586 169.031Z" fill="#F4F0F0"/>
<path d="M446.455 250.323C446.235 250.964 446.365 251.888 447.005 252.108C447.645 252.329 448.554 251.762 448.774 251.12C448.993 250.479 448.691 249.824 448.051 249.604C447.411 249.383 446.674 249.681 446.455 250.323Z" fill="#F4F0F0"/>
<path d="M433.857 225.123C433.216 224.903 433.087 223.979 433.306 223.338C433.526 222.696 434.262 222.399 434.903 222.619C435.543 222.839 435.845 223.493 435.625 224.135C435.405 224.777 434.497 225.343 433.857 225.123Z" fill="#F4F0F0"/>
<path d="M417.846 219.249C418.486 219.469 419.394 218.902 419.614 218.261C419.833 217.619 419.532 216.965 418.892 216.745C418.251 216.524 417.515 216.821 417.295 217.463C417.076 218.105 417.205 219.028 417.846 219.249Z" fill="#F4F0F0"/>
<path d="M449.312 186.584C449.092 187.226 448.184 187.793 447.543 187.572C446.903 187.352 446.774 186.429 446.993 185.787C447.213 185.145 447.949 184.847 448.59 185.068C449.23 185.288 449.531 185.942 449.312 186.584Z" fill="#F4F0F0"/>
<path d="M419.862 185.03C419.642 185.672 419.772 186.596 420.412 186.816C421.052 187.036 421.961 186.469 422.181 185.827C422.4 185.185 422.098 184.532 421.458 184.311C420.818 184.091 420.081 184.388 419.862 185.03Z" fill="#F4F0F0"/>
<path d="M453.587 193.295C453.367 193.937 452.459 194.504 451.818 194.284C451.178 194.063 451.048 193.14 451.268 192.498C451.488 191.856 452.224 191.559 452.864 191.779C453.505 191.999 453.806 192.653 453.587 193.295Z" fill="#F4F0F0"/>
<path d="M440.423 231.182C440.643 230.541 440.342 229.886 439.701 229.666C439.061 229.446 438.324 229.743 438.104 230.385C437.885 231.027 438.015 231.951 438.655 232.171C439.296 232.39 440.204 231.824 440.423 231.182Z" fill="#F4F0F0"/>
<path d="M424.412 225.308C424.193 225.95 423.284 226.517 422.644 226.296C422.003 226.076 421.874 225.153 422.093 224.511C422.313 223.869 423.049 223.571 423.69 223.792C424.33 224.012 424.632 224.666 424.412 225.308Z" fill="#F4F0F0"/>
<path d="M452.755 221.312C453.395 221.533 454.303 220.966 454.523 220.324C454.743 219.682 454.441 219.028 453.8 218.808C453.16 218.588 452.424 218.885 452.204 219.527C451.985 220.169 452.114 221.092 452.755 221.312Z" fill="#F4F0F0"/>
<path d="M426.709 200.512C426.49 201.154 425.581 201.721 424.941 201.5C424.3 201.28 424.171 200.356 424.39 199.715C424.61 199.073 425.346 198.776 425.986 198.996C426.627 199.216 426.929 199.87 426.709 200.512Z" fill="#F4F0F0"/>
<path d="M415.06 194.593C415.701 194.813 416.609 194.246 416.829 193.605C417.048 192.963 416.747 192.308 416.107 192.088C415.466 191.868 414.73 192.166 414.51 192.807C414.291 193.449 414.42 194.372 415.06 194.593Z" fill="#F4F0F0"/>
<path d="M440.419 187.711C440.2 188.353 439.292 188.919 438.651 188.699C438.011 188.479 437.881 187.556 438.101 186.914C438.32 186.272 439.057 185.974 439.697 186.195C440.338 186.415 440.639 187.069 440.419 187.711Z" fill="#F4F0F0"/>
</g>
<path fill-rule="evenodd" clip-rule="evenodd" d="M412.016 159.897C412.257 159.915 412.439 160.125 412.421 160.367L411.83 168.567C411.813 168.809 411.603 168.99 411.362 168.973C411.121 168.956 410.939 168.745 410.956 168.503L411.547 160.304C411.564 160.062 411.774 159.88 412.016 159.897ZM407.435 160.6C407.488 160.363 407.339 160.128 407.102 160.076C406.866 160.024 406.632 160.173 406.58 160.41L404.724 168.778C404.671 169.015 404.82 169.25 405.057 169.302C405.293 169.355 405.527 169.206 405.58 168.969L407.435 160.6ZM379.212 208.679C379.128 208.906 379.244 209.159 379.471 209.243C379.698 209.327 379.95 209.212 380.034 208.984L381.701 204.473C381.785 204.246 381.67 203.993 381.443 203.909C381.216 203.825 380.963 203.941 380.879 204.168L379.212 208.679ZM452.133 209.274C452.285 209.463 452.561 209.492 452.749 209.34C452.938 209.187 452.967 208.911 452.815 208.722L449.314 204.379C449.162 204.19 448.886 204.16 448.698 204.313C448.51 204.465 448.48 204.742 448.632 204.931L452.133 209.274ZM412.741 221.551C412.849 221.334 413.112 221.247 413.329 221.355L418.208 223.8C418.425 223.908 418.513 224.172 418.404 224.389C418.296 224.606 418.033 224.694 417.816 224.585L412.937 222.141C412.72 222.032 412.633 221.768 412.741 221.551ZM418.411 160.322C418.403 160.079 418.201 159.889 417.96 159.896C417.718 159.904 417.528 160.107 417.535 160.349L417.788 168.633C417.796 168.875 417.998 169.066 418.24 169.059C418.481 169.051 418.672 168.848 418.664 168.606L418.411 160.322ZM425.141 160.327C425.378 160.28 425.609 160.434 425.657 160.672L427.259 168.703C427.307 168.94 427.153 169.172 426.916 169.219C426.678 169.267 426.448 169.113 426.4 168.875L424.797 160.844C424.75 160.606 424.904 160.375 425.141 160.327Z" fill="#E58857"/>
<path fill-rule="evenodd" clip-rule="evenodd" d="M460.232 208.976H361.656L370.948 263.026H453.768L460.232 208.976Z" fill="#B9B3B8"/>
<path fill-rule="evenodd" clip-rule="evenodd" d="M417.027 233.868C416.536 232.725 416.099 231.617 415.729 230.562C414.91 228.227 414.454 226.265 414.446 224.756L414.405 224.804C413.698 225.623 412.991 226.518 412.332 227.457C411.216 229.047 410.356 230.598 409.851 232.041C409.548 232.905 409.38 233.714 409.358 234.454C409.357 234.488 409.352 234.52 409.345 234.551C411.098 234.71 412.568 236.3 412.751 238.359C412.953 240.64 411.498 242.633 409.501 242.811C407.504 242.989 405.721 241.284 405.519 239.003C405.326 236.824 406.646 234.907 408.506 234.585C408.489 234.537 408.481 234.483 408.482 234.429C408.507 233.59 408.693 232.694 409.024 231.75C409.56 230.22 410.457 228.602 411.614 226.952C412.292 225.987 413.017 225.069 413.742 224.229C413.996 223.935 414.232 223.672 414.445 223.442C414.572 223.303 414.664 223.206 414.715 223.155C415.03 222.832 415.568 223.139 415.452 223.575C415.087 224.946 415.508 227.283 416.556 230.27C416.919 231.306 417.349 232.396 417.832 233.521C418.385 234.809 418.977 236.076 419.57 237.267C419.778 237.683 419.97 238.061 420.143 238.392C420.246 238.589 420.32 238.728 420.359 238.799C420.413 238.901 420.424 239.014 420.398 239.117C420.484 239.111 420.571 239.108 420.659 239.108C422.831 239.108 424.591 240.993 424.591 243.319C424.591 245.644 422.831 247.53 420.659 247.53C418.487 247.53 416.726 245.644 416.726 243.319C416.726 241.381 417.949 239.749 419.613 239.258C419.604 239.246 419.596 239.232 419.588 239.218C419.577 239.198 419.558 239.162 419.53 239.108C419.482 239.02 419.427 238.916 419.366 238.798C419.191 238.462 418.996 238.08 418.786 237.659C418.187 236.454 417.587 235.172 417.027 233.868Z" fill="#F4F0F0"/>
</svg>
