<svg width="435" height="451" viewBox="0 0 435 451" fill="none" xmlns="http://www.w3.org/2000/svg">
<path fill-rule="evenodd" clip-rule="evenodd" d="M334.542 0.00462061L387.109 1.19905C397.898 1.44449 406.038 11.0114 404.486 21.6194L387.15 140.03C385.474 151.482 375.159 159.692 363.542 158.824L313.127 155.054C304.153 154.383 297.628 146.3 298.92 137.451L316.807 14.9026C318.078 6.19718 325.688 -0.196615 334.542 0.00462061Z" fill="#CDB1AA"/>
<path fill-rule="evenodd" clip-rule="evenodd" d="M39.8756 69.2424H165.575L196.263 245.44H63.8381L39.8756 69.2424Z" fill="#FFF5EE"/>
<path fill-rule="evenodd" clip-rule="evenodd" d="M25.2339 85.0072V54.7136H55.7636V85.0072H25.2339ZM27.8428 82.4187H53.1548V57.3022H27.8428V82.4187Z" fill="#CDB1AA"/>
<path fill-rule="evenodd" clip-rule="evenodd" d="M108.724 29.0571H184.737V0.309082H108.724V29.0571Z" fill="#FFF5EE"/>
<path fill-rule="evenodd" clip-rule="evenodd" d="M115.889 166.615H193.771V89.3352H115.889V166.615Z" fill="#F4F0F0"/>
<path fill-rule="evenodd" clip-rule="evenodd" d="M27.103 231.221H94.7047V164.142H27.103V231.221Z" fill="#E3D4C5"/>
<path fill-rule="evenodd" clip-rule="evenodd" d="M217.136 61.5145H271.653V35.5486H217.136V61.5145Z" fill="#FFF5EE"/>
<path fill-rule="evenodd" clip-rule="evenodd" d="M335.128 5.87712L384.732 7.17078C393.807 7.40787 400.605 15.5043 399.194 24.3989L380.773 140.672C379.542 148.444 372.458 153.945 364.558 153.266L312.09 148.757C306.815 148.304 303.032 143.512 303.853 138.325L323.271 15.6691C324.184 9.91483 329.258 5.7238 335.128 5.87712Z" fill="#F4F0F0"/>
<path fill-rule="evenodd" clip-rule="evenodd" d="M366.115 11.7462H352.894C349.318 11.7462 346.421 8.84977 346.421 5.27636V2.47266H372.589V5.27636C372.589 8.84977 369.692 11.7462 366.115 11.7462Z" fill="#CDB1AA"/>
<path fill-rule="evenodd" clip-rule="evenodd" d="M338.991 39.876H404.499C407.997 39.876 410.695 42.94 410.231 46.3879L404.131 91.7655C403.748 94.6212 401.296 96.7538 398.399 96.7538H332.888C329.392 96.7538 326.695 93.6898 327.159 90.2419L333.258 44.8636C333.642 42.0083 336.093 39.876 338.991 39.876Z" fill="#FFF5EE"/>
<path fill-rule="evenodd" clip-rule="evenodd" d="M339.006 41.256C336.878 41.256 335.081 42.8165 334.797 44.9058L328.701 90.1342C328.361 92.6572 330.339 94.8992 332.906 94.8992H398.384C400.511 94.8992 402.309 93.3388 402.589 91.2492L408.689 46.0211C409.029 43.4981 407.05 41.256 404.483 41.256H339.006Z" fill="#F4F0F0"/>
<path fill-rule="evenodd" clip-rule="evenodd" d="M357.907 76.3521L337.698 75.6865L341.171 51.3135L361.062 51.6282L357.907 76.3521Z" fill="#E3D4C5"/>
<path fill-rule="evenodd" clip-rule="evenodd" d="M333.791 131.684H291.164C286.985 131.684 283.919 127.782 284.932 123.753L287.398 113.954C288.112 111.112 290.681 109.119 293.629 109.119H336.255C340.433 109.119 343.502 113.022 342.486 117.05L340.022 126.849C339.308 129.691 336.738 131.684 333.791 131.684Z" fill="#E3D4C5"/>
<path fill-rule="evenodd" clip-rule="evenodd" d="M369.851 55.9505C369.125 55.9505 368.539 55.3969 368.539 54.714C368.539 54.0312 369.125 53.4775 369.851 53.4775H400.561C401.287 53.4775 401.873 54.0312 401.873 54.714C401.873 55.3969 401.287 55.9505 400.561 55.9505H369.851Z" fill="#E3D4C5"/>
<path fill-rule="evenodd" clip-rule="evenodd" d="M368.907 65.8423C368.187 65.8423 367.605 65.2887 367.605 64.6059C367.605 63.923 368.187 63.3694 368.907 63.3694H387.798C388.517 63.3694 389.1 63.923 389.1 64.6059C389.1 65.2887 388.517 65.8423 387.798 65.8423H368.907Z" fill="#E3D4C5"/>
<path fill-rule="evenodd" clip-rule="evenodd" d="M403.505 85.6259H370.957C367.695 85.6259 365.343 82.4806 366.24 79.3214C366.841 77.1978 368.767 75.7341 370.957 75.7341H403.505C406.764 75.7341 409.119 78.8794 408.222 82.0386C407.62 84.1619 405.695 85.6259 403.505 85.6259Z" fill="#CDB1AA"/>
<path fill-rule="evenodd" clip-rule="evenodd" d="M328.374 119.563C329.614 119.563 330.623 118.613 330.623 117.432C330.623 116.252 329.614 115.301 328.374 115.301C327.134 115.301 326.121 116.252 326.121 117.432C326.121 118.613 327.134 119.563 328.374 119.563ZM328.374 115.908C329.28 115.908 330.009 116.594 330.009 117.432C330.009 118.271 329.277 118.957 328.374 118.957C327.467 118.957 326.738 118.271 326.738 117.432C326.738 116.594 327.467 115.908 328.374 115.908ZM331.582 123.911C332.121 123.797 332.402 123.414 332.402 122.766C332.402 121.113 330.579 119.82 328.374 119.82C326.165 119.82 324.342 121.113 324.342 122.766C324.342 123.42 324.663 123.802 325.255 123.913C325.642 123.985 325.9 123.968 327.015 123.841C327.667 123.767 328.068 123.735 328.508 123.735C328.947 123.735 329.349 123.768 329.953 123.841C331.04 123.972 331.227 123.986 331.582 123.911ZM328.374 120.427C330.274 120.427 331.785 121.499 331.785 122.766C331.785 123.141 331.695 123.267 331.452 123.318C331.202 123.371 331.009 123.357 330.028 123.238C329.402 123.163 328.978 123.129 328.508 123.129C328.04 123.129 327.617 123.162 326.947 123.238C325.916 123.355 325.666 123.372 325.371 123.316C325.068 123.26 324.959 123.129 324.959 122.766C324.959 121.499 326.47 120.427 328.374 120.427ZM309.002 119.908C308.725 119.908 308.589 119.575 308.789 119.386L312.361 116.007C312.483 115.891 312.679 115.895 312.797 116.017L316.062 119.396C316.249 119.589 316.112 119.908 315.841 119.908H315.09V123.103C315.09 123.271 314.95 123.407 314.782 123.407H310.135C309.964 123.407 309.827 123.271 309.827 123.103V119.908H309.002ZM312.564 116.656L309.767 119.302H310.135C310.304 119.302 310.442 119.437 310.442 119.605V122.8H314.473V119.605C314.473 119.437 314.61 119.302 314.782 119.302H315.121L312.564 116.656ZM301.288 118.79C301.288 118.622 301.15 118.486 300.98 118.486H300.008V118.167C300.008 117.503 299.462 116.964 298.788 116.964H296.271C295.598 116.964 295.052 117.503 295.052 118.167V118.486H294.08C293.91 118.486 293.772 118.622 293.772 118.79V122.437C293.772 122.605 293.91 122.741 294.08 122.741H300.98C301.15 122.741 301.288 122.605 301.288 122.437V118.79ZM299.392 118.79C299.392 118.957 299.53 119.093 299.7 119.093H300.673V122.134H294.387V119.093H295.359C295.529 119.093 295.667 118.957 295.667 118.79V118.167C295.667 117.838 295.938 117.571 296.271 117.571H298.788C299.122 117.571 299.392 117.838 299.392 118.167V118.79ZM298.842 120.223C298.842 120.937 298.254 121.517 297.53 121.517C296.805 121.517 296.218 120.937 296.218 120.223C296.218 119.508 296.805 118.929 297.53 118.929C298.254 118.929 298.842 119.508 298.842 120.223ZM298.227 120.223C298.227 119.843 297.915 119.535 297.53 119.535C297.145 119.535 296.833 119.843 296.833 120.223C296.833 120.602 297.145 120.91 297.53 120.91C297.915 120.91 298.227 120.602 298.227 120.223Z" fill="#F4F0F0"/>
<path fill-rule="evenodd" clip-rule="evenodd" d="M41.7448 161.359L32.3948 155.976H0V138.485H41.7448V161.359Z" fill="#CDB1AA"/>
<path fill-rule="evenodd" clip-rule="evenodd" d="M178.173 96.2628C177.452 96.2628 176.868 95.6808 176.868 94.963C176.868 94.2449 177.452 93.6628 178.173 93.6628H189.721V95.0013C189.721 95.0115 189.721 95.0217 189.721 95.0319V105.165C189.721 105.883 189.137 106.465 188.416 106.465C187.695 106.465 187.11 105.883 187.11 105.165V98.1553L125.641 159.378H132.733C133.454 159.378 134.038 159.96 134.038 160.678C134.038 161.396 133.454 161.978 132.733 161.978H121.185V160.691C121.185 160.682 121.185 160.674 121.185 160.665V150.477C121.185 149.759 121.769 149.176 122.49 149.176C123.211 149.176 123.796 149.759 123.796 150.477V157.539L185.319 96.2628H178.173Z" fill="#CDB1AA"/>
<path fill-rule="evenodd" clip-rule="evenodd" d="M146.232 89.2749C146.232 89.9911 145.646 90.5717 144.924 90.5717C144.201 90.5717 143.615 89.9911 143.615 89.2749V47.9133H217.696C218.419 47.9133 219.005 48.4939 219.005 49.2101C219.005 49.9263 218.419 50.5068 217.696 50.5068H146.232V89.2749Z" fill="#FFF5EE"/>
<path fill-rule="evenodd" clip-rule="evenodd" d="M288.352 16.818H184.487C183.765 16.818 183.179 16.2362 183.179 15.5185C183.179 14.801 183.765 14.2192 184.487 14.2192H290.968V50.3233C290.968 51.0408 290.383 51.6226 289.66 51.6226C288.938 51.6226 288.352 51.0408 288.352 50.3233V16.818Z" fill="#FFF5EE"/>
<path fill-rule="evenodd" clip-rule="evenodd" d="M284.293 117.037C285.016 117.037 285.602 117.617 285.602 118.333C285.602 119.049 285.016 119.629 284.293 119.629H279.441V49.1499H331.093C331.816 49.1499 332.402 49.7301 332.402 50.446C332.402 51.1616 331.816 51.7422 331.093 51.7422H282.059V117.037H284.293Z" fill="#FFF5EE"/>
<path fill-rule="evenodd" clip-rule="evenodd" d="M43.3644 246.676C42.642 246.676 42.0563 246.123 42.0563 245.44C42.0563 244.757 42.642 244.203 43.3644 244.203H433.586C434.309 244.203 434.895 244.757 434.895 245.44C434.895 246.123 434.309 246.676 433.586 246.676H43.3644Z" fill="#FFF5EE"/>
<path fill-rule="evenodd" clip-rule="evenodd" d="M321.162 390.33L434.895 450.648H170.039L104.846 390.33H321.162Z" fill="#FFF5EE"/>
<path fill-rule="evenodd" clip-rule="evenodd" d="M394.081 438.837C394.471 440.735 393.234 442.583 391.324 442.97C391.088 443.019 390.851 443.041 390.617 443.041C388.972 443.041 387.499 441.894 387.159 440.234L360.533 310.302C360.499 310.145 360.483 309.987 360.474 309.832L367.502 309.128L394.081 438.837Z" fill="#5BA092"/>
<path fill-rule="evenodd" clip-rule="evenodd" d="M336.829 301.802L311.299 440.058C310.985 441.749 309.5 442.93 307.827 442.93C307.616 442.93 307.401 442.911 307.186 442.874C305.268 442.525 303.997 440.698 304.348 438.794L329.757 301.211L336.819 300.506C336.903 300.921 336.913 301.359 336.829 301.802Z" fill="#5BA092"/>
<path fill-rule="evenodd" clip-rule="evenodd" d="M277.751 398.784C278.072 400.692 276.773 402.5 274.85 402.818C274.652 402.852 274.456 402.868 274.262 402.868C272.568 402.868 271.072 401.653 270.783 399.94L254.734 304.754C254.68 304.435 254.675 304.12 254.707 303.811L261.966 305.165L277.751 398.784Z" fill="#5BA092"/>
<path fill-rule="evenodd" clip-rule="evenodd" d="M200.817 401.758L229.267 289.202C229.306 289.047 229.357 288.902 229.414 288.76L236.222 290.03C236.224 290.321 236.194 290.612 236.119 290.905L207.669 403.465C207.267 405.057 205.828 406.117 204.246 406.117C203.961 406.117 203.672 406.083 203.384 406.012C201.492 405.539 200.342 403.638 200.817 401.758Z" fill="#5BA092"/>
<path fill-rule="evenodd" clip-rule="evenodd" d="M394.39 317.421V308.318L261.169 297.616L206.517 288.512V297.616L312.601 317.421H394.39Z" fill="#5BA092"/>
<path fill-rule="evenodd" clip-rule="evenodd" d="M394.39 308.318L261.169 288.512H206.517L312.601 308.318H394.39Z" fill="#2F6858"/>
<path fill-rule="evenodd" clip-rule="evenodd" d="M299.348 298.583H305.569L301.378 285.993H319.346L324.28 300.113L324.632 300.976C324.732 301.211 324.773 301.467 324.757 301.721C324.698 302.608 323.956 303.3 323.059 303.3H299.348C298.035 303.3 296.97 302.246 296.97 300.942C296.97 299.637 298.035 298.583 299.348 298.583Z" fill="#B9B3B8"/>
<path fill-rule="evenodd" clip-rule="evenodd" d="M362.056 231.347L258.979 226.408C256.472 226.289 254.372 228.268 254.362 230.757L254.178 278.775C254.169 281.05 255.922 282.951 258.207 283.146L362.056 291.965V231.347Z" fill="#010101"/>
<path fill-rule="evenodd" clip-rule="evenodd" d="M366.184 231.347H362.059V291.966H366.184C369.007 291.966 371.296 289.697 371.296 286.896V236.42C371.296 233.616 369.007 231.347 366.184 231.347Z" fill="#B9B3B8"/>
<path fill-rule="evenodd" clip-rule="evenodd" d="M335.913 186.382V279.561L233.573 243.857V169.445L335.913 186.382Z" fill="#E3D4C5"/>
<path fill-rule="evenodd" clip-rule="evenodd" d="M295.053 218.851L324.85 224.156V200.284L295.053 195.474V218.851Z" fill="#CDB1AA"/>
<path fill-rule="evenodd" clip-rule="evenodd" d="M295.053 166.151L324.85 166.688V194.833L295.053 189.822V166.151Z" fill="#CDB1AA"/>
<path fill-rule="evenodd" clip-rule="evenodd" d="M295.053 246.553L324.85 252.89V230.358L295.053 224.208V246.553Z" fill="#CDB1AA"/>
<path fill-rule="evenodd" clip-rule="evenodd" d="M324.85 260.111V286.488L294.826 275.434L295.053 253.975L324.85 260.111Z" fill="#CDB1AA"/>
<path fill-rule="evenodd" clip-rule="evenodd" d="M228.678 229.524L281.003 245.953V192.158L228.678 181.293V229.524Z" fill="#94C0E9"/>
<path fill-rule="evenodd" clip-rule="evenodd" d="M268.622 203.813L278.591 206.955V196.667L268.622 194.59V203.813Z" fill="white"/>
<path fill-rule="evenodd" clip-rule="evenodd" d="M268.622 215.482L278.591 218.701V208.162L268.622 205.1V215.482Z" fill="white"/>
<path fill-rule="evenodd" clip-rule="evenodd" d="M268.622 227.229L278.591 230.448V219.909L268.622 216.846V227.229Z" fill="white"/>
<path fill-rule="evenodd" clip-rule="evenodd" d="M268.622 238.976L278.591 242.194V231.656L268.622 228.593V238.976Z" fill="white"/>
<path fill-rule="evenodd" clip-rule="evenodd" d="M281.008 194.688C281.008 194.688 281.684 191.301 279.989 190.871L230.25 180.281C229.533 180.128 228.342 179.806 228.678 183.189C228.525 183.899 281.008 194.688 281.008 194.688Z" fill="#3973B0"/>
<path fill-rule="evenodd" clip-rule="evenodd" d="M277.345 192.426C277.345 192.938 277.763 193.353 278.28 193.353C278.796 193.353 279.214 192.938 279.214 192.426C279.214 191.914 278.796 191.499 278.28 191.499C277.763 191.499 277.345 191.914 277.345 192.426Z" fill="#F4F0F0"/>
<path fill-rule="evenodd" clip-rule="evenodd" d="M274.541 191.808C274.541 192.32 274.96 192.735 275.476 192.735C275.992 192.735 276.41 192.32 276.41 191.808C276.41 191.296 275.992 190.881 275.476 190.881C274.96 190.881 274.541 191.296 274.541 191.808Z" fill="#F4F0F0"/>
<path fill-rule="evenodd" clip-rule="evenodd" d="M272.049 191.19C272.049 191.702 272.467 192.117 272.983 192.117C273.5 192.117 273.918 191.702 273.918 191.19C273.918 190.678 273.5 190.262 272.983 190.262C272.467 190.262 272.049 190.678 272.049 191.19Z" fill="#F4F0F0"/>
<path fill-rule="evenodd" clip-rule="evenodd" d="M230.927 227.047L263.949 237.387V192.735L230.927 185.316V227.047Z" fill="white"/>
<mask id="mask0_68_1807" style="mask-type:luminance" maskUnits="userSpaceOnUse" x="230" y="185" width="34" height="53">
<path fill-rule="evenodd" clip-rule="evenodd" d="M230.927 227.047L263.949 237.387V192.735L230.927 185.316V227.047Z" fill="white"/>
</mask>
<g mask="url(#mask0_68_1807)">
<path fill-rule="evenodd" clip-rule="evenodd" d="M259.047 206.501C256.545 207.833 253.208 208.364 249.819 208.097C246.349 204.177 242.209 200.753 237.47 198.026C238.007 193.223 237.758 188.374 236.726 183.614C235.595 178.394 233.652 174.514 230.144 171.554C228.73 170.361 227.302 169.664 225.71 169.611C223.815 169.548 221.95 170.512 220.992 171.931C220.234 173.053 220.004 174.252 220.007 176.054C220.017 182.026 221.946 187.948 225.502 193.272C220.183 192.129 214.657 192.148 209.949 193.474C207.994 189.723 205.351 187.113 201.593 185.869C197.06 184.368 191.27 185.208 186.572 187.706C182.596 189.821 179.827 192.774 179.136 195.976C178.321 199.756 180.444 203.8 184.451 206.792C187.223 208.861 190.769 210.455 195.157 211.742C194.121 219.237 195.377 226.742 198.905 233.516C202.704 240.811 209.217 246.131 217.412 247.437C225.018 248.65 233.514 246.184 239.889 241.45C243.344 242.371 246.954 242.797 250.506 242.637C254.183 242.471 257.748 241.673 261.044 240.371C261.004 242.353 260.72 243.99 260.109 245.546C258.578 249.443 254.509 252.436 249.182 253.393C248.86 253.451 248.647 253.757 248.705 254.076C248.763 254.395 249.071 254.607 249.393 254.549C255.105 253.523 259.523 250.273 261.213 245.972C261.935 244.134 262.233 242.219 262.234 239.875C268.989 236.9 274.487 231.793 277.295 225.748C279.999 219.93 279.962 214.119 276.591 209.594C275.288 207.847 273.551 206.712 271.512 206.635C269.236 206.548 267.432 207.649 265.425 209.777C262.544 212.832 259.808 215.957 257.221 219.146C255.511 215.662 253.386 212.361 250.875 209.33C254.078 209.421 257.18 208.828 259.606 207.537C262.41 206.045 264.199 203.81 265.141 200.925C265.363 200.244 265.536 199.539 265.666 198.802C267.901 199.291 270.213 199.423 272.551 199.154C272.875 199.117 273.108 198.825 273.071 198.503C273.033 198.181 272.739 197.95 272.414 197.987C270.182 198.244 267.97 198.112 265.831 197.634C265.99 196.191 266.004 194.621 265.902 192.874C265.66 188.733 264.869 183.169 263.45 178.461C261.207 171.018 257.792 167.024 252.918 168.213C250.127 168.895 247.484 171.89 246.856 174.48C245.672 179.366 248.097 185.982 252.876 191.188C256.154 194.759 260.168 197.317 264.519 198.519C263.919 202.184 262.247 204.798 259.047 206.501ZM249.238 209.225C252.131 212.557 254.533 216.247 256.401 220.166C255.089 221.81 253.817 223.471 252.586 225.147C252.15 225.74 251.753 226.288 251.065 227.242C250.824 227.576 250.7 227.748 250.584 227.909C246.061 234.176 243.482 237.202 239.639 240.162C235.581 239.01 231.764 237.151 228.57 234.747C223.324 230.799 219.651 225.508 217.388 219.199C216.855 217.714 216.431 216.327 215.993 214.624C216.913 214.606 217.827 214.568 218.735 214.508C224.494 214.129 229.163 212.833 232.205 210.388C234.221 208.768 235.469 206.767 236.293 204.125C239.472 206.332 242.686 207.872 246.15 208.703C247.167 208.947 248.202 209.121 249.238 209.225ZM231.46 209.475C228.647 211.735 224.194 212.972 218.656 213.336C217.679 213.4 216.694 213.439 215.703 213.454C215.394 212.172 215.066 210.696 214.681 208.891C214.642 208.708 214.642 208.708 214.602 208.524C213.099 201.486 212.227 198.298 210.476 194.548C215.316 193.233 221.074 193.341 226.518 194.716C228.762 197.752 231.549 200.567 234.822 203.055C234.973 203.17 235.125 203.283 235.276 203.395C234.516 206.023 233.361 207.948 231.46 209.475ZM248.027 207.882C247.491 207.795 246.957 207.688 246.428 207.561C242.998 206.738 239.808 205.179 236.629 202.921C236.764 202.378 236.886 201.81 236.996 201.216C237.115 200.577 237.219 199.936 237.31 199.295C241.354 201.678 244.942 204.586 248.027 207.882ZM216.272 219.593C218.608 226.107 222.415 231.589 227.855 235.683C230.938 238.003 234.573 239.831 238.449 241.035C232.409 245.243 224.585 247.391 217.6 246.277C209.806 245.035 203.595 239.961 199.957 232.977C196.568 226.47 195.345 219.27 196.308 212.067C196.866 212.219 197.436 212.367 198.019 212.51C203.654 213.895 209.305 214.629 214.775 214.635C215.246 216.501 215.696 217.988 216.272 219.593ZM251.546 228.593C251.663 228.432 251.787 228.259 252.028 227.926C252.714 226.974 253.11 226.428 253.543 225.839C254.647 224.336 255.784 222.845 256.953 221.368C259.257 226.564 260.633 232.132 260.98 237.787C261.008 238.243 261.028 238.682 261.039 239.105C257.744 240.462 254.158 241.297 250.453 241.463C247.321 241.605 244.14 241.273 241.068 240.537C244.649 237.656 247.237 234.564 251.546 228.593ZM262.162 237.715C261.794 231.716 260.295 225.812 257.782 220.33C260.457 217.008 263.295 213.755 266.289 210.58C268.083 208.677 269.622 207.739 271.467 207.809C273.098 207.871 274.531 208.808 275.638 210.293C278.723 214.433 278.757 219.796 276.22 225.256C273.596 230.902 268.496 235.71 262.207 238.597C262.196 238.31 262.181 238.016 262.162 237.715ZM185.163 205.853C181.489 203.111 179.59 199.49 180.295 196.222C180.901 193.409 183.433 190.708 187.132 188.742C191.561 186.386 197.022 185.594 201.218 186.983C204.585 188.098 206.987 190.428 208.8 193.829C207.964 194.111 207.159 194.438 206.39 194.809C200.113 197.841 196.569 203.435 195.339 210.57C191.147 209.327 187.774 207.802 185.163 205.853ZM221.191 176.052C221.188 174.463 221.38 173.468 221.976 172.584C222.708 171.501 224.187 170.736 225.67 170.786C226.95 170.828 228.148 171.412 229.377 172.449C232.657 175.217 234.487 178.872 235.569 183.861C236.538 188.333 236.798 192.884 236.346 197.398C234.996 196.667 233.599 195.991 232.157 195.375C230.569 194.697 228.914 194.132 227.227 193.685C223.324 188.276 221.201 182.183 221.191 176.052ZM235.832 201.003C235.758 201.402 235.678 201.788 235.593 202.161C235.576 202.148 235.559 202.135 235.542 202.122C232.806 200.043 230.422 197.731 228.425 195.254C229.536 195.601 230.628 196.001 231.689 196.454C233.247 197.12 234.752 197.857 236.201 198.661C236.099 199.443 235.976 200.224 235.832 201.003ZM213.444 208.768C213.483 208.951 213.483 208.951 213.522 209.135C213.883 210.824 214.194 212.228 214.487 213.459C209.206 213.428 203.75 212.708 198.304 211.37C197.682 211.217 197.076 211.059 196.484 210.897C197.635 204.044 200.975 198.731 206.908 195.865C207.678 195.494 208.488 195.169 209.331 194.891C211.08 198.602 211.939 201.72 213.444 208.768ZM253.751 190.397C249.214 185.454 246.927 179.214 248.008 174.755C248.538 172.567 250.871 169.923 253.201 169.354C257.226 168.372 260.233 171.889 262.315 178.797C263.703 183.403 264.483 188.884 264.72 192.942C264.813 194.538 264.803 196.002 264.672 197.34C260.604 196.179 256.841 193.764 253.751 190.397Z" fill="#010101"/>
</g>
<path fill-rule="evenodd" clip-rule="evenodd" d="M305.588 372.51C313.011 370.104 328.481 368.566 335.923 393.346C335.923 393.346 357.008 393.25 368.948 394.883C382.884 396.788 383.241 403.092 388.966 406.1C402.393 413.155 412.247 413.932 412.294 415.472C412.439 420.251 392.448 414.457 390 413.646C390 413.646 393.752 423.948 388.658 447.366C388.476 448.203 387.704 448.784 386.845 448.726L384.373 448.558C383.464 448.496 382.758 447.745 382.758 446.838V433.782C382.758 433.122 382.202 432.599 381.54 432.635L381.501 432.637C380.917 432.67 380.45 433.131 380.413 433.711L379.567 446.96C379.509 447.868 378.752 448.574 377.838 448.574H375.935C375.005 448.574 374.241 447.844 374.204 446.919L373.383 426.14C373.383 426.14 344.242 433.072 332.458 432.694L330.713 448.899C330.623 449.732 329.945 450.38 329.106 450.436L328.21 450.495C327.37 450.551 326.611 449.998 326.411 449.184L322.931 435.01C322.799 434.472 322.298 434.104 321.742 434.136L321.569 434.147C320.987 434.181 320.521 434.642 320.485 435.221L319.627 448.885C319.574 449.725 318.919 450.403 318.079 450.492L316.326 450.675C315.421 450.77 314.597 450.153 314.438 449.262L306.485 404.714C306.485 404.714 288.622 391.142 297.274 378.582C299.268 375.687 302.233 373.597 305.588 372.51Z" fill="#9B7368"/>
<path fill-rule="evenodd" clip-rule="evenodd" d="M349.326 416.868C349.025 414.129 345.939 412.648 343.555 414.05C340.364 415.926 336.512 419.257 341.899 422.444C347.336 425.659 349.767 420.887 349.326 416.868Z" fill="#F7D3BB"/>
<path fill-rule="evenodd" clip-rule="evenodd" d="M314.381 377.894C314.094 379.156 313.193 380.028 312.369 379.843C311.544 379.657 311.109 378.483 311.397 377.221C311.684 375.959 312.586 375.086 313.41 375.272C314.234 375.457 314.669 376.632 314.381 377.894Z" fill="#010101"/>
<path fill-rule="evenodd" clip-rule="evenodd" d="M306.368 383.455C306.252 383.243 305.985 383.164 305.771 383.28C305.756 383.288 304.236 384.095 302.794 383.603C301.963 383.32 301.307 382.645 300.847 381.597L300.767 381.416L302.899 379.067C303.157 378.781 302.994 378.324 302.612 378.266L299.967 377.861C299.614 377.807 299.325 378.139 299.43 378.48L300.282 381.25L300.088 381.515C300.067 381.543 298.022 384.275 295.146 383.173C294.921 383.087 294.664 383.199 294.577 383.425C294.49 383.651 294.603 383.904 294.83 383.991C297.446 384.992 299.474 383.418 300.341 382.547C300.884 383.493 301.611 384.126 302.509 384.432C302.945 384.581 303.381 384.638 303.793 384.638C305.083 384.638 306.134 384.08 306.192 384.049C306.405 383.934 306.484 383.667 306.368 383.455Z" fill="#010101"/>
<path fill-rule="evenodd" clip-rule="evenodd" d="M321.41 400.754C324.987 405.589 330.175 388.892 331.771 383.321C329.485 379.286 326.892 376.507 324.206 374.643C322.92 378.568 317.636 395.652 321.41 400.754Z" fill="#6D4038"/>
<path fill-rule="evenodd" clip-rule="evenodd" d="M357.985 407.238C365.294 418.617 377.582 403.255 376.503 396.748C374.527 395.962 372.081 395.311 368.948 394.882C366.084 394.491 362.693 394.199 359.194 393.981C355.993 396.145 353.432 400.148 357.985 407.238Z" fill="#F7D3BB"/>
<path fill-rule="evenodd" clip-rule="evenodd" d="M295.743 390.725C293.505 393.294 288.108 400.482 291.279 406.966C294.264 413.07 297.813 402.758 299.363 397.38C297.904 395.411 296.564 393.15 295.743 390.725Z" fill="#6D4038"/>
<path d="M137.186 346.831H122.264V433.693H137.186V346.831Z" fill="#2F6858"/>
<path d="M84.3379 439.566C84.3379 434.274 88.6525 429.984 93.9749 429.984H165.475C170.798 429.984 175.112 434.274 175.112 439.566H84.3379Z" fill="#5BA092"/>
<path d="M85.2705 450.695C88.3609 450.695 90.8661 448.204 90.8661 445.131C90.8661 442.058 88.3609 439.566 85.2705 439.566C82.1801 439.566 79.6748 442.058 79.6748 445.131C79.6748 448.204 82.1801 450.695 85.2705 450.695Z" fill="#2F6858"/>
<path d="M129.725 450.695C132.815 450.695 135.321 448.204 135.321 445.131C135.321 442.058 132.815 439.566 129.725 439.566C126.635 439.566 124.129 442.058 124.129 445.131C124.129 448.204 126.635 450.695 129.725 450.695Z" fill="#2F6858"/>
<path d="M174.179 450.695C177.27 450.695 179.775 448.204 179.775 445.131C179.775 442.058 177.27 439.566 174.179 439.566C171.089 439.566 168.584 442.058 168.584 445.131C168.584 448.204 171.089 450.695 174.179 450.695Z" fill="#2F6858"/>
<path fill-rule="evenodd" clip-rule="evenodd" d="M61.9119 277.444C59.1245 267.585 66.576 257.805 76.8753 257.805H96.8454C104.635 257.805 111.221 263.538 112.252 271.215L120.224 330.566C121.469 339.832 114.219 348.068 104.817 348.068H86.8249C83.8999 348.068 81.3319 346.133 80.5402 343.333L61.9119 277.444Z" fill="#5BA092"/>
<path fill-rule="evenodd" clip-rule="evenodd" d="M174.168 350.541H88.3911C85.4657 350.541 83.0943 347.634 83.0943 344.049C83.0943 340.464 85.4657 337.558 88.3911 337.558H174.168C177.093 337.558 179.464 340.464 179.464 344.049C179.464 347.634 177.093 350.541 174.168 350.541Z" fill="#78BFB1"/>
<path fill-rule="evenodd" clip-rule="evenodd" d="M131.78 294.256L93.5329 291.128L90.6143 337.557H158.124C158.124 337.557 173.798 337.928 174.755 338.417C176.454 339.283 179.901 343.131 181.335 350.564C182.144 354.753 182.767 358.127 183.285 360.933C185.035 370.413 185.59 373.419 188.05 379.54C191.088 387.102 204.35 398.755 207.778 399.925C207.825 399.942 207.873 399.958 207.92 399.974C208.18 400.062 208.439 400.151 208.694 400.253C209.484 400.568 211.158 400.986 213.124 400.008C215.865 398.644 213.398 396.461 213.398 396.461C213.398 396.461 216.686 397.28 218.148 395.825C219.609 394.37 218.618 393.507 218.618 393.507C218.618 393.507 220.148 393.697 220.658 392.999C221.168 392.301 220.594 391.032 220.594 391.032C220.594 391.032 223.654 390.969 223.271 388.811C223.057 387.605 218.937 383.325 215.308 379.555C212.445 376.582 209.889 373.925 209.798 373.348C209.656 372.443 209.212 369.971 208.545 366.516C213.364 366.636 235.056 367.149 239.893 366.793C245.344 366.391 247.968 364.381 248.573 361.367C249.179 358.352 245.142 358.754 245.142 358.754L220.941 349.529C220.941 349.529 216.358 329.996 208.053 304.515C201.181 283.43 189.961 284.238 179.713 284.976L179.64 284.981C168.925 285.752 137.462 290.916 137.462 290.916L131.78 294.256Z" fill="#583318"/>
<path fill-rule="evenodd" clip-rule="evenodd" d="M213.645 391.165C214.178 388.965 214.541 386.792 214.655 384.774C214.747 383.166 214.676 381.717 214.425 380.466C214.323 379.96 214.653 379.468 215.161 379.366C215.669 379.265 216.163 379.594 216.265 380.1C216.55 381.521 216.628 383.125 216.528 384.879C216.406 387.023 216.026 389.303 215.469 391.603C215.23 392.593 214.973 393.52 214.716 394.36C214.626 394.655 214.542 394.918 214.466 395.146C214.42 395.285 214.386 395.382 214.368 395.436C214.135 396.097 213.282 396.276 212.8 395.767C210.988 393.849 208.795 392.432 206.298 391.457C202.494 389.971 198.457 389.634 194.942 389.948C194.706 389.969 194.499 389.991 194.323 390.014C194.22 390.027 194.153 390.036 194.123 390.041C193.611 390.122 193.131 389.774 193.049 389.265C192.968 388.755 193.317 388.276 193.828 388.195C194.008 388.166 194.329 388.126 194.774 388.086C198.554 387.749 202.866 388.109 206.982 389.716C209.237 390.596 211.276 391.811 213.047 393.396C213.252 392.704 213.454 391.955 213.645 391.165Z" fill="#E74B33"/>
<path fill-rule="evenodd" clip-rule="evenodd" d="M243.435 357.351C243.951 357.39 244.339 357.839 244.3 358.353C244.261 358.868 243.81 359.254 243.294 359.215C243.293 359.215 243.28 359.215 243.254 359.213C242.915 359.201 242.392 359.22 241.691 359.299C240.619 359.421 239.378 359.66 237.973 360.043C234.074 361.107 229.58 363.094 224.531 366.233C224.091 366.506 223.513 366.372 223.239 365.934C222.965 365.497 223.098 364.92 223.538 364.647C228.739 361.414 233.4 359.353 237.477 358.24C238.975 357.831 240.311 357.574 241.479 357.442C242.275 357.352 242.892 357.329 243.325 357.346C243.374 357.348 243.41 357.349 243.435 357.351Z" fill="#E74B33"/>
<path fill-rule="evenodd" clip-rule="evenodd" d="M208.686 400.226C208.386 400.106 208.08 400.005 207.774 399.901C204.364 398.735 191.172 387.134 188.151 379.606C187.619 378.283 187.223 377.252 186.911 376.336L186.754 376.488C184.897 378.285 184.702 381.167 186.304 383.188C190.117 387.993 197.085 396.413 202.263 400.602C204.101 402.088 206.731 402.139 208.621 400.718L208.938 400.318C208.847 400.287 208.761 400.256 208.686 400.226Z" fill="#F3705A"/>
<path fill-rule="evenodd" clip-rule="evenodd" d="M208.169 364.752C208.524 366.561 208.831 368.167 209.081 369.506H243.691C245.309 369.506 246.622 368.198 246.622 366.585V364.752H208.169Z" fill="#F3705A"/>
<path fill-rule="evenodd" clip-rule="evenodd" d="M135.168 287.566L135.781 290.924L167.058 284.849L156.57 337.558C156.57 337.558 89.8704 341.119 86.6795 336.944C71.3443 309.503 85.4068 283.997 85.4068 287.566H135.168Z" fill="#5BA092"/>
<mask id="mask1_68_1807" style="mask-type:luminance" maskUnits="userSpaceOnUse" x="79" y="284" width="89" height="55">
<path fill-rule="evenodd" clip-rule="evenodd" d="M135.168 287.566L135.781 290.924L167.058 284.849L156.57 337.558C156.57 337.558 89.8704 341.119 86.6795 336.944C71.3443 309.503 85.4068 283.997 85.4068 287.566H135.168Z" fill="white"/>
</mask>
<g mask="url(#mask1_68_1807)">
<path fill-rule="evenodd" clip-rule="evenodd" d="M96.3368 315.714C99.0148 317.142 102.588 317.711 106.216 317.426C109.932 313.22 114.365 309.547 119.439 306.622C118.864 301.47 119.13 296.268 120.235 291.162C121.447 285.562 123.527 281.4 127.283 278.225C128.797 276.945 130.326 276.198 132.031 276.141C134.06 276.073 136.057 277.107 137.082 278.629C137.893 279.833 138.14 281.119 138.137 283.052C138.126 289.458 136.061 295.811 132.253 301.522C137.949 300.296 143.865 300.317 148.906 301.739C150.999 297.715 153.829 294.916 157.853 293.581C162.706 291.971 168.906 292.872 173.936 295.552C178.193 297.82 181.158 300.988 181.897 304.424C182.77 308.478 180.498 312.816 176.207 316.025C173.239 318.245 169.443 319.955 164.743 321.336C165.853 329.376 164.508 337.427 160.73 344.693C156.663 352.518 149.689 358.225 140.915 359.627C132.772 360.928 123.675 358.282 116.849 353.205C113.15 354.193 109.285 354.649 105.481 354.478C101.544 354.3 97.7269 353.443 94.1978 352.047C94.2413 354.172 94.5444 355.929 95.1987 357.597C96.8382 361.779 101.195 364.989 106.899 366.016C107.243 366.078 107.472 366.406 107.409 366.748C107.347 367.091 107.017 367.318 106.673 367.256C100.557 366.155 95.8266 362.669 94.0175 358.055C93.2441 356.083 92.9248 354.029 92.9242 351.514C85.6909 348.323 79.8048 342.844 76.7976 336.36C73.9029 330.119 73.9421 323.885 77.5521 319.032C78.9463 317.158 80.8061 315.94 82.9899 315.857C85.427 315.764 87.3586 316.945 89.5076 319.228C92.5916 322.504 95.5217 325.857 98.2914 329.279C100.122 325.541 102.398 322 105.086 318.748C101.657 318.845 98.3349 318.21 95.7371 316.824C92.7355 315.224 90.8203 312.827 89.8119 309.731C89.5741 309.002 89.3882 308.245 89.2496 307.455C86.8566 307.979 84.3806 308.121 81.8776 307.832C81.5301 307.792 81.2808 307.48 81.3209 307.134C81.3613 306.788 81.6759 306.54 82.0237 306.581C84.4142 306.856 86.782 306.714 89.0721 306.202C88.9017 304.654 88.8874 302.97 88.9965 301.095C89.2555 296.653 90.1026 290.685 91.622 285.634C94.0237 277.65 97.6803 273.365 102.898 274.641C105.887 275.372 108.717 278.585 109.389 281.364C110.656 286.605 108.06 293.702 102.944 299.287C99.4341 303.118 95.1356 305.861 90.4771 307.151C91.1194 311.082 92.9096 313.887 96.3368 315.714ZM106.839 318.636C103.742 322.211 101.169 326.168 99.1699 330.372C100.574 332.136 101.936 333.917 103.254 335.716C103.721 336.351 104.146 336.94 104.883 337.963C105.141 338.321 105.274 338.506 105.398 338.679C110.241 345.401 113.002 348.647 117.117 351.823C121.462 350.586 125.548 348.593 128.968 346.014C134.585 341.779 138.519 336.102 140.941 329.335C141.511 327.742 141.966 326.255 142.434 324.427C141.449 324.408 140.471 324.367 139.499 324.303C133.332 323.897 128.334 322.505 125.076 319.883C122.918 318.146 121.581 315.999 120.699 313.164C117.295 315.532 113.854 317.185 110.145 318.076C109.057 318.338 107.948 318.524 106.839 318.636ZM125.874 318.904C128.885 321.328 133.653 322.655 139.583 323.046C140.629 323.115 141.683 323.156 142.745 323.172C143.076 321.796 143.427 320.213 143.84 318.278C143.881 318.081 143.882 318.081 143.923 317.884C145.533 310.333 146.467 306.914 148.342 302.891C143.16 301.48 136.994 301.597 131.165 303.072C128.763 306.328 125.779 309.348 122.274 312.016C122.112 312.14 121.95 312.262 121.788 312.382C122.602 315.201 123.839 317.266 125.874 318.904ZM108.135 317.195C108.709 317.102 109.281 316.987 109.847 316.851C113.52 315.968 116.935 314.296 120.339 311.873C120.194 311.291 120.064 310.682 119.946 310.044C119.819 309.358 119.707 308.671 119.611 307.983C115.281 310.54 111.439 313.659 108.135 317.195ZM142.136 329.757C139.634 336.746 135.559 342.626 129.734 347.018C126.433 349.507 122.54 351.468 118.39 352.759C124.858 357.273 133.235 359.577 140.714 358.383C149.059 357.05 155.71 351.607 159.604 344.115C163.233 337.135 164.542 329.41 163.511 321.685C162.915 321.848 162.304 322.006 161.68 322.16C155.646 323.646 149.596 324.432 143.739 324.439C143.235 326.44 142.752 328.036 142.136 329.757ZM104.367 339.412C104.242 339.24 104.109 339.054 103.852 338.696C103.117 337.676 102.693 337.09 102.23 336.458C101.047 334.846 99.8298 333.247 98.578 331.662C96.1114 337.235 94.6379 343.208 94.2661 349.274C94.236 349.764 94.2149 350.235 94.203 350.689C97.7313 352.144 101.572 353.04 105.538 353.218C108.892 353.37 112.298 353.014 115.586 352.224C111.752 349.134 108.981 345.818 104.367 339.412ZM93.0007 349.198C93.3951 342.762 94.9995 336.429 97.6902 330.548C94.8269 326.985 91.7883 323.496 88.5815 320.089C86.6608 318.048 85.0132 317.041 83.038 317.116C81.2923 317.183 79.757 318.188 78.5717 319.781C75.2685 324.222 75.2325 329.975 77.949 335.832C80.7579 341.889 86.2187 347.047 92.9525 350.144C92.9646 349.835 92.9808 349.521 93.0007 349.198ZM175.445 315.018C179.378 312.077 181.412 308.193 180.658 304.687C180.008 301.67 177.296 298.772 173.337 296.663C168.594 294.136 162.747 293.286 158.254 294.776C154.65 295.972 152.078 298.472 150.137 302.12C151.031 302.423 151.894 302.773 152.717 303.171C159.438 306.424 163.232 312.425 164.549 320.078C169.037 318.746 172.649 317.109 175.445 315.018ZM136.869 283.05C136.872 281.346 136.667 280.278 136.029 279.33C135.245 278.168 133.661 277.348 132.073 277.401C130.702 277.446 129.42 278.073 128.104 279.185C124.593 282.154 122.633 286.075 121.475 291.427C120.437 296.224 120.159 301.106 120.643 305.948C122.088 305.164 123.584 304.439 125.128 303.779C126.828 303.051 128.6 302.445 130.406 301.966C134.585 296.164 136.858 289.627 136.869 283.05ZM121.193 309.816C121.272 310.244 121.357 310.658 121.448 311.058C121.467 311.044 121.485 311.03 121.503 311.016C124.433 308.785 126.985 306.306 129.124 303.648C127.934 304.02 126.765 304.45 125.629 304.936C123.96 305.65 122.349 306.441 120.798 307.303C120.907 308.142 121.038 308.98 121.193 309.816ZM145.164 318.145C145.122 318.342 145.122 318.342 145.08 318.539C144.694 320.351 144.361 321.857 144.047 323.177C149.702 323.144 155.544 322.372 161.375 320.936C162.04 320.772 162.69 320.603 163.323 320.429C162.091 313.078 158.515 307.379 152.162 304.305C151.338 303.905 150.47 303.557 149.568 303.259C147.695 307.24 146.776 310.584 145.164 318.145ZM102.006 298.438C106.864 293.136 109.313 286.442 108.156 281.658C107.588 279.312 105.091 276.475 102.596 275.865C98.2858 274.811 95.066 278.584 92.8368 285.995C91.3506 290.935 90.516 296.815 90.2623 301.168C90.1625 302.88 90.1728 304.451 90.3136 305.886C94.6687 304.641 98.698 302.05 102.006 298.438Z" fill="#2F6858"/>
</g>
<path fill-rule="evenodd" clip-rule="evenodd" d="M137.624 290.758C137.532 290.6 137.329 290.545 137.17 290.636L131.942 293.641C131.783 293.733 131.728 293.935 131.82 294.094C131.911 294.252 132.114 294.307 132.273 294.216L137.502 291.211C137.661 291.12 137.715 290.917 137.624 290.758ZM208.687 366.591C208.722 366.771 208.604 366.944 208.424 366.979C208.243 367.014 208.069 366.896 208.035 366.716C203.814 344.802 198.895 324.465 195.087 316.749C189.013 304.44 181.235 301.194 164.616 303.711C164.434 303.738 164.265 303.614 164.237 303.433C164.21 303.252 164.334 303.083 164.516 303.055C181.402 300.498 189.47 303.865 195.684 316.456C199.529 324.25 204.453 344.603 208.687 366.591ZM220.712 391.07C220.763 391.246 220.661 391.43 220.485 391.481C220.309 391.531 220.124 391.43 220.073 391.254C220.07 391.243 220.064 391.224 220.057 391.199C220.05 391.18 220.043 391.158 220.034 391.132C220.001 391.029 219.96 390.915 219.912 390.792C219.776 390.44 219.613 390.088 219.424 389.762C219.034 389.088 218.588 388.621 218.112 388.442C217.94 388.378 217.853 388.187 217.917 388.015C217.982 387.844 218.173 387.757 218.345 387.821C218.995 388.065 219.539 388.636 219.999 389.43C220.207 389.789 220.384 390.171 220.532 390.553C220.584 390.687 220.629 390.811 220.666 390.923C220.676 390.956 220.685 390.984 220.693 391.007C220.701 391.034 220.707 391.055 220.712 391.07ZM218.491 393.964C218.67 393.924 218.783 393.746 218.743 393.568C218.736 393.538 218.723 393.484 218.704 393.411C218.673 393.292 218.635 393.159 218.59 393.015C218.462 392.606 218.306 392.196 218.119 391.811C217.751 391.057 217.31 390.487 216.772 390.18C216.613 390.089 216.41 390.145 216.319 390.304C216.228 390.463 216.283 390.665 216.443 390.756C216.841 390.983 217.206 391.455 217.521 392.101C217.692 392.453 217.837 392.832 217.955 393.212C217.997 393.345 218.032 393.469 218.061 393.579C218.078 393.644 218.089 393.69 218.094 393.713C218.134 393.891 218.312 394.004 218.491 393.964ZM175.414 338.197C175.379 338.377 175.205 338.495 175.024 338.46C174.844 338.425 174.726 338.251 174.761 338.072L175.395 334.801C175.43 334.621 175.605 334.504 175.784 334.539C175.965 334.573 176.083 334.747 176.048 334.927L175.414 338.197Z" fill="#9B7368"/>
<path fill-rule="evenodd" clip-rule="evenodd" d="M106.819 187.243C97.0451 187.243 89.1221 194.279 89.1221 202.957C89.1221 204.734 89.4591 206.44 90.0712 208.032C90.0111 208.03 89.9519 208.025 89.8912 208.025C87.3157 208.025 85.2277 209.739 85.2277 211.853C85.2277 213.968 87.3157 215.682 89.8912 215.682C91.3148 215.682 92.5879 215.158 93.4425 214.331C93.7513 214.033 94.2286 214.001 94.5551 214.28C96.9463 216.323 99.9809 217.777 103.365 218.372C103.8 218.448 104.107 218.839 104.081 219.279L103.598 227.82H111.788L111.409 221.091C111.316 219.488 112.257 217.986 113.762 217.415C120.085 215.019 124.515 209.447 124.515 202.957C124.515 194.279 116.593 187.243 106.819 187.243Z" fill="#583318"/>
<path fill-rule="evenodd" clip-rule="evenodd" d="M116.031 192.392C115.279 199.151 90.1145 208.017 90.0715 208.032C90.0479 208.032 90.0245 208.03 90.0011 208.029C89.9648 208.027 89.9284 208.025 89.8915 208.025C87.316 208.025 85.228 209.739 85.228 211.853C85.228 213.968 87.316 215.682 89.8915 215.682C91.3151 215.682 92.5882 215.158 93.4428 214.331C93.7516 214.033 94.2289 214.002 94.5554 214.28C96.9467 216.323 99.9812 217.777 103.365 218.372C103.8 218.448 104.107 218.839 104.082 219.279L103.755 224.952L70.1746 225.594C70.1746 225.594 67.6489 215.018 73.8271 213.994C77.4028 213.402 77.3635 210.453 77.319 207.121C77.305 206.07 77.2905 204.982 77.3886 203.917C77.8452 198.965 80.57 194.524 80.57 194.524L80.6664 194.507C90.5217 178.71 112.516 184.248 112.516 184.248C116.882 185.507 119.841 187.506 121.826 189.78C126.753 194.549 126.902 202.548 126.927 203.924C126.929 204.034 126.931 204.102 126.933 204.122C127.15 205.633 126.916 207.647 126.682 209.656C126.278 213.135 125.875 216.599 127.817 217.41C134.593 220.236 135.268 224.349 135.268 224.349L111.622 224.801L111.409 221.091C111.316 219.488 112.257 217.986 113.762 217.415C119.569 215.214 123.781 210.335 124.429 204.525C119.23 199.916 116.031 192.392 116.031 192.392Z" fill="#94C0E9"/>
<path fill-rule="evenodd" clip-rule="evenodd" d="M95.5031 206.984C95.5031 211.559 92.0723 215.267 87.8403 215.267C83.6082 215.267 80.1774 211.559 80.1774 206.984C80.1774 202.409 83.6082 198.7 87.8403 198.7C92.0723 198.7 95.5031 202.409 95.5031 206.984Z" fill="#5BA092"/>
<path fill-rule="evenodd" clip-rule="evenodd" d="M91.8425 206.984C91.8425 211.376 89.2313 214.936 86.01 214.936C82.7886 214.936 80.1774 211.376 80.1774 206.984C80.1774 202.592 82.7886 199.032 86.01 199.032C89.2313 199.032 91.8425 202.592 91.8425 206.984Z" fill="#2F6858"/>
<path fill-rule="evenodd" clip-rule="evenodd" d="M128.501 202.142C128.501 202.142 129.012 188.714 114.876 184.805C90.5377 178.075 85.2429 199.082 85.2429 199.082L89.5004 198.912C89.5004 198.912 95.271 184.8 114.791 187.525C126.968 189.225 127.479 201.972 127.479 201.972L128.501 202.142Z" fill="#2F6858"/>
<path fill-rule="evenodd" clip-rule="evenodd" d="M126.748 201.544L126.117 213.614C126.117 213.614 131.436 214.541 132.248 209.704C133.682 201.163 126.748 201.544 126.748 201.544Z" fill="#2F6858"/>
<path fill-rule="evenodd" clip-rule="evenodd" d="M129.171 201.958C128.095 201.629 126.748 201.544 126.748 201.544L126.117 213.614C126.117 213.614 127.348 213.827 128.715 213.511L129.171 201.958Z" fill="#5BA092"/>
<path fill-rule="evenodd" clip-rule="evenodd" d="M105.134 208.558C105.134 205.541 102.627 203.091 99.5282 203.091C96.4292 203.091 93.9221 205.541 93.9221 208.558C93.9221 211.574 96.4292 214.025 99.5282 214.025C102.627 214.025 105.134 211.574 105.134 208.558ZM105.848 210.171C105.118 212.923 102.563 214.952 99.5282 214.952C95.9248 214.952 92.9988 212.092 92.9988 208.558C92.9988 205.023 95.9248 202.163 99.5282 202.163C103.132 202.163 106.058 205.023 106.058 208.558C106.058 208.789 106.045 209.018 106.021 209.243L108.183 209.238C108.173 209.085 108.168 208.931 108.168 208.775C108.168 205.251 110.842 202.381 114.155 202.381C117.469 202.381 120.142 205.25 120.142 208.775C120.142 212.3 117.469 215.17 114.155 215.17C111.29 215.17 108.903 213.024 108.31 210.165L105.848 210.171ZM119.219 208.775C119.219 205.749 116.945 203.308 114.155 203.308C111.366 203.308 109.091 205.749 109.091 208.775C109.091 211.801 111.366 214.242 114.155 214.242C116.945 214.242 119.219 211.801 119.219 208.775Z" fill="#F3705A"/>
<path fill-rule="evenodd" clip-rule="evenodd" d="M102.723 214.997C102.635 214.756 102.758 214.49 102.997 214.402C103.236 214.314 103.502 214.437 103.589 214.677C103.606 214.722 103.644 214.812 103.703 214.931C103.804 215.132 103.926 215.334 104.069 215.52C104.759 216.418 105.597 216.627 106.787 215.767C106.994 215.617 107.282 215.664 107.431 215.872C107.58 216.08 107.533 216.37 107.326 216.519C105.696 217.699 104.31 217.352 103.338 216.086C103.026 215.681 102.826 215.279 102.723 214.997Z" fill="#010101"/>
<path fill-rule="evenodd" clip-rule="evenodd" d="M98.6526 210.504C98.6526 209.781 99.0659 209.195 99.576 209.195C100.086 209.195 100.499 209.781 100.499 210.504C100.499 211.227 100.086 211.813 99.576 211.813C99.0659 211.813 98.6526 211.227 98.6526 210.504Z" fill="#010101"/>
<path fill-rule="evenodd" clip-rule="evenodd" d="M112.745 210.504C112.745 209.781 113.159 209.195 113.669 209.195C114.178 209.195 114.592 209.781 114.592 210.504C114.592 211.227 114.178 211.813 113.669 211.813C113.159 211.813 112.745 211.227 112.745 210.504Z" fill="#010101"/>
<path fill-rule="evenodd" clip-rule="evenodd" d="M114.891 227.29C114.891 227.29 108.596 234.039 99.1311 227.405C99.1311 227.405 107.937 226.714 114.891 227.29ZM82.0797 232.416C71.2747 237.663 63.8263 246.042 60.7212 288.887C60.7212 288.887 58.9741 307.024 68.0082 327.367C71.8439 336.005 72.7823 337.863 72.7823 337.863C72.7823 337.863 63.7396 353.111 65.4608 354.663C67.7036 356.685 70.8149 354.042 70.8149 354.042C70.8149 354.042 70.8149 355.783 72.4354 356.234C74.0559 356.685 75.8548 355.294 75.8548 355.294C75.8548 355.294 76.728 358.214 79.7778 357.003C81.5133 356.313 82.3119 355.433 82.3119 355.433C82.3119 355.433 82.1546 356.588 82.8106 357.457C83.0595 357.788 84.0533 358.501 85.137 358.201C86.58 357.8 88.5172 356.277 90.8701 353.409C94.818 348.596 97.0608 340.615 94.2379 333.675C91.415 326.736 83.7941 299.181 83.7941 299.181C83.7941 299.181 88.5807 269.3 89.7579 256.423L82.0797 232.416ZM151.394 255.154C151.394 255.154 152.573 253.803 165.094 299.898C166.299 304.335 168.167 312.584 155.456 312.954C150.607 313.095 145.896 311.33 142.246 308.154C136.599 303.24 126.577 293.415 118.528 279.606C118.528 279.606 110.268 280.314 106.778 279.157C106.778 279.157 104.224 278.464 104.262 274.951C104.262 274.951 101.089 274.143 101.477 270.415C101.477 270.415 101.477 269.579 102.124 269.065C102.124 269.065 99.5448 267.68 99.912 264.839C100.167 262.864 101.154 262.38 101.154 262.38C101.154 262.38 97.7279 259.037 99.732 255.309C101.736 251.581 103.998 253.316 103.998 253.316L104.709 257.816C104.709 257.816 111.367 260.13 117.509 259.873C123.65 259.616 125.976 257.944 125.976 257.944L126.752 250.038C126.752 250.038 129.467 251.066 130.049 254.152C130.631 257.237 130.303 260.808 130.303 260.808L151.394 255.154Z" fill="#583318"/>
<path fill-rule="evenodd" clip-rule="evenodd" d="M99.1805 227.44C108.618 234.015 114.891 227.29 114.891 227.29C114.877 227.289 114.863 227.288 114.85 227.287C115.735 227.347 116.562 227.424 117.308 227.518C132.607 229.447 145.573 239.404 151.673 255.178C152.375 256.994 130.484 263.372 130.303 260.808C130.277 260.434 130.297 259.955 130.322 259.382C130.377 258.081 130.453 256.294 130.049 254.152C129.467 251.066 126.752 250.038 126.752 250.038L125.976 257.944C125.976 257.944 123.649 259.616 117.508 259.873C111.367 260.13 104.709 257.816 104.709 257.816L103.998 253.316C103.998 253.316 101.736 251.581 99.7319 255.309C97.7279 259.037 101.154 262.38 101.154 262.38C101.154 262.38 100.167 262.864 99.9119 264.84C99.5448 267.68 102.124 269.065 102.124 269.065C101.477 269.579 101.477 270.415 101.477 270.415C101.089 274.143 104.262 274.951 104.262 274.951C104.223 278.464 106.778 279.157 106.778 279.157C110.268 280.314 118.528 279.606 118.528 279.606C119.329 280.981 122.348 285.314 124.55 288.473C125.544 289.898 126.371 291.085 126.752 291.653C119.1 292.586 102.486 292.784 87.5029 288.87C87.3276 288.824 86.9315 288.742 86.5246 288.658C86.0767 288.566 85.6154 288.47 85.4205 288.417L87.8097 262.602C87.8097 262.602 73.3767 264.327 65.7756 254.348C69.6794 240.373 76.0535 234.875 80.6613 232.416C87.1392 229.413 87.5029 229.308 93.7803 228.063C94.9989 227.821 96.914 227.605 99.1805 227.44Z" fill="#F3705A"/>
<mask id="mask2_68_1807" style="mask-type:luminance" maskUnits="userSpaceOnUse" x="65" y="227" width="87" height="66">
<path fill-rule="evenodd" clip-rule="evenodd" d="M99.1805 227.44C108.618 234.015 114.891 227.29 114.891 227.29C114.877 227.289 114.863 227.288 114.85 227.287C115.735 227.347 116.562 227.424 117.308 227.518C132.607 229.447 145.573 239.404 151.673 255.178C152.375 256.994 130.484 263.372 130.303 260.808C130.277 260.434 130.297 259.955 130.322 259.382C130.377 258.081 130.453 256.294 130.049 254.152C129.467 251.066 126.752 250.038 126.752 250.038L125.976 257.944C125.976 257.944 123.649 259.616 117.508 259.873C111.367 260.13 104.709 257.816 104.709 257.816L103.998 253.316C103.998 253.316 101.736 251.581 99.7319 255.309C97.7279 259.037 101.154 262.38 101.154 262.38C101.154 262.38 100.167 262.864 99.9119 264.84C99.5448 267.68 102.124 269.065 102.124 269.065C101.477 269.579 101.477 270.415 101.477 270.415C101.089 274.143 104.262 274.951 104.262 274.951C104.223 278.464 106.778 279.157 106.778 279.157C110.268 280.314 118.528 279.606 118.528 279.606C119.329 280.981 122.348 285.314 124.55 288.473C125.544 289.898 126.371 291.085 126.752 291.653C119.1 292.586 102.486 292.784 87.5029 288.87C87.3276 288.824 86.9315 288.742 86.5246 288.658C86.0767 288.566 85.6154 288.47 85.4205 288.417L87.8097 262.602C87.8097 262.602 73.3767 264.327 65.7756 254.348C69.6794 240.373 76.0535 234.875 80.6613 232.416C87.1392 229.413 87.5029 229.308 93.7803 228.063C94.9989 227.821 96.914 227.605 99.1805 227.44Z" fill="white"/>
</mask>
<g mask="url(#mask2_68_1807)">
<path fill-rule="evenodd" clip-rule="evenodd" d="M106.794 227.995C106.846 228.418 106.579 229.094 106.154 229.146C105.728 229.198 105.305 228.607 105.252 228.183C105.2 227.76 105.489 227.258 105.914 227.206C106.34 227.154 106.742 227.572 106.794 227.995ZM115.781 230.073C116.206 230.021 116.473 229.345 116.421 228.922C116.369 228.498 115.967 228.081 115.541 228.133C115.116 228.185 114.828 228.686 114.88 229.11C114.932 229.533 115.355 230.125 115.781 230.073ZM142.557 232.438C142.9 232.438 143.178 231.832 143.178 231.428C143.178 231.024 142.9 230.584 142.557 230.584C142.214 230.584 141.936 231.024 141.936 231.428C141.936 231.832 142.214 232.438 142.557 232.438ZM76.5992 234.777C76.9421 234.777 77.2203 234.171 77.2203 233.767C77.2203 233.362 76.9421 232.923 76.5992 232.923C76.2564 232.923 75.9781 233.362 75.9781 233.767C75.9781 234.171 76.2564 234.777 76.5992 234.777ZM139.296 238.974C139.639 238.974 139.917 238.37 139.917 237.965C139.917 237.561 139.639 237.121 139.296 237.121C138.953 237.121 138.675 237.561 138.675 237.965C138.675 238.37 138.953 238.974 139.296 238.974ZM132.153 239.115C132.582 239.115 132.93 239.579 132.93 240.005C132.93 240.432 132.582 241.07 132.153 241.07C131.724 241.07 131.377 240.432 131.377 240.005C131.377 239.579 131.724 239.115 132.153 239.115ZM88.8308 263.479C88.8308 263.906 88.4832 264.544 88.0543 264.544C87.6253 264.544 87.2777 263.906 87.2777 263.479C87.2777 263.053 87.6253 262.59 88.0543 262.59C88.4832 262.59 88.8308 263.053 88.8308 263.479ZM110.414 288.636C110.843 288.636 111.191 287.998 111.191 287.571C111.191 287.145 110.843 286.682 110.414 286.682C109.985 286.682 109.638 287.145 109.638 287.571C109.638 287.998 109.985 288.636 110.414 288.636ZM122.136 264.235C121.707 264.235 121.36 263.597 121.36 263.17C121.36 262.744 121.707 262.281 122.136 262.281C122.565 262.281 122.912 262.744 122.912 263.17C122.912 263.597 122.565 264.235 122.136 264.235ZM78.0369 287.709C78.4659 287.709 78.8135 287.071 78.8135 286.645C78.8135 286.218 78.4659 285.755 78.0369 285.755C77.6086 285.755 77.2607 286.218 77.2607 286.645C77.2607 287.071 77.6086 287.709 78.0369 287.709ZM144.496 286.373C144.925 286.373 145.272 286.836 145.272 287.262C145.272 287.689 144.925 288.327 144.496 288.327C144.067 288.327 143.719 287.689 143.719 287.262C143.719 286.836 144.067 286.373 144.496 286.373ZM98.3871 241.613C98.8161 241.613 99.1636 240.974 99.1636 240.548C99.1636 240.121 98.8161 239.658 98.3871 239.658C97.9584 239.658 97.6109 240.121 97.6109 240.548C97.6109 240.974 97.9584 241.613 98.3871 241.613ZM81.3827 242.401C81.3827 242.828 81.0348 243.466 80.6062 243.466C80.1775 243.466 79.83 242.828 79.83 242.401C79.83 241.974 80.1775 241.511 80.6062 241.511C81.0348 241.511 81.3827 241.974 81.3827 242.401ZM95.8182 261.439C95.8182 261.844 95.54 262.449 95.1971 262.449C94.8542 262.449 94.576 261.844 94.576 261.439C94.576 261.035 94.8542 260.595 95.1971 260.595C95.54 260.595 95.8182 261.035 95.8182 261.439ZM118.178 285.531C118.178 285.935 117.9 286.541 117.557 286.541C117.214 286.541 116.936 285.935 116.936 285.531C116.936 285.127 117.214 284.688 117.557 284.688C117.9 284.688 118.178 285.127 118.178 285.531ZM129.279 262.14C129.622 262.14 129.9 261.535 129.9 261.13C129.9 260.726 129.622 260.287 129.279 260.287C128.936 260.287 128.658 260.726 128.658 261.13C128.658 261.535 128.936 262.14 129.279 262.14ZM85.8009 284.604C85.8009 285.009 85.523 285.614 85.1798 285.614C84.8369 285.614 84.5587 285.009 84.5587 284.604C84.5587 284.2 84.8369 283.761 85.1798 283.761C85.523 283.761 85.8009 284.2 85.8009 284.604ZM151.639 284.379C151.296 284.379 151.018 284.818 151.018 285.222C151.018 285.627 151.296 286.232 151.639 286.232C151.982 286.232 152.26 285.627 152.26 285.222C152.26 284.818 151.982 284.379 151.639 284.379ZM106.151 238.508C106.151 238.912 105.873 239.518 105.53 239.518C105.187 239.518 104.909 238.912 104.909 238.508C104.909 238.104 105.187 237.664 105.53 237.664C105.873 237.664 106.151 238.104 106.151 238.508ZM99.0791 254.902C99.0791 255.306 98.8009 255.912 98.458 255.912C98.1151 255.912 97.8369 255.306 97.8369 254.902C97.8369 254.498 98.1151 254.059 98.458 254.059C98.8009 254.059 99.0791 254.498 99.0791 254.902ZM120.197 278.994C120.197 279.399 120.475 280.004 120.818 280.004C121.161 280.004 121.439 279.399 121.439 278.994C121.439 278.59 121.161 278.151 120.818 278.151C120.475 278.151 120.197 278.59 120.197 278.994ZM131.918 254.593C131.918 254.189 132.197 253.75 132.54 253.75C132.883 253.75 133.161 254.189 133.161 254.593C133.161 254.998 132.883 255.603 132.54 255.603C132.197 255.603 131.918 254.998 131.918 254.593ZM88.4407 279.077C88.7838 279.077 89.0617 278.472 89.0617 278.067C89.0617 277.663 88.7838 277.224 88.4407 277.224C88.0978 277.224 87.8196 277.663 87.8196 278.067C87.8196 278.472 88.0978 279.077 88.4407 279.077ZM74.8833 283.068C74.8833 283.473 74.6051 284.078 74.2622 284.078C73.9194 284.078 73.6408 283.473 73.6408 283.068C73.6408 282.664 73.9194 282.225 74.2622 282.225C74.6051 282.225 74.8833 282.664 74.8833 283.068ZM71.1344 264.402C71.1344 264.807 71.4123 265.412 71.7555 265.412C72.0984 265.412 72.3766 264.807 72.3766 264.402C72.3766 263.998 72.0984 263.559 71.7555 263.559C71.4123 263.559 71.1344 263.998 71.1344 264.402ZM109.412 231.971C109.412 232.375 109.134 232.981 108.791 232.981C108.448 232.981 108.17 232.375 108.17 231.971C108.17 231.566 108.448 231.128 108.791 231.128C109.134 231.128 109.412 231.566 109.412 231.971ZM143.048 247.306C143.451 247.16 143.558 246.442 143.411 246.041C143.265 245.64 142.779 245.323 142.376 245.469C141.973 245.615 141.806 246.169 141.953 246.57C142.099 246.97 142.645 247.452 143.048 247.306ZM98.9491 270.78C98.5463 270.926 98.0001 270.444 97.8534 270.044C97.707 269.643 97.8739 269.089 98.2771 268.944C98.6802 268.798 99.1658 269.114 99.3125 269.515C99.4592 269.916 99.3523 270.634 98.9491 270.78ZM120.637 293.036C120.234 293.181 120.067 293.735 120.214 294.136C120.36 294.536 120.906 295.018 121.309 294.872C121.712 294.726 121.819 294.008 121.672 293.607C121.526 293.207 121.04 292.889 120.637 293.036ZM133.394 269.206C133.541 269.607 133.434 270.325 133.031 270.471C132.628 270.617 132.082 270.135 131.935 269.735C131.789 269.334 131.956 268.78 132.359 268.635C132.762 268.489 133.248 268.806 133.394 269.206ZM87.8364 293.209C87.9831 293.61 88.5293 294.091 88.9321 293.946C89.335 293.799 89.4419 293.081 89.2952 292.681C89.1488 292.28 88.6626 291.963 88.26 292.109C87.8569 292.254 87.6896 292.808 87.8364 293.209ZM109.645 246.584C109.792 246.985 109.685 247.703 109.282 247.849C108.879 247.995 108.333 247.513 108.187 247.112C108.04 246.711 108.207 246.158 108.61 246.012C109.013 245.866 109.499 246.183 109.645 246.584ZM147.81 249.997C147.862 250.421 148.285 251.012 148.711 250.96C149.137 250.908 149.403 250.233 149.351 249.809C149.299 249.386 148.897 248.968 148.472 249.02C148.046 249.072 147.758 249.574 147.81 249.997ZM104.612 274.434C104.186 274.487 103.763 273.895 103.711 273.472C103.659 273.048 103.947 272.547 104.373 272.494C104.798 272.442 105.2 272.86 105.252 273.284C105.305 273.707 105.038 274.382 104.612 274.434ZM137.793 273.163C137.845 273.586 138.268 274.178 138.694 274.126C139.119 274.074 139.386 273.398 139.334 272.975C139.282 272.552 138.88 272.134 138.454 272.186C138.029 272.238 137.74 272.739 137.793 273.163ZM114.705 249.563C115.131 249.511 115.533 249.929 115.585 250.352C115.637 250.775 115.371 251.451 114.945 251.503C114.52 251.555 114.096 250.963 114.044 250.54C113.992 250.117 114.28 249.615 114.705 249.563ZM139.53 252.695C139.955 252.643 140.222 251.968 140.17 251.544C140.118 251.121 139.716 250.703 139.29 250.755C138.865 250.807 138.576 251.309 138.629 251.732C138.681 252.156 139.104 252.747 139.53 252.695ZM95.1912 274.229C95.6168 274.178 96.0187 274.595 96.0709 275.018C96.1231 275.442 95.8564 276.118 95.4306 276.169C95.005 276.221 94.5819 275.63 94.5297 275.206C94.4775 274.783 94.7656 274.281 95.1912 274.229ZM130.152 274.71C130.205 275.133 129.938 275.809 129.512 275.861C129.087 275.913 128.664 275.321 128.612 274.897C128.559 274.474 128.847 273.973 129.273 273.921C129.699 273.869 130.1 274.286 130.152 274.71ZM105.764 253.238C106.19 253.186 106.456 252.51 106.404 252.087C106.352 251.664 105.95 251.246 105.524 251.298C105.098 251.35 104.81 251.852 104.863 252.275C104.915 252.698 105.338 253.29 105.764 253.238ZM130.543 250.617C130.595 251.041 130.328 251.717 129.902 251.769C129.477 251.821 129.054 251.229 129.001 250.806C128.949 250.383 129.237 249.88 129.663 249.829C130.088 249.777 130.49 250.194 130.543 250.617ZM85.8034 275.243C86.2292 275.191 86.4956 274.515 86.4434 274.092C86.3915 273.668 85.9896 273.251 85.564 273.303C85.1381 273.355 84.85 273.857 84.9025 274.28C84.9547 274.703 85.3778 275.295 85.8034 275.243ZM69.7586 260.426C69.8105 260.85 69.5438 261.526 69.1182 261.578C68.6926 261.629 68.2692 261.038 68.217 260.615C68.1648 260.191 68.453 259.689 68.8785 259.638C69.3041 259.586 69.706 260.003 69.7586 260.426ZM151.361 274.898C151.413 275.321 151.837 275.913 152.262 275.861C152.688 275.808 152.955 275.133 152.903 274.71C152.85 274.286 152.448 273.868 152.023 273.92C151.597 273.973 151.309 274.475 151.361 274.898ZM119.885 274.934C120.311 274.882 120.578 274.206 120.525 273.783C120.473 273.36 120.071 272.942 119.646 272.994C119.22 273.046 118.932 273.548 118.984 273.971C119.037 274.395 119.459 274.986 119.885 274.934ZM96.7769 251.16C96.8288 251.584 96.5621 252.259 96.1365 252.311C95.7106 252.363 95.2876 251.772 95.2357 251.349C95.1831 250.925 95.4713 250.423 95.8972 250.371C96.3224 250.319 96.7243 250.737 96.7769 251.16ZM78.3556 254.165C78.7808 254.113 79.0475 253.437 78.9956 253.013C78.9434 252.59 78.5415 252.173 78.1159 252.225C77.6903 252.276 77.4022 252.778 77.4544 253.202C77.5066 253.625 77.9297 254.217 78.3556 254.165ZM127.728 243.738C127.303 243.79 126.88 243.199 126.828 242.775C126.775 242.352 127.064 241.85 127.489 241.798C127.914 241.746 128.316 242.164 128.369 242.587C128.421 243.01 128.154 243.686 127.728 243.738ZM83.6295 267.212C84.0554 267.16 84.3218 266.484 84.2696 266.061C84.2174 265.638 83.8157 265.22 83.3902 265.272C82.9643 265.324 82.6762 265.826 82.7287 266.249C82.7809 266.673 83.2037 267.264 83.6295 267.212ZM149.849 265.89C150.275 265.838 150.676 266.256 150.729 266.679C150.781 267.102 150.514 267.778 150.088 267.83C149.663 267.882 149.24 267.29 149.187 266.867C149.135 266.444 149.423 265.942 149.849 265.89ZM105.99 291.304C106.415 291.252 106.682 290.577 106.63 290.153C106.578 289.73 106.176 289.312 105.75 289.364C105.324 289.416 105.036 289.918 105.089 290.341C105.141 290.764 105.564 291.356 105.99 291.304ZM117.711 266.903C117.286 266.955 116.862 266.364 116.81 265.94C116.758 265.517 117.047 265.015 117.472 264.963C117.897 264.911 118.299 265.329 118.351 265.752C118.404 266.175 118.137 266.851 117.711 266.903ZM74.2526 289.226C74.2004 288.803 73.7984 288.386 73.3729 288.437C72.9473 288.489 72.6591 288.991 72.7117 289.415C72.7639 289.838 73.1867 290.429 73.6125 290.377C74.0381 290.326 74.3048 289.65 74.2526 289.226ZM140.711 289.844C140.764 290.267 140.497 290.943 140.071 290.995C139.646 291.047 139.223 290.456 139.17 290.033C139.118 289.609 139.406 289.107 139.832 289.055C140.257 289.003 140.659 289.421 140.711 289.844ZM93.0615 243.318C93.1137 243.741 93.5368 244.333 93.9624 244.281C94.3883 244.229 94.655 243.553 94.6027 243.13C94.5502 242.706 94.1486 242.289 93.723 242.341C93.2975 242.393 93.0093 242.894 93.0615 243.318ZM76.1814 246.134C75.7559 246.186 75.3328 245.595 75.2806 245.171C75.2284 244.748 75.5165 244.246 75.9421 244.194C76.3673 244.142 76.7693 244.56 76.8215 244.983C76.874 245.406 76.607 246.082 76.1814 246.134ZM133.63 234.761C133.911 234.439 133.655 233.759 133.331 233.48C133.007 233.2 132.428 233.156 132.147 233.478C131.865 233.8 131.989 234.365 132.312 234.645C132.636 234.925 133.348 235.082 133.63 234.761ZM89.2321 256.954C89.5557 257.233 89.8121 257.913 89.5308 258.235C89.2495 258.557 88.537 258.399 88.2134 258.119C87.8898 257.839 87.7664 257.275 88.0477 256.953C88.3291 256.631 88.9085 256.674 89.2321 256.954ZM70.933 230.563C71.2143 230.241 70.9578 229.561 70.6342 229.281C70.3106 229.002 69.7312 228.958 69.4499 229.28C69.1685 229.602 69.292 230.167 69.6156 230.447C69.9392 230.727 70.6516 230.885 70.933 230.563ZM111.592 281.046C111.916 281.325 112.172 282.005 111.891 282.327C111.61 282.649 110.897 282.491 110.574 282.211C110.25 281.931 110.126 281.366 110.408 281.045C110.689 280.723 111.269 280.766 111.592 281.046ZM122.13 256.644C121.848 256.965 121.972 257.53 122.295 257.81C122.619 258.09 123.331 258.248 123.612 257.926C123.894 257.604 123.638 256.924 123.314 256.645C122.99 256.365 122.411 256.322 122.13 256.644ZM78.1964 281.284C77.8728 281.005 77.7494 280.44 78.0307 280.118C78.312 279.796 78.8915 279.839 79.2151 280.119C79.5387 280.399 79.7951 281.078 79.5135 281.4C79.2325 281.722 78.52 281.564 78.1964 281.284ZM74.4192 274.104C74.1379 274.426 74.2616 274.991 74.5852 275.27C74.9088 275.551 75.621 275.708 75.9026 275.386C76.1839 275.064 75.9275 274.385 75.6039 274.105C75.2803 273.825 74.7005 273.782 74.4192 274.104ZM144.655 281.902C144.332 281.622 144.208 281.057 144.489 280.735C144.771 280.414 145.351 280.457 145.674 280.736C145.998 281.016 146.254 281.696 145.973 282.018C145.692 282.339 144.979 282.182 144.655 281.902ZM99.864 235.304C100.145 234.982 99.8888 234.302 99.5652 234.022C99.2416 233.742 98.6619 233.699 98.3806 234.021C98.0992 234.343 98.223 234.908 98.5466 235.188C98.8702 235.468 99.5823 235.626 99.864 235.304ZM81.784 235.875C82.1076 236.155 82.3644 236.835 82.0827 237.157C81.8014 237.479 81.0892 237.321 80.7656 237.041C80.442 236.761 80.3183 236.196 80.5996 235.874C80.881 235.553 81.4604 235.596 81.784 235.875ZM125.423 238.104C125.932 238.175 126.452 237.474 126.524 236.968C126.596 236.461 126.261 235.853 125.751 235.781C125.241 235.71 124.75 236.203 124.679 236.71C124.607 237.216 124.913 238.033 125.423 238.104ZM80.5797 260.184C80.6515 259.677 81.1424 259.184 81.6519 259.255C82.1614 259.327 82.4968 259.935 82.4253 260.442C82.3535 260.948 81.8334 261.649 81.3236 261.578C80.8144 261.507 80.5086 260.69 80.5797 260.184ZM148.111 259.873C147.601 259.802 147.111 260.295 147.039 260.802C146.967 261.308 147.273 262.125 147.783 262.196C148.292 262.267 148.813 261.566 148.884 261.059C148.956 260.553 148.62 259.944 148.111 259.873ZM103.684 285.67C103.174 285.599 102.869 284.783 102.94 284.276C103.011 283.769 103.503 283.276 104.012 283.347C104.522 283.419 104.857 284.027 104.785 284.534C104.714 285.041 104.193 285.741 103.684 285.67ZM116.507 260.133C116.578 259.626 116.243 259.018 115.734 258.947C115.224 258.876 114.733 259.368 114.662 259.875C114.59 260.382 114.896 261.198 115.406 261.269C115.915 261.34 116.435 260.64 116.507 260.133ZM68.3668 285.324C68.4387 284.817 68.9292 284.324 69.439 284.395C69.9485 284.467 70.2836 285.075 70.2121 285.582C70.1403 286.088 69.6202 286.79 69.1107 286.718C68.6009 286.647 68.295 285.83 68.3668 285.324ZM137.022 283.967C136.95 284.474 137.256 285.29 137.766 285.361C138.275 285.433 138.796 284.732 138.867 284.225C138.939 283.718 138.603 283.11 138.094 283.038C137.584 282.967 137.093 283.46 137.022 283.967ZM92.7578 237.51C92.6866 238.017 92.1663 238.718 91.6568 238.647C91.147 238.575 90.8414 237.759 90.9129 237.252C90.9844 236.746 91.4752 236.253 91.985 236.324C92.4945 236.395 92.8296 237.004 92.7578 237.51ZM73.8758 240.5C74.3853 240.571 74.9057 239.87 74.9769 239.363C75.0487 238.857 74.7133 238.248 74.2041 238.177C73.6943 238.106 73.2034 238.599 73.132 239.106C73.0601 239.613 73.366 240.429 73.8758 240.5ZM122.378 239.057C122.599 239.423 122.632 240.148 122.264 240.368C121.897 240.587 121.268 240.218 121.048 239.853C120.827 239.487 120.885 238.912 121.252 238.693C121.62 238.473 122.158 238.692 122.378 239.057ZM76.9486 263.327C77.1693 263.693 77.7979 264.062 78.1653 263.842C78.5331 263.623 78.5004 262.897 78.2797 262.532C78.0587 262.166 77.5209 261.947 77.1532 262.167C76.7858 262.387 76.7276 262.961 76.9486 263.327ZM144.624 264.46C144.257 264.679 143.628 264.31 143.407 263.945C143.187 263.579 143.245 263.004 143.612 262.784C143.98 262.565 144.518 262.784 144.738 263.149C144.959 263.515 144.992 264.24 144.624 264.46ZM100.525 287.934C100.893 287.714 100.86 286.989 100.64 286.624C100.419 286.258 99.8808 286.039 99.5133 286.259C99.1456 286.478 99.0875 287.053 99.3088 287.419C99.5292 287.785 100.158 288.154 100.525 287.934ZM112.361 262.223C112.582 262.588 112.615 263.314 112.247 263.533C111.88 263.753 111.251 263.384 111.03 263.018C110.81 262.653 110.868 262.077 111.235 261.858C111.603 261.638 112.14 261.857 112.361 262.223ZM67.8375 293.88C68.2049 293.66 68.1726 292.935 67.9515 292.569C67.7305 292.203 67.1927 291.985 66.8253 292.204C66.4579 292.424 66.3998 292.999 66.6205 293.364C66.8412 293.73 67.47 294.1 67.8375 293.88ZM133.39 287.11C133.169 286.744 133.227 286.169 133.595 285.95C133.962 285.73 134.5 285.949 134.721 286.315C134.942 286.68 134.974 287.406 134.607 287.625C134.24 287.845 133.611 287.475 133.39 287.11ZM70.7175 242.764C71.0847 242.545 71.0523 241.819 70.8313 241.454C70.6106 241.088 70.0728 240.869 69.7054 241.089C69.3377 241.308 69.2795 241.883 69.5002 242.249C69.7212 242.615 70.3498 242.984 70.7175 242.764ZM126.859 230.55C127.183 230.83 127.44 231.51 127.158 231.832C126.877 232.154 126.165 231.996 125.841 231.716C125.517 231.436 125.394 230.871 125.675 230.549C125.956 230.228 126.536 230.271 126.859 230.55ZM83.0594 255.306C83.3408 254.984 83.084 254.304 82.7604 254.025C82.4368 253.745 81.8574 253.702 81.576 254.024C81.2947 254.345 81.4184 254.91 81.742 255.19C82.0656 255.47 82.7778 255.628 83.0594 255.306ZM74.3605 250.921C74.6841 251.201 74.9405 251.881 74.6592 252.203C74.3776 252.524 73.6654 252.367 73.3418 252.087C73.0182 251.807 72.8945 251.242 73.1758 250.92C73.4571 250.598 74.0369 250.641 74.3605 250.921ZM148.035 254.641C147.754 254.963 147.877 255.528 148.201 255.808C148.524 256.088 149.237 256.246 149.518 255.924C149.799 255.602 149.543 254.922 149.219 254.642C148.896 254.362 148.316 254.319 148.035 254.641ZM105.121 278.117C105.444 278.396 105.701 279.076 105.419 279.398C105.138 279.72 104.425 279.562 104.102 279.282C103.778 279.003 103.655 278.437 103.936 278.116C104.218 277.794 104.797 277.837 105.121 278.117ZM116.842 253.716C116.519 253.436 115.939 253.393 115.658 253.715C115.377 254.037 115.5 254.602 115.824 254.881C116.147 255.161 116.86 255.319 117.141 254.997C117.422 254.675 117.166 253.995 116.842 253.716ZM68.6789 279.598C68.3553 279.318 68.2316 278.753 68.513 278.432C68.7943 278.11 69.374 278.153 69.6976 278.433C70.0212 278.712 70.2777 279.392 69.996 279.714C69.7147 280.036 69.0025 279.878 68.6789 279.598ZM139.501 279.089C139.782 278.767 139.526 278.088 139.202 277.808C138.879 277.528 138.299 277.485 138.018 277.807C137.736 278.129 137.86 278.693 138.183 278.973C138.507 279.253 139.22 279.411 139.501 279.089ZM93.0935 231.094C93.4171 231.373 93.6736 232.053 93.3923 232.375C93.1109 232.697 92.3985 232.539 92.0749 232.259C91.7513 231.979 91.6275 231.414 91.9089 231.093C92.1905 230.771 92.7699 230.813 93.0935 231.094ZM79.318 231.18C79.5993 230.858 79.3428 230.179 79.0192 229.899C78.6956 229.619 78.1162 229.576 77.8349 229.898C77.5536 230.22 77.677 230.784 78.0006 231.064C78.3242 231.344 79.0367 231.502 79.318 231.18ZM150.064 244.689C149.741 244.409 149.617 243.844 149.898 243.522C150.18 243.2 150.759 243.243 151.083 243.523C151.406 243.803 151.663 244.483 151.381 244.804C151.1 245.126 150.388 244.969 150.064 244.689ZM105.799 266.996C105.518 267.318 105.642 267.883 105.965 268.163C106.289 268.443 107.001 268.6 107.283 268.279C107.564 267.957 107.307 267.277 106.984 266.997C106.66 266.717 106.081 266.674 105.799 266.996ZM129.344 291.089C129.668 291.369 129.924 292.049 129.643 292.37C129.361 292.692 128.649 292.535 128.325 292.254C128.002 291.975 127.878 291.41 128.159 291.088C128.441 290.766 129.02 290.809 129.344 291.089ZM141.066 266.688C140.742 266.408 140.163 266.365 139.881 266.687C139.6 267.009 139.723 267.574 140.047 267.854C140.371 268.134 141.083 268.292 141.364 267.97C141.646 267.648 141.389 266.968 141.066 266.688ZM95.9481 291.328C95.6245 291.048 95.5011 290.484 95.7824 290.161C96.0638 289.84 96.6432 289.883 96.9668 290.162C97.2904 290.442 97.5469 291.122 97.2652 291.444C96.9842 291.765 96.2717 291.608 95.9481 291.328ZM116.132 244.065C115.851 244.387 115.975 244.952 116.298 245.231C116.622 245.511 117.334 245.669 117.616 245.347C117.897 245.025 117.641 244.346 117.317 244.066C116.993 243.786 116.414 243.743 116.132 244.065ZM148.359 239.76C148.506 240.161 148.398 240.879 147.996 241.025C147.593 241.17 147.047 240.689 146.9 240.288C146.753 239.888 146.921 239.334 147.324 239.188C147.726 239.042 148.213 239.359 148.359 239.76ZM103.897 264.499C104.3 264.353 104.407 263.635 104.26 263.234C104.114 262.833 103.627 262.516 103.224 262.662C102.822 262.808 102.654 263.362 102.801 263.762C102.948 264.163 103.494 264.645 103.897 264.499ZM125.161 287.854C125.014 287.454 125.182 286.9 125.585 286.754C125.987 286.608 126.474 286.926 126.62 287.326C126.767 287.726 126.66 288.445 126.257 288.591C125.854 288.737 125.307 288.255 125.161 287.854ZM137.979 264.19C138.381 264.044 138.489 263.326 138.342 262.925C138.195 262.524 137.709 262.208 137.307 262.353C136.903 262.499 136.736 263.053 136.883 263.454C137.03 263.855 137.576 264.336 137.979 264.19ZM92.7839 286.928C92.6372 286.527 92.8048 285.973 93.2076 285.828C93.6102 285.682 94.0964 285.999 94.2428 286.4C94.3898 286.8 94.2826 287.518 93.8797 287.664C93.4768 287.81 92.9307 287.328 92.7839 286.928ZM114.23 241.568C114.633 241.422 114.74 240.704 114.593 240.303C114.447 239.902 113.961 239.585 113.557 239.731C113.155 239.877 112.987 240.43 113.134 240.831C113.281 241.232 113.827 241.714 114.23 241.568ZM151.154 233.583C151.301 233.983 151.193 234.701 150.791 234.847C150.388 234.993 149.842 234.512 149.695 234.111C149.548 233.71 149.716 233.156 150.118 233.011C150.522 232.865 151.007 233.182 151.154 233.583ZM106.02 256.485C105.617 256.631 105.449 257.184 105.596 257.585C105.743 257.986 106.289 258.468 106.692 258.322C107.095 258.176 107.202 257.457 107.055 257.057C106.909 256.656 106.422 256.339 106.02 256.485ZM129.052 282.414C128.649 282.559 128.103 282.078 127.956 281.677C127.809 281.276 127.977 280.722 128.38 280.577C128.783 280.431 129.268 280.748 129.415 281.149C129.562 281.549 129.455 282.267 129.052 282.414ZM140.101 256.176C139.698 256.322 139.531 256.876 139.678 257.276C139.824 257.677 140.371 258.159 140.773 258.013C141.176 257.867 141.284 257.148 141.137 256.748C140.99 256.347 140.504 256.03 140.101 256.176ZM95.5788 280.751C95.4324 280.35 95.5993 279.796 96.0025 279.65C96.4054 279.504 96.8913 279.821 97.038 280.222C97.1847 280.623 97.0775 281.341 96.6746 281.487C96.2717 281.633 95.7256 281.151 95.5788 280.751ZM115.929 234.654C116.076 235.054 116.622 235.536 117.025 235.39C117.428 235.244 117.535 234.526 117.388 234.126C117.241 233.725 116.756 233.408 116.353 233.553C115.95 233.699 115.782 234.253 115.929 234.654ZM139.194 243.134C138.799 242.967 138.759 242.383 138.926 241.99C139.094 241.597 139.572 241.444 139.967 241.611C140.362 241.777 140.523 242.201 140.356 242.593C140.188 242.986 139.589 243.301 139.194 243.134ZM95.0951 266.608C95.4896 266.775 96.0889 266.46 96.2568 266.068C96.424 265.675 96.263 265.251 95.8682 265.085C95.4734 264.918 94.995 265.072 94.8272 265.464C94.6599 265.857 94.7004 266.442 95.0951 266.608ZM68.9525 236.282C68.785 236.674 68.1853 236.989 67.7908 236.822C67.396 236.655 67.3556 236.071 67.5232 235.678C67.6907 235.286 68.1695 235.132 68.5639 235.299C68.9587 235.465 69.1201 235.889 68.9525 236.282ZM117.187 289.556C117.02 289.948 117.06 290.533 117.455 290.7C117.85 290.867 118.449 290.552 118.617 290.159C118.784 289.767 118.623 289.343 118.228 289.177C117.834 289.01 117.355 289.163 117.187 289.556ZM129.177 266.299C128.782 266.133 128.742 265.548 128.909 265.155C129.077 264.763 129.555 264.609 129.95 264.776C130.345 264.943 130.506 265.366 130.338 265.759C130.171 266.151 129.572 266.466 129.177 266.299ZM84.8102 288.629C84.6426 289.022 84.683 289.607 85.0778 289.773C85.4726 289.94 86.0719 289.625 86.2395 289.233C86.407 288.841 86.2457 288.417 85.8512 288.25C85.4564 288.083 84.9777 288.237 84.8102 288.629ZM151.537 290.391C151.142 290.224 151.102 289.64 151.269 289.247C151.437 288.854 151.915 288.701 152.31 288.868C152.705 289.034 152.866 289.458 152.699 289.85C152.531 290.243 151.931 290.558 151.537 290.391ZM106.201 242.153C105.807 241.987 105.328 242.14 105.16 242.533C104.992 242.925 105.033 243.51 105.428 243.677C105.823 243.843 106.422 243.529 106.589 243.136C106.757 242.744 106.596 242.32 106.201 242.153ZM122.08 248.792C121.685 248.626 121.644 248.041 121.812 247.648C121.979 247.256 122.458 247.102 122.853 247.269C123.247 247.436 123.409 247.859 123.241 248.252C123.074 248.644 122.474 248.959 122.08 248.792ZM77.713 271.123C77.5452 271.515 77.5859 272.1 77.9807 272.267C78.3755 272.433 78.9748 272.119 79.1423 271.726C79.3099 271.334 79.1486 270.91 78.7538 270.743C78.3593 270.577 77.8806 270.73 77.713 271.123ZM69.2892 267.327C69.1216 267.72 68.5223 268.034 68.1275 267.867C67.7327 267.701 67.6923 267.116 67.8598 266.723C68.0274 266.331 68.5061 266.178 68.9006 266.344C69.2954 266.511 69.4567 266.935 69.2892 267.327ZM144.172 271.74C144.004 272.133 144.045 272.718 144.439 272.884C144.834 273.051 145.434 272.736 145.601 272.344C145.769 271.951 145.608 271.528 145.213 271.361C144.818 271.194 144.34 271.348 144.172 271.74ZM112.062 271.958C111.667 271.791 111.627 271.206 111.795 270.814C111.962 270.421 112.441 270.267 112.836 270.434C113.23 270.601 113.391 271.025 113.224 271.417C113.056 271.81 112.457 272.125 112.062 271.958ZM88.3135 249.336C88.7083 249.502 89.3076 249.187 89.4752 248.795C89.6427 248.402 89.4814 247.978 89.0869 247.812C88.6921 247.645 88.2134 247.799 88.0459 248.191C87.8783 248.584 87.9187 249.169 88.3135 249.336ZM71.2043 247.648C70.8096 247.481 70.7688 246.897 70.9367 246.504C71.1042 246.111 71.583 245.958 71.9774 246.125C72.3722 246.291 72.5336 246.715 72.366 247.107C72.1985 247.5 71.5991 247.815 71.2043 247.648ZM134.812 230.26C135.207 230.427 135.806 230.112 135.974 229.72C136.141 229.327 135.98 228.903 135.586 228.737C135.191 228.57 134.712 228.724 134.545 229.116C134.377 229.509 134.417 230.094 134.812 230.26ZM91.8753 253.194C91.7074 253.587 91.1081 253.901 90.7133 253.734C90.3185 253.568 90.2784 252.983 90.4457 252.59C90.6135 252.198 91.0919 252.044 91.4867 252.211C91.8815 252.378 92.0425 252.801 91.8753 253.194ZM113.847 276.303C113.452 276.136 112.973 276.29 112.806 276.682C112.638 277.075 112.679 277.66 113.073 277.826C113.468 277.993 114.068 277.678 114.235 277.286C114.403 276.893 114.241 276.47 113.847 276.303ZM125.957 252.885C125.789 253.277 125.19 253.592 124.795 253.425C124.4 253.259 124.36 252.674 124.528 252.281C124.695 251.889 125.174 251.735 125.569 251.902C125.963 252.069 126.124 252.493 125.957 252.885ZM151.405 259.704C151.8 259.87 152.399 259.556 152.566 259.163C152.734 258.77 152.573 258.347 152.178 258.18C151.784 258.013 151.305 258.167 151.137 258.56C150.97 258.952 151.01 259.537 151.405 259.704ZM81.4697 275.376C81.8645 275.543 82.0255 275.967 81.858 276.359C81.6901 276.752 81.0911 277.066 80.6963 276.9C80.3015 276.733 80.2608 276.148 80.4284 275.756C80.5959 275.363 81.0749 275.21 81.4697 275.376ZM70.8431 272.501C71.2379 272.667 71.8372 272.353 72.0045 271.96C72.1723 271.568 72.011 271.144 71.6165 270.977C71.2217 270.811 70.7427 270.964 70.5755 271.357C70.4076 271.749 70.4483 272.334 70.8431 272.501ZM148.317 276.977C148.149 277.369 147.55 277.684 147.155 277.518C146.761 277.351 146.72 276.766 146.887 276.373C147.055 275.981 147.534 275.827 147.928 275.994C148.323 276.161 148.484 276.584 148.317 276.977ZM101.046 230.803C101.441 230.97 102.04 230.655 102.208 230.263C102.375 229.87 102.214 229.446 101.82 229.28C101.425 229.113 100.946 229.267 100.779 229.659C100.611 230.052 100.652 230.636 101.046 230.803ZM84.4269 232.116C84.2593 232.508 83.66 232.823 83.2652 232.656C82.8707 232.489 82.83 231.905 82.9976 231.512C83.1651 231.12 83.6438 230.966 84.0386 231.133C84.4334 231.299 84.5944 231.723 84.4269 232.116ZM134.191 247.248C134.586 247.415 135.185 247.1 135.353 246.708C135.52 246.315 135.359 245.891 134.965 245.725C134.57 245.558 134.091 245.711 133.923 246.104C133.756 246.497 133.796 247.081 134.191 247.248ZM91.2542 270.182C91.0863 270.574 90.487 270.889 90.0922 270.722C89.6974 270.556 89.6573 269.971 89.8246 269.578C89.9921 269.186 90.4709 269.032 90.8656 269.199C91.2604 269.365 91.4214 269.789 91.2542 270.182ZM73.4067 257.057C73.8015 257.224 74.4009 256.909 74.5687 256.517C74.736 256.124 74.5749 255.7 74.1802 255.534C73.7854 255.367 73.307 255.52 73.1391 255.913C72.9719 256.306 73.0123 256.89 73.4067 257.057ZM68.6357 251.744C68.4679 252.137 67.8685 252.451 67.4738 252.285C67.0793 252.118 67.0389 251.533 67.2061 251.141C67.374 250.748 67.8524 250.595 68.2472 250.761C68.642 250.928 68.803 251.352 68.6357 251.744ZM113.226 293.291C112.831 293.124 112.352 293.278 112.185 293.67C112.017 294.063 112.058 294.648 112.452 294.814C112.847 294.981 113.447 294.666 113.614 294.274C113.782 293.881 113.62 293.458 113.226 293.291ZM125.335 269.873C125.168 270.265 124.569 270.58 124.174 270.413C123.779 270.246 123.739 269.662 123.906 269.269C124.074 268.877 124.553 268.723 124.948 268.89C125.342 269.057 125.503 269.48 125.335 269.873ZM80.0752 293.888C80.47 294.054 81.0693 293.74 81.2366 293.347C81.4044 292.955 81.2431 292.531 80.8483 292.364C80.4538 292.198 79.9748 292.351 79.8076 292.743C79.6397 293.136 79.6804 293.721 80.0752 293.888ZM147.696 293.965C147.528 294.357 146.929 294.672 146.534 294.505C146.139 294.339 146.099 293.754 146.266 293.361C146.434 292.969 146.913 292.815 147.307 292.982C147.702 293.148 147.863 293.572 147.696 293.965ZM100.425 247.791C100.82 247.958 101.419 247.643 101.587 247.251C101.754 246.858 101.593 246.434 101.198 246.268C100.804 246.101 100.325 246.254 100.157 246.647C99.9902 247.039 100.031 247.624 100.425 247.791ZM83.8058 249.104C83.6383 249.496 83.0389 249.811 82.6441 249.644C82.2497 249.477 82.2089 248.893 82.3765 248.5C82.544 248.108 83.0228 247.954 83.4175 248.121C83.8123 248.287 83.9734 248.711 83.8058 249.104Z" fill="#5BA092"/>
</g>
<path fill-rule="evenodd" clip-rule="evenodd" d="M104.709 257.816L102.711 242.956H127.282L125.977 257.945C125.977 257.945 119.078 263.221 104.709 257.816Z" fill="#94C0E9"/>
<path fill-rule="evenodd" clip-rule="evenodd" d="M129.049 243.039H101.448L102.07 239.357H128.427L129.049 243.039Z" fill="#3973B0"/>
<path fill-rule="evenodd" clip-rule="evenodd" d="M118.363 224.729H116.841C116.392 224.729 116.024 225.08 116.005 225.526L115.417 239.373H118.614L119.199 225.596C119.219 225.123 118.839 224.729 118.363 224.729Z" fill="#2F6858"/>
<path fill-rule="evenodd" clip-rule="evenodd" d="M102.927 255.964C102.913 255.794 103.041 255.645 103.213 255.632C103.384 255.619 103.533 255.746 103.547 255.916C103.553 256.001 103.627 256.194 103.844 256.47C104.238 256.969 104.932 257.48 106.005 257.965C108.04 258.885 111.148 259.58 115.525 259.95C115.696 259.965 115.823 260.115 115.808 260.285C115.793 260.455 115.643 260.581 115.472 260.567C111.03 260.191 107.855 259.481 105.747 258.528C104.589 258.004 103.815 257.434 103.355 256.852C103.061 256.479 102.942 256.168 102.927 255.964ZM131.151 266.964C131.327 267.105 131.531 267.269 131.762 267.455C132.42 267.986 133.153 268.583 133.942 269.234C136.198 271.092 138.453 273.005 140.559 274.865C141.189 275.422 141.798 275.967 142.382 276.498C144.847 278.74 146.819 280.682 148.175 282.241C148.287 282.37 148.273 282.565 148.144 282.677C148.014 282.788 147.817 282.775 147.705 282.645C146.367 281.109 144.411 279.181 141.963 276.955C141.381 276.425 140.774 275.882 140.146 275.327C138.046 273.472 135.796 271.564 133.545 269.71C132.758 269.061 132.027 268.465 131.37 267.935C131.14 267.75 130.937 267.586 130.761 267.446C130.656 267.362 130.583 267.304 130.546 267.274C130.48 267.222 130.439 267.145 130.431 267.062C130.379 266.531 130.328 265.936 130.278 265.29C130.202 264.313 130.133 263.266 130.07 262.219C130.049 261.853 130.03 261.513 130.013 261.208C130.007 261.101 130.002 261.006 129.998 260.924L129.993 260.823C129.984 260.653 130.116 260.508 130.288 260.499C130.459 260.491 130.605 260.622 130.614 260.792L130.619 260.892C130.623 260.974 130.628 261.068 130.634 261.175C130.65 261.479 130.669 261.818 130.691 262.183C130.753 263.226 130.822 264.269 130.898 265.243C130.943 265.833 130.99 266.379 131.037 266.873L131.151 266.964ZM101.865 268.894C101.769 269.037 101.809 269.229 101.952 269.323C102.152 269.455 102.556 269.639 103.192 269.818C104.983 270.324 107.516 270.466 110.896 270.03C111.067 270.009 111.187 269.854 111.165 269.684C111.143 269.515 110.987 269.396 110.817 269.417C107.516 269.843 105.068 269.705 103.362 269.224C103.024 269.128 102.747 269.027 102.527 268.927C102.401 268.869 102.325 268.827 102.295 268.808C102.152 268.713 101.959 268.752 101.865 268.894ZM101.011 262.654C100.858 262.575 100.799 262.389 100.878 262.237C100.957 262.086 101.145 262.027 101.297 262.106C101.323 262.119 101.379 262.146 101.465 262.185C101.609 262.252 101.783 262.326 101.986 262.406C102.567 262.637 103.259 262.868 104.058 263.084C105.787 263.552 107.766 263.883 109.982 264.014C110.154 264.025 110.284 264.171 110.274 264.341C110.264 264.512 110.117 264.642 109.945 264.632C107.685 264.497 105.664 264.16 103.895 263.681C103.073 263.458 102.359 263.22 101.755 262.98C101.543 262.896 101.359 262.818 101.205 262.747C101.11 262.704 101.045 262.672 101.011 262.654ZM103.971 274.843C103.911 275.003 103.993 275.181 104.154 275.241C104.179 275.25 104.224 275.266 104.29 275.288C104.398 275.324 104.525 275.364 104.67 275.407C105.083 275.529 105.56 275.651 106.096 275.765C107.539 276.071 109.137 276.262 110.853 276.282C111.025 276.284 111.165 276.147 111.168 275.976C111.169 275.805 111.032 275.665 110.86 275.664C109.187 275.644 107.63 275.458 106.226 275.16C105.706 275.05 105.245 274.932 104.848 274.815C104.71 274.774 104.59 274.736 104.488 274.702C104.429 274.682 104.389 274.668 104.37 274.661C104.21 274.602 104.031 274.683 103.971 274.843ZM77.3984 343.547C77.4786 343.396 77.6667 343.338 77.8187 343.418C77.9704 343.498 78.0285 343.685 77.9483 343.836C77.9371 343.857 77.9157 343.897 77.8843 343.956C77.832 344.053 77.7711 344.165 77.7024 344.292C77.5056 344.655 77.2834 345.058 77.0403 345.493C76.3458 346.735 75.6234 347.977 74.91 349.137C74.5876 349.661 74.274 350.156 73.9709 350.62C72.7356 352.508 71.729 353.782 70.9932 354.296C70.8527 354.394 70.6587 354.36 70.5602 354.22C70.4616 354.08 70.4955 353.888 70.636 353.79C71.2832 353.338 72.259 352.102 73.4496 350.283C73.7496 349.824 74.0604 349.333 74.3797 348.815C75.0881 347.662 75.8065 346.428 76.4969 345.193C76.7388 344.76 76.9598 344.359 77.1553 343.998C77.2237 343.873 77.284 343.761 77.3356 343.664C77.3667 343.607 77.3878 343.567 77.3984 343.547ZM83.1045 345.781C82.9559 345.695 82.7659 345.745 82.6798 345.893C82.6693 345.911 82.6484 345.947 82.618 345.998C82.567 346.085 82.5073 346.186 82.4392 346.299C82.2452 346.623 82.0249 346.983 81.7827 347.372C81.0904 348.483 80.3618 349.593 79.6309 350.628C79.1501 351.31 78.6838 351.937 78.238 352.496C77.2339 353.755 76.3663 354.631 75.6955 355.029C75.5479 355.116 75.4997 355.306 75.5873 355.453C75.6753 355.599 75.8662 355.647 76.0135 355.56C76.7667 355.114 77.6772 354.194 78.7251 352.88C79.179 352.311 79.6524 351.675 80.1401 350.984C80.8784 349.938 81.6133 348.818 82.3111 347.698C82.5552 347.306 82.7774 346.942 82.9733 346.615C83.042 346.501 83.1023 346.399 83.1542 346.311C83.1853 346.258 83.2067 346.222 83.2179 346.203C83.304 346.055 83.253 345.866 83.1045 345.781ZM82.5315 355.651C82.4103 355.772 82.2135 355.773 82.092 355.652C81.9704 355.531 81.9704 355.335 82.0917 355.215C82.1054 355.201 82.1327 355.173 82.1725 355.133C82.2393 355.066 82.3167 354.987 82.4041 354.897C82.654 354.64 82.9329 354.347 83.2328 354.026C84.0905 353.106 84.9481 352.134 85.7477 351.154C86.3339 350.436 86.8667 349.74 87.334 349.077C87.9961 348.136 88.5127 347.279 88.8593 346.527C88.9308 346.372 89.1152 346.304 89.2712 346.375C89.4273 346.446 89.496 346.63 89.4245 346.785C89.0601 347.575 88.5255 348.462 87.8434 349.431C87.3672 350.108 86.8254 350.815 86.2304 351.544C85.4213 352.535 84.5549 353.517 83.6889 354.446C83.3858 354.771 83.1041 355.066 82.8511 355.326C82.7625 355.418 82.6839 355.498 82.6158 355.567C82.5751 355.608 82.5465 355.636 82.5315 355.651ZM83.9795 299.429C84.1172 299.327 84.1455 299.134 84.0429 298.997C83.9553 298.88 83.7616 298.703 83.4271 298.49C82.8962 298.15 82.1532 297.816 81.1622 297.506C80.456 297.285 79.6449 297.084 78.7211 296.907C78.5526 296.875 78.3897 296.985 78.3571 297.152C78.3247 297.32 78.4351 297.482 78.6036 297.514C79.5047 297.687 80.2931 297.882 80.9757 298.095C81.9164 298.39 82.6089 298.702 83.0911 299.01C83.3643 299.184 83.5027 299.31 83.5443 299.366C83.6469 299.503 83.8418 299.531 83.9795 299.429Z" fill="#6D4038"/>
</svg>
