<svg width="586" height="278" viewBox="0 0 586 278" fill="none" xmlns="http://www.w3.org/2000/svg">
<path fill-rule="evenodd" clip-rule="evenodd" d="M581.211 272.647L564.844 272.455L547.416 258.485L564.706 258.689H564.729C565.732 258.689 566.548 257.877 566.562 256.868C566.574 255.853 565.763 255.019 564.749 255.007L542.757 254.749L522.703 238.675L537.272 238.844H537.295C538.297 238.844 539.114 238.033 539.125 237.026C539.139 236.008 538.326 235.174 537.315 235.163L518.041 234.936L503.904 223.605L518.616 223.777H518.639C519.641 223.777 520.461 222.968 520.472 221.959C520.483 220.941 519.673 220.106 518.659 220.095L499.244 219.868L487.866 210.748L502.157 210.917H502.177C503.179 210.917 503.998 210.105 504.01 209.096C504.021 208.081 503.211 207.247 502.2 207.235L483.206 207.012L470.427 196.77L486.061 196.95H486.084C487.087 196.95 487.903 196.142 487.917 195.132C487.929 194.114 487.118 193.283 486.104 193.269L465.764 193.033L454.05 183.643L471.796 183.85H471.819C472.821 183.85 473.637 183.041 473.649 182.032C473.66 181.014 472.85 180.179 471.839 180.168L441.274 179.812H441.251C440.916 179.812 440.601 179.904 440.329 180.065H145.038C144.766 179.904 144.452 179.812 144.115 179.812H144.093L113.529 180.168C112.517 180.179 111.707 181.014 111.718 182.032C111.73 183.041 112.548 183.85 113.55 183.85H113.572L122.015 183.752L112.206 193.12L99.2631 193.269C98.251 193.283 97.4405 194.114 97.4519 195.132C97.4637 196.142 98.2816 196.95 99.284 196.95H99.3058L108.303 196.847L97.6029 207.066L83.1678 207.235C82.156 207.247 81.3452 208.081 81.3569 209.096C81.3687 210.105 82.1869 210.917 83.189 210.917H83.2108L93.6995 210.793L84.1722 219.891L66.7073 220.095C65.6952 220.106 64.8847 220.941 64.8962 221.959C64.9082 222.968 65.7261 223.777 66.7282 223.777H66.7503L80.2686 223.619L68.4309 234.925L48.0519 235.163C47.0401 235.174 46.2296 236.008 46.2413 237.026C46.253 238.036 47.071 238.844 48.0734 238.844H48.0949L64.5278 238.652L47.7349 254.689L20.6172 255.007C19.6051 255.019 18.7949 255.853 18.8066 256.868C18.8181 257.877 19.6363 258.689 20.6384 258.689H20.6602L43.8315 258.416L29.2395 272.351L4.15684 272.647C3.14486 272.658 2.33423 273.493 2.34589 274.508C2.35752 275.517 3.17556 276.328 4.17786 276.328H4.19952L25.3365 276.079L25.2211 276.191H569.446L581.168 276.328H581.189C582.191 276.328 583.01 275.517 583.021 274.508C583.033 273.493 582.222 272.658 581.211 272.647Z" fill="#FFF5EE"/>
<path fill-rule="evenodd" clip-rule="evenodd" d="M263.143 160.679L123.219 159.465L134.228 83.3C134.834 79.1072 138.413 75.991 142.642 75.9738L251.723 75.5345C254.089 75.5251 256.494 76.684 258.733 78.3815C260.972 80.0789 262.103 82.1241 262.103 82.1241L263.143 160.679Z" fill="#78BFB1"/>
<path fill-rule="evenodd" clip-rule="evenodd" d="M271.257 74.8409C268.284 74.8409 265.529 76.4007 263.993 78.9526L262.102 82.0934L263.143 160.679L398.561 159.465L388.68 82.3162C388.133 78.0417 384.507 74.8409 380.211 74.8409H271.257Z" fill="#78BFB1"/>
<path fill-rule="evenodd" clip-rule="evenodd" d="M130.194 110.556L82.2906 128.62C78.9812 129.868 76.7631 133.019 76.6923 136.572L75.4253 200.268C75.3712 203 77.5587 205.245 80.2763 205.245H440.467C443.282 205.245 445.507 202.84 445.304 200.015L440.478 132.727C440.266 129.768 438.565 127.122 435.967 125.714L390.765 101.199L398.057 159.574H123.234L130.194 110.556Z" fill="#78BFB1"/>
<path fill-rule="evenodd" clip-rule="evenodd" d="M110.405 204.898H98.1602L95.194 230.188C94.9107 232.602 96.7918 234.724 99.2159 234.724C100.46 234.724 101.557 233.91 101.921 232.717L110.405 204.898ZM408.605 204.898H420.851L423.815 230.188C424.099 232.602 422.217 234.724 419.794 234.724C418.551 234.724 417.454 233.91 417.091 232.717L408.605 204.898Z" fill="#CDB1AA"/>
<path fill-rule="evenodd" clip-rule="evenodd" d="M168.07 116.806C169.696 116.806 171.014 115.331 171.014 113.511C171.014 111.692 169.696 110.216 168.07 110.216C166.444 110.216 165.126 111.692 165.126 113.511C165.126 115.331 166.444 116.806 168.07 116.806ZM215.519 116.806C217.145 116.806 218.463 115.331 218.463 113.511C218.463 111.692 217.145 110.216 215.519 110.216C213.894 110.216 212.575 111.692 212.575 113.511C212.575 115.331 213.894 116.806 215.519 116.806ZM304.356 113.511C304.356 115.331 303.038 116.806 301.411 116.806C299.788 116.806 298.467 115.331 298.467 113.511C298.467 111.692 299.788 110.216 301.411 110.216C303.038 110.216 304.356 111.692 304.356 113.511ZM348.515 116.806C350.139 116.806 351.46 115.331 351.46 113.511C351.46 111.692 350.139 110.216 348.515 110.216C346.889 110.216 345.571 111.692 345.571 113.511C345.571 115.331 346.889 116.806 348.515 116.806Z" fill="#2F6858"/>
<path fill-rule="evenodd" clip-rule="evenodd" d="M163.682 167.818L108.989 178.462C102.718 179.196 97.0384 174.709 96.3038 168.437L90.3959 118.015C89.661 111.744 94.1492 106.065 100.42 105.331L155.114 94.6883C161.385 93.9534 167.065 98.4413 167.799 104.712L173.707 155.135C174.442 161.406 169.953 167.084 163.682 167.818Z" fill="#F4F0F0"/>
<path fill-rule="evenodd" clip-rule="evenodd" d="M158.2 94.766C157.163 94.5931 156.085 94.5584 154.989 94.6874L150.562 95.5525L130.776 120.694L98.7462 105.667C96.5063 106.243 94.5593 107.47 93.0878 109.117L132.394 127.557L158.2 94.766ZM167.687 104.527L167.898 106.323L135.945 146.632L91.0713 125.732L90.3172 119.312L134.324 139.81L166.03 99.8118C166.9 101.199 167.484 102.794 167.687 104.527ZM169.416 118.887L170.322 126.603L140.434 164.32L93.1485 142.289L92.3953 135.875L138.815 157.503L169.416 118.887ZM155.027 169.642L172.747 147.092L171.845 139.349L146.771 171.256L155.027 169.642ZM94.4731 153.569L136.727 173.613L127.587 175.42L95.2226 160.067L94.4731 153.569ZM129.557 99.6874L137.766 98.0777L127.976 110.563L112.137 103.105L121.226 101.322L126.375 103.746L129.557 99.6874Z" fill="#5BA092"/>
<path fill-rule="evenodd" clip-rule="evenodd" d="M262.275 81.6037C261.988 81.6037 261.756 81.8368 261.756 82.1241V159.403L173.782 159.82C173.495 159.822 173.264 160.056 173.265 160.343C173.266 160.63 173.5 160.862 173.787 160.861L358.253 159.985C358.542 159.984 358.771 159.75 358.771 159.462C358.771 159.175 358.537 158.943 358.25 158.945L262.794 159.398V82.1241C262.794 81.8368 262.562 81.6037 262.275 81.6037Z" fill="#2F6858"/>
<path fill-rule="evenodd" clip-rule="evenodd" d="M388.136 146.981C385.069 146.981 382.583 144.442 382.583 141.31C382.583 138.178 385.069 135.639 388.136 135.639C391.203 135.639 393.689 138.178 393.689 141.31C393.689 144.442 391.203 146.981 388.136 146.981ZM376.726 168.051C374.205 168.912 371.359 167.257 370.371 164.354C369.38 161.451 370.623 158.399 373.143 157.537C375.663 156.676 378.51 158.332 379.498 161.235C380.489 164.138 379.246 167.19 376.726 168.051ZM408.347 162.771C409.988 162.771 411.48 163.375 412.591 164.361C413.107 162.977 413.393 161.479 413.393 159.906V130.824C413.393 127.643 412.222 124.713 410.274 122.463C409.765 126.384 406.462 129.412 402.461 129.412C398.105 129.412 394.577 125.828 394.577 121.406C394.577 119.957 394.958 118.6 395.619 117.428L377.909 115.47C377.911 115.558 377.92 115.645 377.92 115.735C377.92 118.621 375.932 120.961 373.478 120.961C371.026 120.961 369.036 118.621 369.036 115.735C369.036 115.31 369.085 114.899 369.165 114.504L365.602 114.11C358.055 113.276 351.46 119.193 351.46 126.796V130.054C352.01 129.926 352.577 129.856 353.158 129.856C358.001 129.856 361.93 134.536 361.93 140.309C361.93 146.082 358.001 150.761 353.158 150.761C352.577 150.761 352.01 150.693 351.46 150.564V155.878C351.46 162.385 356.348 167.851 362.807 168.564L399.248 172.593C400.714 172.753 402.144 172.659 403.495 172.349C402.639 171.34 402.126 170.058 402.126 168.664C402.126 165.409 404.913 162.771 408.347 162.771Z" fill="#F3705A"/>
<path fill-rule="evenodd" clip-rule="evenodd" d="M373.478 120.961C375.932 120.961 377.92 118.621 377.92 115.735C377.92 115.675 377.917 115.615 377.914 115.556V115.555C377.911 115.527 377.911 115.499 377.909 115.47L369.165 114.504C369.085 114.899 369.036 115.31 369.036 115.735C369.036 118.621 371.026 120.961 373.478 120.961ZM353.158 129.856C358.001 129.856 361.93 134.536 361.93 140.309C361.93 146.082 358.001 150.762 353.158 150.762C352.577 150.762 352.01 150.692 351.46 150.564V130.054C352.01 129.926 352.577 129.856 353.158 129.856ZM382.583 141.31C382.583 138.178 385.069 135.639 388.136 135.639C391.203 135.639 393.689 138.178 393.689 141.31C393.689 144.442 391.203 146.98 388.136 146.98C385.069 146.98 382.583 144.442 382.583 141.31ZM370.371 164.354C369.38 161.451 370.623 158.399 373.143 157.537C375.663 156.676 378.51 158.331 379.498 161.234C380.489 164.138 379.246 167.19 376.726 168.051C374.205 168.912 371.359 167.257 370.371 164.354ZM412.594 164.361C411.48 163.375 409.988 162.771 408.347 162.771C404.913 162.771 402.126 165.409 402.126 168.664C402.126 170.058 402.639 171.34 403.495 172.349C407.668 171.394 411.102 168.368 412.594 164.361ZM410.274 122.463C409.765 126.384 406.462 129.412 402.461 129.412C398.105 129.412 394.577 125.827 394.577 121.406C394.577 119.957 394.958 118.6 395.619 117.428L402.046 118.138C405.348 118.503 408.235 120.111 410.274 122.463Z" fill="#E74B33"/>
<path d="M57.048 235.122H55.616V244.011H57.048V235.122Z" fill="#E3D4C5"/>
<path fill-rule="evenodd" clip-rule="evenodd" d="M493.729 183.959C493.466 183.959 493.249 183.749 493.24 183.484C492.71 167.721 490.095 153.627 485.468 141.592C481.772 131.979 476.79 123.653 470.663 116.843C460.252 105.272 450.032 102.071 449.93 102.04C449.671 101.962 449.525 101.688 449.603 101.428C449.682 101.168 449.957 101.02 450.214 101.1C450.318 101.131 460.798 104.413 471.39 116.184C477.598 123.083 482.642 131.513 486.382 141.238C491.049 153.375 493.686 167.578 494.219 183.45C494.228 183.722 494.017 183.949 493.746 183.959H493.729ZM496.061 183.746C496.004 183.746 495.947 183.736 495.89 183.715C495.637 183.621 495.507 183.337 495.602 183.083C495.815 182.508 516.952 125.364 521.135 106.052C521.192 105.787 521.452 105.616 521.718 105.676C521.982 105.734 522.15 105.996 522.092 106.261C517.895 125.641 496.733 182.85 496.52 183.426C496.447 183.623 496.26 183.746 496.061 183.746ZM483.084 183.168C483.142 183.388 483.34 183.534 483.557 183.534C483.598 183.534 483.641 183.528 483.683 183.517C483.944 183.447 484.1 183.178 484.03 182.916C480.39 169.184 472.227 158.905 466.021 152.7C459.299 145.98 453.345 142.448 453.286 142.413C453.053 142.276 452.753 142.354 452.616 142.589C452.48 142.823 452.558 143.124 452.792 143.262C453.025 143.399 476.221 157.286 483.084 183.168Z" fill="#5BA092"/>
<path fill-rule="evenodd" clip-rule="evenodd" d="M479.433 172.151C479.433 172.151 468.223 167.316 468.836 173.733C469.449 180.15 479.433 172.151 479.433 172.151ZM482.848 180.678C482.848 180.678 481.878 171.304 486.702 172.327C492.919 173.646 482.848 180.678 482.848 180.678ZM482.761 181.381C482.761 181.381 474.854 173.777 473.07 179.231C470.873 185.947 482.761 181.381 482.761 181.381Z" fill="#2F6858"/>
<path fill-rule="evenodd" clip-rule="evenodd" d="M459.395 182.338L513.771 183.194L507.589 234.474C507.158 238.047 505.727 241.45 503.352 244.146C500.263 247.653 494.936 250.947 485.987 250.091C476.973 249.229 471.072 245.373 467.435 241.758C464.283 238.624 462.437 234.405 462.177 229.96L459.395 182.338Z" fill="#E58857"/>
<mask id="mask0_66_8" style="mask-type:luminance" maskUnits="userSpaceOnUse" x="459" y="182" width="55" height="69">
<path fill-rule="evenodd" clip-rule="evenodd" d="M459.395 182.338L513.771 183.194L507.589 234.474C507.158 238.047 505.727 241.45 503.352 244.146C500.263 247.653 494.936 250.947 485.987 250.091C476.973 249.229 471.072 245.373 467.435 241.758C464.283 238.624 462.437 234.405 462.177 229.96L459.395 182.338Z" fill="white"/>
</mask>
<g mask="url(#mask0_66_8)">
<path fill-rule="evenodd" clip-rule="evenodd" d="M514.552 186.217C514.399 185.826 513.965 185.634 513.58 185.789C501.14 190.799 489.302 192.153 478.255 190.632C470.369 189.546 463.667 187.132 458.351 184.167C457.988 183.964 457.533 184.099 457.335 184.468C457.136 184.836 457.269 185.299 457.631 185.501C463.1 188.552 469.974 191.027 478.054 192.14C489.351 193.696 501.448 192.311 514.131 187.204C514.516 187.05 514.704 186.607 514.552 186.217ZM461.35 227.251C461.294 227.083 461.301 226.895 461.385 226.724C461.554 226.38 461.968 226.238 462.31 226.407C467.227 228.833 473.082 230.693 479.748 231.509C488.647 232.598 498.114 231.695 508.029 228.321C508.345 228.213 508.685 228.348 508.847 228.627C508.871 228.667 508.89 228.71 508.905 228.755C508.913 228.778 508.919 228.8 508.925 228.823C508.939 228.886 508.944 228.949 508.941 229.011C508.928 229.287 508.75 229.541 508.473 229.635C498.357 233.077 488.683 234 479.58 232.886C472.753 232.05 466.75 230.144 461.7 227.652C461.528 227.567 461.407 227.42 461.35 227.251Z" fill="#F4F0F0"/>
</g>
<path d="M161.047 150.681C161.047 138.883 170.579 129.319 182.337 129.319H210.201C210.517 129.319 210.772 129.576 210.772 129.893V171.469C210.772 171.785 210.517 172.042 210.201 172.042H182.337C170.579 172.042 161.047 162.478 161.047 150.681Z" fill="#010101"/>
<path fill-rule="evenodd" clip-rule="evenodd" d="M291.384 232.39L260.575 165.465C260.575 158.822 260.3 155.243 255.651 151.183C250.177 146.403 227.348 135.272 221.297 132.688C215.214 130.091 215.481 125.592 215.481 125.592H167.522C167.522 125.592 139.876 172.136 197.416 172.136L222.258 172.423L194.743 227.293L223.767 244.28L244.625 199.278L256.869 239.021L291.384 232.39Z" fill="#010101"/>
<path fill-rule="evenodd" clip-rule="evenodd" d="M263.253 252.068L259.537 238.397L288.253 232.932L289.735 236.917C290.649 239.374 292.964 241.04 295.577 241.076C299.523 241.131 304.87 241.859 305.335 245.351L266.734 254.164C265.202 254.514 263.666 253.59 263.253 252.068Z" fill="#F3705A"/>
<path fill-rule="evenodd" clip-rule="evenodd" d="M296.699 238.734C297.93 238.708 298.69 237.375 298.09 236.296C297.603 235.423 296.458 235.187 295.667 235.797L291.72 238.843L296.699 238.734ZM290.681 238.921L295.319 235.342C296.385 234.519 297.932 234.838 298.589 236.017C299.399 237.473 298.373 239.272 296.711 239.308L290.862 239.435C290.586 239.441 290.463 239.09 290.681 238.921ZM293.464 233.938C294.022 232.836 293.211 231.535 291.979 231.556C290.982 231.574 290.234 232.475 290.397 233.471L291.027 238.261L293.464 233.938ZM290.572 239.186L289.832 233.555C289.613 232.223 290.624 231.006 291.969 230.983C293.632 230.954 294.727 232.711 293.968 234.209L291.104 239.289C290.969 239.529 290.608 239.459 290.572 239.186Z" fill="#B9B3B8"/>
<path fill-rule="evenodd" clip-rule="evenodd" d="M196.252 228.087L220.711 242.455L219.244 246.444C218.339 248.904 219.01 251.683 220.967 253.421C223.922 256.044 227.502 260.097 225.583 263.048L191.455 244.748C190.066 244.01 189.503 242.305 190.179 240.881L196.252 228.087Z" fill="#F3705A"/>
<path fill-rule="evenodd" clip-rule="evenodd" d="M225.308 245.278C226.035 246.275 225.443 247.69 224.224 247.867L219.48 248.502L222.846 245.075C223.553 244.375 224.719 244.47 225.308 245.278ZM225.769 244.939C224.974 243.849 223.401 243.721 222.442 244.669L218.596 248.585C218.363 248.62 218.264 248.928 218.46 249.09L222.976 252.822C224.26 253.883 226.207 253.191 226.539 251.557C226.808 250.234 225.843 248.98 224.5 248.906L221.874 248.76L224.302 248.435C225.951 248.196 226.751 246.285 225.769 244.939ZM225.979 251.442C225.733 252.653 224.291 253.165 223.34 252.38L219.496 249.203L224.468 249.478C225.464 249.533 226.178 250.462 225.979 251.442Z" fill="#B9B3B8"/>
<path fill-rule="evenodd" clip-rule="evenodd" d="M204.493 126.427C204.358 126.157 204.213 125.911 204.068 125.693C203.979 125.561 203.91 125.466 203.868 125.413C203.814 125.345 203.731 125.306 203.644 125.306H193.956C193.798 125.306 193.67 125.434 193.67 125.592V130.262C186.139 130.167 179.769 129.769 174.48 129.137C174.452 129.051 174.384 128.98 174.291 128.952C174.165 128.913 174.032 128.967 173.965 129.075C173.684 129.04 173.406 129.004 173.131 128.968C170.961 128.683 169.174 128.377 167.746 128.071C167.248 127.965 166.83 127.866 166.491 127.777C166.372 127.746 166.272 127.719 166.191 127.696C166.142 127.682 166.111 127.673 166.097 127.668C165.946 127.621 165.786 127.706 165.739 127.857C165.693 128.009 165.777 128.169 165.928 128.216C165.946 128.222 165.982 128.232 166.034 128.247C166.12 128.272 166.224 128.3 166.347 128.333C166.695 128.423 167.12 128.524 167.627 128.632C169.069 128.941 170.872 129.249 173.057 129.537C173.298 129.569 173.542 129.6 173.788 129.631C172.561 133.774 171.765 137.96 171.709 141.773C171.63 147.18 173.07 151.235 176.406 153.433C179.322 155.354 183.625 156.849 189.425 158.093C193.99 159.072 198.89 159.81 206.765 160.798C207.366 160.873 207.988 160.951 208.768 161.048L209.68 161.161L210.765 161.295C219.69 162.403 224.094 163.045 228.409 163.978C233.945 165.176 237.62 166.619 239.523 168.486C241.905 170.826 244.829 176.63 248.151 185.285C250.028 190.176 252.001 195.893 254.036 202.27C256.484 209.944 258.898 218.168 261.171 226.391C261.966 229.269 262.688 231.941 263.321 234.34C263.543 235.179 263.738 235.924 263.904 236.567C263.963 236.791 264.013 236.987 264.056 237.153C264.081 237.253 264.099 237.32 264.107 237.354C264.146 237.507 264.302 237.6 264.455 237.561C264.608 237.521 264.7 237.365 264.661 237.212L264.643 237.142L264.609 237.01C264.567 236.844 264.516 236.647 264.458 236.422C264.291 235.779 264.096 235.033 263.874 234.193C263.239 231.793 262.518 229.118 261.722 226.238C259.447 218.008 257.031 209.778 254.58 202.096C252.542 195.709 250.566 189.982 248.684 185.079C245.332 176.345 242.385 170.495 239.922 168.076C237.921 166.111 234.164 164.636 228.529 163.418C224.191 162.479 219.777 161.836 210.835 160.726L209.745 160.591L208.839 160.479C208.058 160.382 207.436 160.304 206.836 160.229C198.976 159.242 194.089 158.506 189.545 157.532C183.808 156.302 179.564 154.827 176.72 152.954C173.579 150.884 172.204 147.013 172.28 141.782C172.314 139.461 172.628 136.993 173.15 134.479C173.262 134.543 173.391 134.613 173.535 134.688C173.995 134.927 174.519 135.166 175.102 135.389C178.077 136.524 181.291 136.82 184.475 135.755C185.659 135.36 186.447 134.445 186.908 133.185C187.111 132.632 187.238 132.042 187.306 131.449C187.34 131.15 187.355 130.887 187.358 130.676C191.012 130.818 194.986 130.88 199.292 130.851C199.068 134.503 201.541 137.786 205.118 138.595C213.264 140.434 222.125 142.63 230.164 144.945C241.768 148.287 249.548 151.298 251.894 153.685C255.45 157.305 257.789 160.311 259.149 162.733C259.621 163.573 259.937 164.278 260.127 164.852C260.192 165.049 260.237 165.215 260.266 165.35C260.282 165.426 260.288 165.472 260.29 165.489C260.303 165.647 260.442 165.764 260.599 165.751C260.756 165.737 260.873 165.598 260.859 165.44C260.848 165.303 260.794 165.048 260.669 164.671C260.468 164.061 260.136 163.322 259.647 162.451C258.261 159.982 255.89 156.937 252.301 153.283C249.854 150.792 242.046 147.77 230.322 144.394C222.27 142.075 213.399 139.877 205.244 138.035C201.927 137.285 199.639 134.233 199.865 130.847C200.042 130.845 200.218 130.844 200.396 130.842C201.155 130.838 201.933 130.831 202.71 130.821C203.156 130.816 203.57 130.81 203.941 130.805C204.07 130.803 204.186 130.801 204.285 130.799L204.407 130.797C204.443 130.796 204.478 130.789 204.51 130.776C207.149 130.718 209.901 130.628 212.767 130.505C212.823 130.601 212.912 130.74 213.033 130.912C213.268 131.242 213.544 131.571 213.862 131.88C214.824 132.813 215.954 133.359 217.238 133.307C218.199 133.269 219.044 133.177 219.773 133.047C220.121 132.986 220.42 132.919 220.67 132.853C220.823 132.812 220.927 132.779 220.983 132.76C221.132 132.707 221.21 132.543 221.157 132.393C221.104 132.244 220.941 132.166 220.792 132.219C220.751 132.234 220.661 132.262 220.523 132.298C220.288 132.361 220.005 132.424 219.673 132.483C218.97 132.607 218.151 132.697 217.215 132.734C216.108 132.779 215.118 132.301 214.259 131.468C213.968 131.185 213.714 130.882 213.499 130.579C213.474 130.544 213.45 130.51 213.427 130.476C214.62 130.423 215.833 130.365 217.066 130.3C217.223 130.292 217.344 130.157 217.336 129.999C217.328 129.841 217.193 129.719 217.036 129.727C212.74 129.953 208.685 130.106 204.866 130.194C204.894 130.123 204.919 130.052 204.942 129.979C205.311 128.824 205.086 127.605 204.493 126.427ZM198.919 130.273C199.401 130.273 199.896 130.271 200.399 130.269C201.651 130.256 202.93 130.236 204.237 130.208C204.301 130.076 204.354 129.942 204.398 129.805C204.713 128.817 204.514 127.741 203.983 126.685C203.859 126.438 203.726 126.212 203.593 126.012C203.558 125.961 203.528 125.916 203.501 125.879H194.241V130.174C195.134 130.241 196.764 130.272 198.919 130.273ZM173.276 133.888C173.301 133.903 173.341 133.927 173.397 133.96C173.511 134.026 173.645 134.099 173.798 134.179C174.239 134.409 174.744 134.638 175.306 134.853C178.167 135.945 181.251 136.229 184.295 135.211C185.293 134.878 185.966 134.097 186.372 132.987C186.557 132.481 186.675 131.935 186.738 131.384C186.761 131.181 186.775 130.988 186.783 130.81C186.785 130.753 186.786 130.7 186.787 130.653C182.123 130.46 177.991 130.135 174.363 129.701C173.948 131.097 173.582 132.498 173.276 133.888ZM221.973 172.394C221.957 172.551 222.071 172.692 222.228 172.708L228.365 173.35L200.324 230.34C200.254 230.482 200.312 230.654 200.453 230.724C200.595 230.794 200.766 230.736 200.836 230.594L228.971 173.413L233.391 173.876C235.158 174.061 236.649 175.276 237.192 176.973L244.352 199.366C244.401 199.517 244.561 199.6 244.712 199.551C244.862 199.503 244.945 199.342 244.896 199.191L237.736 176.798C237.124 174.884 235.442 173.514 233.45 173.305L222.287 172.138C222.13 172.121 221.99 172.236 221.973 172.394Z" fill="#B9B3B8"/>
<path fill-rule="evenodd" clip-rule="evenodd" d="M208.083 38.6792C208.083 38.6792 210.962 44.4385 216.317 46.2136C218.13 46.8146 219.817 47.7642 221.164 49.1253C223.631 51.6179 226.52 56.1318 226.169 63.4345C225.568 75.9454 222.76 76.4437 230.177 79.3758C240.188 83.333 237.993 101.875 224.366 104.599C218.141 105.843 211.796 107.4 205.987 110.002C198.978 113.142 191.356 120.275 183.314 116.611C176.537 113.524 173.932 105.787 175.418 98.8324C176.297 94.7198 178.188 90.9083 180.078 87.1565C181.917 83.505 183.175 79.8899 179.652 76.8566C177.745 75.2154 175.272 74.4641 173.671 72.4353C170.164 67.9887 174.233 60.6326 174.265 55.6656C174.42 32.0773 181.188 34.4775 181.188 34.4775L195.307 30.2405L208.083 38.6792Z" fill="#010101"/>
<path fill-rule="evenodd" clip-rule="evenodd" d="M210.463 46.9539C210.366 46.9539 210.271 46.9571 210.177 46.9631C209.931 46.9783 209.723 46.7873 209.728 46.5396C209.729 46.4699 209.73 46.3997 209.73 46.3294C209.73 38.3965 201.925 31.9654 192.296 31.9654C182.668 31.9654 174.862 38.3965 174.862 46.3294C174.862 46.4043 174.863 46.4788 174.865 46.5531C174.87 46.8034 174.657 46.9972 174.41 46.974C174.27 46.9608 174.127 46.9539 173.982 46.9539C171.746 46.9539 169.933 48.4871 169.933 50.3786C169.933 52.2702 171.746 53.8033 173.982 53.8033C174.89 53.8033 175.726 53.5493 176.4 53.1223C176.611 52.9887 176.884 53.0441 177.023 53.2522C179.371 56.7612 183.445 59.3733 188.305 60.3112C188.724 60.3926 189.018 60.7751 188.994 61.2044L188.532 69.3045H196.061L195.599 61.2044C195.575 60.7751 195.868 60.3924 196.288 60.3112C201.12 59.3788 205.176 56.791 207.53 53.3124C207.665 53.1123 207.926 53.0521 208.133 53.1757C208.792 53.5699 209.594 53.8033 210.463 53.8033C212.699 53.8033 214.512 52.2702 214.512 50.3786C214.512 48.4871 212.699 46.9539 210.463 46.9539ZM209.728 46.5396C209.729 46.4696 209.731 46.3997 209.731 46.3294C209.731 38.3965 201.925 31.9655 192.297 31.9655C182.668 31.9655 174.863 38.3965 174.863 46.3294C174.863 46.404 174.863 46.4788 174.865 46.5531C174.867 46.654 174.833 46.7446 174.776 46.8166L174.773 46.9106C174.773 46.9106 189.062 45.2405 191.326 37.3591C191.326 37.3591 201.868 48.2107 210.177 46.9631C209.931 46.9783 209.723 46.7873 209.728 46.5396Z" fill="#F7D3BB"/>
<path fill-rule="evenodd" clip-rule="evenodd" d="M215.4 35.0824C212.615 24.6833 196.95 24.3329 189.988 25.9687C183.025 27.6045 169.903 29.2153 176.875 34.7317C183.374 39.8728 218.185 45.4812 215.4 35.0824Z" fill="#2F6858"/>
<path fill-rule="evenodd" clip-rule="evenodd" d="M195.785 31.1881C195.998 31.3413 196.285 31.3344 196.489 31.1704C197.11 30.6712 198.475 29.5125 197.953 29.3809C197.286 29.2129 195.333 29.3359 195.308 30.2405C195.295 30.7196 195.546 31.0155 195.785 31.1881Z" fill="#5BA092"/>
<path fill-rule="evenodd" clip-rule="evenodd" d="M182.366 49.8842C182.2 50.0522 181.931 50.0522 181.765 49.8842C181.6 49.7163 181.6 49.4439 181.765 49.276C181.978 49.0608 182.354 48.7515 182.869 48.4441C184.866 47.2517 187.094 47.2082 189.251 49.0735C189.429 49.2277 189.45 49.4992 189.298 49.6798C189.146 49.8605 188.878 49.8819 188.699 49.7277C186.85 48.1279 185.011 48.1638 183.3 49.1853C183.038 49.3413 182.804 49.5084 182.602 49.6749C182.483 49.7727 182.403 49.8465 182.366 49.8842Z" fill="#010101"/>
<path fill-rule="evenodd" clip-rule="evenodd" d="M194.604 49.7978C194.485 50.0026 194.225 50.0713 194.023 49.951C193.821 49.8308 193.753 49.5672 193.872 49.3624C194.025 49.0977 194.31 48.7198 194.726 48.3422C196.405 46.8169 198.577 46.8169 201.004 49.276C201.17 49.4439 201.17 49.7163 201.004 49.8842C200.838 50.0522 200.57 50.0522 200.404 49.8842C198.303 47.7556 196.644 47.7556 195.292 48.9829C195.092 49.1644 194.918 49.3596 194.771 49.5543C194.685 49.6687 194.629 49.7548 194.604 49.7978Z" fill="#010101"/>
<path fill-rule="evenodd" clip-rule="evenodd" d="M184.823 52.6011H195.57C195.814 52.6011 196.008 52.8091 195.994 53.056C195.983 53.2413 195.943 53.5487 195.852 53.9388C195.703 54.5855 195.462 55.2324 195.11 55.8392C194.075 57.6212 192.309 58.6818 189.702 58.6398C187.476 58.604 185.983 57.5398 185.126 55.8143C184.825 55.2086 184.625 54.5639 184.506 53.9198C184.434 53.532 184.405 53.2269 184.399 53.044C184.392 52.8016 184.584 52.6011 184.823 52.6011Z" fill="#E74B33"/>
<path fill-rule="evenodd" clip-rule="evenodd" d="M186.177 56.1447C186.343 56.098 186.531 56.0515 186.737 56.0082C187.748 55.7956 188.798 55.7338 189.793 55.9171C190.931 56.1269 191.888 56.6461 192.583 57.5321C192.754 57.7495 192.679 58.0712 192.431 58.1892C192.297 58.2529 192.064 58.3422 191.749 58.4298C190.098 58.8882 188.065 58.7841 186.557 57.6106C186.314 57.4211 186.06 57.1683 185.809 56.9358C185.569 56.7144 185.653 56.3139 185.96 56.2101C186.002 56.196 186.075 56.1732 186.177 56.1447Z" fill="#F3705A"/>
<path fill-rule="evenodd" clip-rule="evenodd" d="M159.723 79.2198C151.712 92.4372 146.169 128.504 145.419 148.62C144.681 168.44 144.052 174.943 151.638 176.725L150.758 182.355C150.758 182.355 161.01 184.781 164.57 184.781L165.282 178.325C165.282 178.325 175.142 181.043 174.152 150.349C173.173 119.992 173.117 125.653 173.117 125.653C173.117 125.653 206.231 126.606 220.472 124.998C220.472 124.998 222.313 142.253 242.607 134.394C262.902 126.535 277.5 111.889 277.5 111.889C277.5 111.889 284.099 105.547 280.894 99.4738L287.125 95.0086C287.125 95.0086 282.87 87.2984 279.114 83.3986L271.993 87.8639C271.993 87.8639 265.548 78.8006 246.047 99.6393L236.021 110.103C236.021 110.103 230.977 70.1675 200.697 69.4696C196.714 69.3779 167.734 66.0022 159.723 79.2198Z" fill="#010101"/>
<mask id="mask1_66_8" style="mask-type:luminance" maskUnits="userSpaceOnUse" x="145" y="69" width="143" height="116">
<path fill-rule="evenodd" clip-rule="evenodd" d="M159.723 79.2198C151.712 92.4372 146.169 128.504 145.419 148.62C144.681 168.44 144.052 174.943 151.638 176.725L150.758 182.355C150.758 182.355 161.01 184.781 164.57 184.781L165.282 178.325C165.282 178.325 175.142 181.043 174.152 150.349C173.173 119.992 173.117 125.653 173.117 125.653C173.117 125.653 206.231 126.606 220.472 124.998C220.472 124.998 222.313 142.253 242.607 134.394C262.902 126.535 277.5 111.889 277.5 111.889C277.5 111.889 284.099 105.547 280.894 99.4738L287.125 95.0086C287.125 95.0086 282.87 87.2984 279.114 83.3986L271.993 87.8639C271.993 87.8639 265.548 78.8006 246.047 99.6393L236.021 110.103C236.021 110.103 230.977 70.1675 200.697 69.4696C196.714 69.3779 167.734 66.0022 159.723 79.2198Z" fill="white"/>
</mask>
<g mask="url(#mask1_66_8)">
<path fill-rule="evenodd" clip-rule="evenodd" d="M132.237 70.5532C132.008 70.6111 131.868 70.8448 131.926 71.075L132.623 73.8557C132.681 74.086 132.914 74.2259 133.144 74.168C133.373 74.11 133.513 73.8761 133.455 73.6458L132.757 70.8651C132.7 70.6349 132.467 70.4953 132.237 70.5532ZM194.383 72.0932C194.291 71.8744 194.04 71.7718 193.822 71.8641L191.189 72.978C190.97 73.0701 190.868 73.3224 190.96 73.5412C191.052 73.7602 191.303 73.8629 191.522 73.7706L194.155 72.6566C194.373 72.5643 194.475 72.3123 194.383 72.0932ZM142.021 75.9956C142.021 76.233 142.213 76.4257 142.45 76.4257H145.307C145.544 76.4257 145.736 76.233 145.736 75.9956C145.736 75.7579 145.544 75.5655 145.307 75.5655H142.45C142.213 75.5655 142.021 75.7579 142.021 75.9956ZM173.608 76.9854C173.447 77.1594 173.457 77.4315 173.631 77.5932L175.725 79.5444C175.899 79.7058 176.17 79.6958 176.331 79.5218C176.492 79.3477 176.482 79.0756 176.308 78.9139L174.214 76.963C174.041 76.8013 173.77 76.8113 173.608 76.9854ZM137.02 114.561C136.783 114.561 136.591 114.368 136.591 114.131C136.591 113.893 136.783 113.7 137.02 113.7H139.878C140.114 113.7 140.306 113.893 140.306 114.131C140.306 114.368 140.114 114.561 139.878 114.561H137.02ZM176.029 122.446C176.029 122.683 176.221 122.876 176.457 122.876H179.315C179.552 122.876 179.744 122.683 179.744 122.446C179.744 122.208 179.552 122.016 179.315 122.016H176.457C176.221 122.016 176.029 122.208 176.029 122.446ZM153.017 83.0465C153.235 82.9542 153.486 83.0568 153.578 83.2756C153.67 83.4947 153.568 83.7467 153.35 83.839L150.717 84.953C150.498 85.0453 150.247 84.9427 150.155 84.7236C150.063 84.5048 150.165 84.2525 150.383 84.1605L153.017 83.0465ZM193.016 91.5908C192.924 91.372 192.672 91.2693 192.454 91.3617L189.821 92.4756C189.603 92.5676 189.501 92.82 189.593 93.0388C189.685 93.2578 189.936 93.3605 190.154 93.2681L192.787 92.1542C193.006 92.0619 193.108 91.8098 193.016 91.5908ZM147.587 121.181C147.805 121.089 148.057 121.192 148.149 121.411C148.241 121.63 148.138 121.882 147.92 121.974L145.287 123.088C145.068 123.18 144.817 123.078 144.725 122.859C144.633 122.64 144.735 122.387 144.954 122.295L147.587 121.181ZM160.641 74.6339C160.597 74.4002 160.751 74.1754 160.983 74.1315C161.216 74.0877 161.44 74.2411 161.484 74.4745L162.013 77.2924C162.056 77.5258 161.903 77.7506 161.67 77.7945C161.438 77.8387 161.214 77.685 161.17 77.4516L160.641 74.6339ZM201.127 83.8878C200.895 83.9319 200.741 84.1567 200.785 84.3901L201.314 87.2078C201.358 87.4415 201.582 87.5949 201.814 87.551C202.047 87.5072 202.2 87.2824 202.157 87.0487L201.628 84.231C201.584 83.9976 201.36 83.8439 201.127 83.8878ZM155.918 114.21C155.874 113.977 156.027 113.752 156.26 113.708C156.492 113.664 156.716 113.817 156.76 114.051L157.289 116.869C157.333 117.102 157.18 117.327 156.947 117.371C156.714 117.415 156.49 117.261 156.447 117.028L155.918 114.21ZM195.697 122.023C195.465 122.067 195.312 122.292 195.356 122.525L195.884 125.343C195.928 125.576 196.152 125.73 196.385 125.686C196.617 125.642 196.77 125.417 196.727 125.184L196.198 122.366C196.154 122.133 195.93 121.979 195.697 122.023ZM145.283 93.8187C145.258 93.5824 145.43 93.3711 145.665 93.3467C145.901 93.3223 146.111 93.4941 146.136 93.7303L146.429 96.5824C146.454 96.8187 146.282 97.03 146.047 97.0544C145.811 97.0788 145.601 96.907 145.577 96.6707L145.283 93.8187ZM185.103 101.662C184.867 101.686 184.696 101.898 184.72 102.134L185.014 104.986C185.038 105.222 185.249 105.394 185.484 105.37C185.72 105.345 185.891 105.134 185.867 104.898L185.573 102.045C185.549 101.809 185.338 101.637 185.103 101.662ZM177.497 86.3542C177.473 86.118 177.644 85.9066 177.879 85.8823C178.115 85.8579 178.325 86.0297 178.35 86.2659L178.643 89.118C178.668 89.3543 178.497 89.5656 178.261 89.59C178.026 89.6143 177.815 89.4426 177.791 89.2063L177.497 86.3542ZM140.235 129.178C140 129.203 139.829 129.414 139.853 129.65L140.147 132.502C140.171 132.739 140.382 132.91 140.617 132.886C140.853 132.862 141.024 132.65 140.999 132.414L140.706 129.562C140.681 129.326 140.471 129.154 140.235 129.178ZM156.141 96.1561C155.939 96.031 155.877 95.7661 156.002 95.564C156.126 95.3621 156.39 95.2996 156.592 95.4246L159.022 96.9331C159.223 97.0581 159.286 97.3231 159.161 97.5252C159.037 97.7271 158.772 97.7896 158.571 97.6645L156.141 96.1561ZM195.439 103.879C195.315 104.081 195.377 104.346 195.578 104.471L198.009 105.98C198.21 106.105 198.474 106.042 198.599 105.84C198.723 105.638 198.661 105.373 198.46 105.248L196.029 103.74C195.828 103.615 195.564 103.677 195.439 103.879ZM132.616 92.4811C132.39 92.5536 132.149 92.4292 132.076 92.2029C132.004 91.9767 132.128 91.7347 132.354 91.6619L135.074 90.7856C135.3 90.7128 135.541 90.8375 135.614 91.0635C135.686 91.2897 135.562 91.532 135.336 91.6045L132.616 92.4811ZM171.514 100.518C171.586 100.744 171.828 100.869 172.053 100.796L174.774 99.9197C175 99.8471 175.124 99.6048 175.051 99.3786C174.979 99.1527 174.737 99.0279 174.512 99.1008L171.791 99.977C171.566 100.05 171.442 100.292 171.514 100.518ZM127.615 129.889C127.389 129.961 127.148 129.837 127.075 129.611C127.003 129.385 127.127 129.142 127.353 129.07L130.074 128.193C130.299 128.121 130.54 128.245 130.613 128.471C130.685 128.698 130.561 128.94 130.336 129.012L127.615 129.889ZM128.068 108.206C128.01 107.976 128.149 107.742 128.379 107.684C128.609 107.626 128.842 107.766 128.899 107.997L129.597 110.777C129.654 111.007 129.515 111.241 129.286 111.299C129.056 111.357 128.823 111.217 128.765 110.987L128.068 108.206ZM166.388 116.573C166.158 116.631 166.019 116.865 166.077 117.095L166.774 119.876C166.832 120.106 167.065 120.246 167.294 120.188C167.524 120.13 167.663 119.896 167.605 119.666L166.908 116.885C166.85 116.655 166.617 116.515 166.388 116.573ZM182.08 129.998C182.023 129.768 182.162 129.534 182.391 129.476C182.621 129.418 182.854 129.558 182.912 129.788L183.609 132.569C183.667 132.799 183.527 133.033 183.298 133.09C183.068 133.149 182.835 133.009 182.778 132.779L182.08 129.998ZM165.229 94.8302C165.304 95.0553 165.548 95.176 165.772 95.1L168.479 94.1819C168.704 94.106 168.824 93.8619 168.748 93.6369C168.672 93.4118 168.429 93.2911 168.205 93.3671L165.498 94.2852C165.273 94.3611 165.153 94.6054 165.229 94.8302ZM204.21 100.682C203.985 100.758 203.742 100.637 203.666 100.412C203.591 100.187 203.711 99.9432 203.935 99.8669L206.642 98.9488C206.867 98.8728 207.11 98.9935 207.186 99.2186C207.262 99.4437 207.141 99.6877 206.917 99.7637L204.21 100.682ZM159.656 132.526C159.732 132.751 159.975 132.872 160.2 132.795L162.907 131.877C163.131 131.801 163.252 131.557 163.176 131.332C163.1 131.107 162.857 130.986 162.632 131.062L159.925 131.981C159.701 132.057 159.581 132.301 159.656 132.526ZM135.562 99.8718C135.499 99.643 135.633 99.4061 135.861 99.3428C136.089 99.2797 136.325 99.4142 136.388 99.6433L137.148 102.407C137.211 102.636 137.077 102.873 136.849 102.936C136.621 102.999 136.385 102.865 136.322 102.636L135.562 99.8718ZM175.299 107.658C175.07 107.721 174.936 107.958 175 108.187L175.759 110.951C175.822 111.18 176.058 111.315 176.287 111.251C176.515 111.188 176.649 110.951 176.586 110.722L175.826 107.958C175.763 107.729 175.527 107.595 175.299 107.658ZM148.96 112.654C148.778 112.807 148.508 112.782 148.356 112.6C148.204 112.418 148.229 112.146 148.41 111.994L150.604 110.156C150.786 110.005 151.056 110.029 151.208 110.211C151.36 110.393 151.335 110.665 151.154 110.817L148.96 112.654ZM187.794 120.915C187.945 121.097 188.215 121.122 188.397 120.97L190.591 119.132C190.773 118.98 190.797 118.708 190.645 118.526C190.494 118.344 190.223 118.32 190.041 118.472L187.848 120.309C187.666 120.462 187.642 120.733 187.794 120.915ZM163.384 110.795C163.148 110.816 162.94 110.641 162.919 110.404C162.898 110.168 163.073 109.959 163.308 109.938L166.155 109.685C166.391 109.664 166.599 109.839 166.62 110.076C166.641 110.312 166.466 110.521 166.231 110.542L163.384 110.795ZM202.357 118.72C202.378 118.956 202.586 119.131 202.822 119.11L205.668 118.857C205.904 118.836 206.078 118.627 206.057 118.391C206.037 118.154 205.829 117.979 205.592 118L202.746 118.253C202.51 118.274 202.336 118.483 202.357 118.72Z" fill="#B9B3B8"/>
<path fill-rule="evenodd" clip-rule="evenodd" d="M132.237 133.06C132.008 133.118 131.868 133.352 131.926 133.582L132.623 136.363C132.681 136.593 132.914 136.733 133.144 136.675C133.373 136.617 133.513 136.383 133.455 136.153L132.757 133.372C132.7 133.142 132.467 133.002 132.237 133.06ZM194.383 134.6C194.291 134.381 194.04 134.279 193.822 134.371L191.189 135.485C190.97 135.577 190.868 135.829 190.96 136.048C191.052 136.267 191.303 136.37 191.522 136.277L194.155 135.164C194.373 135.071 194.475 134.819 194.383 134.6ZM142.021 138.503C142.021 138.74 142.213 138.933 142.45 138.933H145.307C145.544 138.933 145.736 138.74 145.736 138.503C145.736 138.265 145.544 138.072 145.307 138.072H142.45C142.213 138.072 142.021 138.265 142.021 138.503ZM173.608 139.492C173.447 139.666 173.457 139.938 173.631 140.1L175.725 142.051C175.899 142.213 176.17 142.203 176.331 142.029C176.492 141.855 176.482 141.583 176.308 141.421L174.214 139.47C174.041 139.308 173.77 139.318 173.608 139.492ZM137.02 177.068C136.783 177.068 136.591 176.875 136.591 176.637C136.591 176.4 136.783 176.207 137.02 176.207H139.878C140.114 176.207 140.306 176.4 140.306 176.637C140.306 176.875 140.114 177.068 139.878 177.068H137.02ZM176.029 184.953C176.029 185.19 176.221 185.383 176.457 185.383H179.315C179.552 185.383 179.744 185.19 179.744 184.953C179.744 184.715 179.552 184.523 179.315 184.523H176.457C176.221 184.523 176.029 184.715 176.029 184.953ZM153.017 145.553C153.235 145.461 153.486 145.564 153.578 145.783C153.67 146.002 153.568 146.254 153.35 146.346L150.717 147.46C150.498 147.552 150.247 147.45 150.155 147.231C150.063 147.012 150.165 146.759 150.383 146.667L153.017 145.553ZM193.016 154.098C192.924 153.879 192.672 153.776 192.454 153.869L189.821 154.983C189.603 155.075 189.501 155.327 189.593 155.546C189.685 155.765 189.936 155.867 190.154 155.775L192.787 154.661C193.006 154.569 193.108 154.317 193.016 154.098ZM147.587 183.688C147.805 183.596 148.057 183.699 148.149 183.918C148.241 184.137 148.138 184.389 147.92 184.481L145.287 185.595C145.068 185.687 144.817 185.585 144.725 185.366C144.633 185.147 144.735 184.894 144.954 184.802L147.587 183.688ZM160.641 137.141C160.597 136.907 160.751 136.682 160.983 136.638C161.216 136.595 161.44 136.748 161.484 136.981L162.013 139.799C162.056 140.033 161.903 140.258 161.67 140.301C161.438 140.346 161.214 140.192 161.17 139.959L160.641 137.141ZM201.127 146.395C200.895 146.439 200.741 146.664 200.785 146.897L201.314 149.715C201.358 149.948 201.582 150.102 201.814 150.058C202.047 150.014 202.2 149.789 202.157 149.556L201.628 146.738C201.584 146.505 201.36 146.351 201.127 146.395ZM155.918 176.717C155.874 176.484 156.027 176.259 156.26 176.215C156.492 176.171 156.716 176.324 156.76 176.558L157.289 179.375C157.333 179.609 157.18 179.834 156.947 179.878C156.714 179.922 156.49 179.768 156.447 179.535L155.918 176.717ZM195.697 184.53C195.465 184.574 195.312 184.799 195.356 185.032L195.884 187.85C195.928 188.083 196.152 188.237 196.385 188.193C196.617 188.149 196.77 187.924 196.727 187.691L196.198 184.873C196.154 184.64 195.93 184.486 195.697 184.53ZM145.283 156.326C145.258 156.089 145.43 155.878 145.665 155.854C145.901 155.829 146.111 156.001 146.136 156.237L146.429 159.089C146.454 159.326 146.282 159.537 146.047 159.561C145.811 159.586 145.601 159.414 145.577 159.178L145.283 156.326ZM185.103 164.169C184.867 164.193 184.696 164.404 184.72 164.641L185.014 167.493C185.038 167.729 185.249 167.901 185.484 167.876C185.72 167.852 185.891 167.641 185.867 167.405L185.573 164.552C185.549 164.316 185.338 164.144 185.103 164.169ZM177.497 148.861C177.473 148.625 177.644 148.414 177.879 148.389C178.115 148.365 178.325 148.537 178.35 148.773L178.643 151.625C178.668 151.861 178.497 152.073 178.261 152.097C178.026 152.121 177.815 151.95 177.791 151.713L177.497 148.861ZM140.235 191.685C140 191.71 139.829 191.921 139.853 192.157L140.147 195.009C140.171 195.246 140.382 195.417 140.617 195.393C140.853 195.369 141.024 195.157 140.999 194.921L140.706 192.069C140.681 191.833 140.471 191.661 140.235 191.685ZM156.141 158.663C155.939 158.538 155.877 158.273 156.002 158.071C156.126 157.869 156.39 157.807 156.592 157.932L159.022 159.44C159.223 159.565 159.286 159.83 159.161 160.032C159.037 160.234 158.772 160.296 158.571 160.171L156.141 158.663ZM195.439 166.386C195.315 166.588 195.377 166.853 195.578 166.978L198.009 168.487C198.21 168.612 198.474 168.549 198.599 168.347C198.723 168.145 198.661 167.88 198.46 167.755L196.029 166.247C195.828 166.122 195.564 166.184 195.439 166.386ZM132.616 154.988C132.39 155.061 132.149 154.936 132.076 154.71C132.004 154.484 132.128 154.242 132.354 154.169L135.074 153.293C135.3 153.22 135.541 153.344 135.614 153.57C135.686 153.797 135.562 154.039 135.336 154.111L132.616 154.988ZM171.514 163.025C171.586 163.251 171.828 163.376 172.053 163.303L174.774 162.427C175 162.354 175.124 162.112 175.051 161.886C174.979 161.66 174.737 161.535 174.512 161.608L171.791 162.484C171.566 162.557 171.442 162.799 171.514 163.025ZM127.615 192.396C127.389 192.468 127.148 192.344 127.075 192.118C127.003 191.891 127.127 191.649 127.353 191.577L130.074 190.7C130.299 190.628 130.54 190.752 130.613 190.978C130.685 191.204 130.561 191.446 130.336 191.519L127.615 192.396ZM128.068 170.713C128.01 170.483 128.149 170.249 128.379 170.191C128.609 170.133 128.842 170.273 128.899 170.503L129.597 173.284C129.654 173.514 129.515 173.748 129.286 173.806C129.056 173.864 128.823 173.724 128.765 173.494L128.068 170.713ZM166.388 179.08C166.158 179.138 166.019 179.372 166.077 179.602L166.774 182.383C166.832 182.613 167.065 182.753 167.294 182.695C167.524 182.637 167.663 182.403 167.605 182.173L166.908 179.392C166.85 179.162 166.617 179.022 166.388 179.08ZM182.08 192.505C182.023 192.275 182.162 192.041 182.391 191.983C182.621 191.925 182.854 192.065 182.912 192.295L183.609 195.076C183.667 195.306 183.527 195.54 183.298 195.597C183.068 195.656 182.835 195.516 182.778 195.285L182.08 192.505ZM165.229 157.337C165.304 157.562 165.548 157.683 165.772 157.607L168.479 156.689C168.704 156.613 168.824 156.369 168.748 156.144C168.672 155.919 168.429 155.798 168.205 155.874L165.498 156.792C165.273 156.868 165.153 157.112 165.229 157.337ZM204.21 163.189C203.985 163.265 203.742 163.144 203.666 162.919C203.591 162.694 203.711 162.45 203.935 162.374L206.642 161.456C206.867 161.38 207.11 161.5 207.186 161.726C207.262 161.951 207.141 162.195 206.917 162.271L204.21 163.189ZM159.656 195.033C159.732 195.258 159.975 195.379 160.2 195.302L162.907 194.384C163.131 194.308 163.252 194.064 163.176 193.839C163.1 193.614 162.857 193.493 162.632 193.569L159.925 194.488C159.701 194.564 159.581 194.808 159.656 195.033ZM135.562 162.379C135.499 162.15 135.633 161.913 135.861 161.85C136.089 161.787 136.325 161.921 136.388 162.15L137.148 164.914C137.211 165.143 137.077 165.38 136.849 165.443C136.621 165.506 136.385 165.372 136.322 165.143L135.562 162.379ZM175.299 170.165C175.07 170.228 174.936 170.465 175 170.694L175.759 173.458C175.822 173.687 176.058 173.822 176.287 173.758C176.515 173.695 176.649 173.458 176.586 173.229L175.826 170.465C175.763 170.236 175.527 170.102 175.299 170.165ZM148.96 175.161C148.778 175.314 148.508 175.289 148.356 175.107C148.204 174.925 148.229 174.653 148.41 174.501L150.604 172.663C150.786 172.511 151.056 172.536 151.208 172.718C151.36 172.9 151.335 173.171 151.154 173.324L148.96 175.161ZM187.794 183.422C187.945 183.604 188.215 183.629 188.397 183.477L190.591 181.639C190.773 181.487 190.797 181.215 190.645 181.033C190.494 180.851 190.223 180.827 190.041 180.979L187.848 182.816C187.666 182.968 187.642 183.24 187.794 183.422ZM163.384 173.302C163.148 173.323 162.94 173.148 162.919 172.911C162.898 172.675 163.073 172.466 163.308 172.445L166.155 172.192C166.391 172.171 166.599 172.346 166.62 172.583C166.641 172.819 166.466 173.028 166.231 173.049L163.384 173.302ZM202.357 181.227C202.378 181.463 202.586 181.638 202.822 181.617L205.668 181.364C205.904 181.343 206.078 181.134 206.057 180.898C206.037 180.661 205.829 180.486 205.592 180.507L202.746 180.76C202.51 180.781 202.336 180.99 202.357 181.227Z" fill="#B9B3B8"/>
<path fill-rule="evenodd" clip-rule="evenodd" d="M212.255 70.5532C212.026 70.6111 211.886 70.8448 211.944 71.075L212.641 73.8557C212.699 74.086 212.932 74.2259 213.162 74.168C213.391 74.11 213.531 73.8761 213.473 73.6458L212.776 70.8651C212.718 70.6349 212.485 70.4953 212.255 70.5532ZM274.402 72.0932C274.309 71.8744 274.058 71.7718 273.84 71.8641L271.207 72.978C270.988 73.0701 270.886 73.3224 270.978 73.5412C271.07 73.7602 271.322 73.8629 271.54 73.7706L274.173 72.6566C274.391 72.5643 274.494 72.3123 274.402 72.0932ZM222.039 75.9956C222.039 76.233 222.231 76.4257 222.468 76.4257H225.326C225.562 76.4257 225.754 76.233 225.754 75.9956C225.754 75.7579 225.562 75.5655 225.326 75.5655H222.468C222.231 75.5655 222.039 75.7579 222.039 75.9956ZM253.627 76.9854C253.466 77.1594 253.476 77.4315 253.649 77.5932L255.743 79.5444C255.917 79.7058 256.188 79.6958 256.349 79.5218C256.51 79.3477 256.5 79.0756 256.327 78.9139L254.232 76.963C254.059 76.8013 253.788 76.8113 253.627 76.9854ZM217.038 114.561C216.801 114.561 216.609 114.368 216.609 114.131C216.609 113.893 216.801 113.7 217.038 113.7H219.896C220.133 113.7 220.324 113.893 220.324 114.131C220.324 114.368 220.133 114.561 219.896 114.561H217.038ZM256.047 122.446C256.047 122.683 256.239 122.876 256.475 122.876H259.333C259.57 122.876 259.762 122.683 259.762 122.446C259.762 122.208 259.57 122.016 259.333 122.016H256.475C256.239 122.016 256.047 122.208 256.047 122.446ZM233.035 83.0465C233.253 82.9542 233.505 83.0568 233.597 83.2756C233.689 83.4947 233.586 83.7467 233.368 83.839L230.735 84.953C230.516 85.0453 230.265 84.9427 230.173 84.7236C230.081 84.5048 230.183 84.2525 230.402 84.1605L233.035 83.0465ZM273.034 91.5908C272.942 91.372 272.691 91.2693 272.473 91.3617L269.839 92.4756C269.621 92.5676 269.519 92.82 269.611 93.0388C269.703 93.2578 269.954 93.3605 270.172 93.2681L272.805 92.1542C273.024 92.0619 273.126 91.8098 273.034 91.5908ZM227.605 121.181C227.823 121.089 228.075 121.192 228.167 121.411C228.259 121.63 228.156 121.882 227.938 121.974L225.305 123.088C225.087 123.18 224.835 123.078 224.743 122.859C224.651 122.64 224.754 122.387 224.972 122.295L227.605 121.181ZM240.659 74.6339C240.616 74.4002 240.769 74.1754 241.001 74.1315C241.234 74.0877 241.458 74.2411 241.502 74.4745L242.031 77.2924C242.074 77.5258 241.921 77.7506 241.689 77.7945C241.456 77.8387 241.232 77.685 241.188 77.4516L240.659 74.6339ZM281.145 83.8878C280.913 83.9319 280.76 84.1567 280.804 84.3901L281.332 87.2078C281.376 87.4415 281.6 87.5949 281.833 87.551C282.065 87.5072 282.218 87.2824 282.175 87.0487L281.646 84.231C281.602 83.9976 281.378 83.8439 281.145 83.8878ZM235.936 114.21C235.892 113.977 236.045 113.752 236.278 113.708C236.511 113.664 236.735 113.817 236.779 114.051L237.307 116.869C237.351 117.102 237.198 117.327 236.965 117.371C236.733 117.415 236.509 117.261 236.465 117.028L235.936 114.21ZM275.716 122.023C275.483 122.067 275.33 122.292 275.374 122.525L275.902 125.343C275.946 125.576 276.17 125.73 276.403 125.686C276.635 125.642 276.789 125.417 276.745 125.184L276.216 122.366C276.172 122.133 275.948 121.979 275.716 122.023ZM225.301 93.8187C225.277 93.5824 225.448 93.3711 225.683 93.3467C225.919 93.3223 226.129 93.4941 226.154 93.7303L226.447 96.5824C226.472 96.8187 226.301 97.03 226.065 97.0544C225.83 97.0788 225.619 96.907 225.595 96.6707L225.301 93.8187ZM265.121 101.662C264.885 101.686 264.714 101.898 264.738 102.134L265.032 104.986C265.057 105.222 265.267 105.394 265.503 105.37C265.738 105.345 265.909 105.134 265.885 104.898L265.592 102.045C265.567 101.809 265.356 101.637 265.121 101.662ZM257.515 86.3542C257.491 86.118 257.662 85.9066 257.897 85.8823C258.133 85.8579 258.344 86.0297 258.368 86.2659L258.662 89.118C258.686 89.3543 258.515 89.5656 258.279 89.59C258.044 89.6143 257.833 89.4426 257.809 89.2063L257.515 86.3542ZM220.254 129.178C220.018 129.203 219.847 129.414 219.871 129.65L220.165 132.502C220.189 132.739 220.4 132.91 220.635 132.886C220.871 132.862 221.042 132.65 221.018 132.414L220.724 129.562C220.7 129.326 220.489 129.154 220.254 129.178ZM236.159 96.1561C235.958 96.031 235.895 95.7661 236.02 95.564C236.145 95.3621 236.409 95.2996 236.61 95.4246L239.04 96.9331C239.242 97.0581 239.304 97.3231 239.179 97.5252C239.055 97.7271 238.791 97.7896 238.589 97.6645L236.159 96.1561ZM275.457 103.879C275.333 104.081 275.395 104.346 275.596 104.471L278.027 105.98C278.228 106.105 278.492 106.042 278.617 105.84C278.741 105.638 278.679 105.373 278.478 105.248L276.048 103.74C275.846 103.615 275.582 103.677 275.457 103.879ZM212.634 92.4811C212.408 92.5536 212.167 92.4292 212.095 92.2029C212.022 91.9767 212.146 91.7347 212.372 91.6619L215.093 90.7856C215.318 90.7128 215.56 90.8375 215.632 91.0635C215.704 91.2897 215.58 91.532 215.355 91.6045L212.634 92.4811ZM251.532 100.518C251.604 100.744 251.846 100.869 252.071 100.796L254.792 99.9197C255.018 99.8471 255.142 99.6048 255.069 99.3786C254.997 99.1527 254.756 99.0279 254.53 99.1008L251.809 99.977C251.584 100.05 251.46 100.292 251.532 100.518ZM207.633 129.889C207.407 129.961 207.166 129.837 207.094 129.611C207.021 129.385 207.145 129.142 207.371 129.07L210.092 128.193C210.317 128.121 210.558 128.245 210.631 128.471C210.703 128.698 210.579 128.94 210.354 129.012L207.633 129.889ZM208.086 108.206C208.028 107.976 208.168 107.742 208.397 107.684C208.627 107.626 208.86 107.766 208.918 107.997L209.615 110.777C209.673 111.007 209.533 111.241 209.304 111.299C209.074 111.357 208.841 111.217 208.783 110.987L208.086 108.206ZM246.406 116.573C246.176 116.631 246.037 116.865 246.095 117.095L246.792 119.876C246.85 120.106 247.083 120.246 247.313 120.188C247.542 120.13 247.681 119.896 247.623 119.666L246.926 116.885C246.868 116.655 246.635 116.515 246.406 116.573ZM262.098 129.998C262.041 129.768 262.18 129.534 262.409 129.476C262.639 129.418 262.872 129.558 262.93 129.788L263.627 132.569C263.685 132.799 263.546 133.033 263.316 133.09C263.086 133.149 262.853 133.009 262.796 132.779L262.098 129.998ZM245.247 94.8302C245.323 95.0553 245.566 95.176 245.79 95.1L248.498 94.1819C248.722 94.106 248.842 93.8619 248.766 93.6369C248.691 93.4118 248.447 93.2911 248.223 93.3671L245.516 94.2852C245.291 94.3611 245.171 94.6054 245.247 94.8302ZM284.228 100.682C284.003 100.758 283.76 100.637 283.684 100.412C283.609 100.187 283.729 99.9432 283.953 99.8669L286.661 98.9488C286.885 98.8728 287.128 98.9935 287.204 99.2186C287.28 99.4437 287.159 99.6877 286.935 99.7637L284.228 100.682ZM239.674 132.526C239.75 132.751 239.993 132.872 240.218 132.795L242.925 131.877C243.149 131.801 243.27 131.557 243.194 131.332C243.118 131.107 242.875 130.986 242.651 131.062L239.943 131.981C239.719 132.057 239.599 132.301 239.674 132.526ZM215.58 99.8718C215.517 99.643 215.651 99.4061 215.879 99.3428C216.107 99.2797 216.343 99.4142 216.407 99.6433L217.167 102.407C217.229 102.636 217.095 102.873 216.867 102.936C216.639 102.999 216.403 102.865 216.34 102.636L215.58 99.8718ZM255.317 107.658C255.089 107.721 254.955 107.958 255.018 108.187L255.778 110.951C255.84 111.18 256.076 111.315 256.305 111.251C256.533 111.188 256.667 110.951 256.604 110.722L255.844 107.958C255.781 107.729 255.545 107.595 255.317 107.658ZM228.978 112.654C228.796 112.807 228.526 112.782 228.374 112.6C228.222 112.418 228.247 112.146 228.429 111.994L230.622 110.156C230.804 110.005 231.074 110.029 231.226 110.211C231.378 110.393 231.353 110.665 231.172 110.817L228.978 112.654ZM267.812 120.915C267.963 121.097 268.234 121.122 268.415 120.97L270.609 119.132C270.791 118.98 270.815 118.708 270.664 118.526C270.512 118.344 270.241 118.32 270.06 118.472L267.866 120.309C267.684 120.462 267.66 120.733 267.812 120.915ZM243.402 110.795C243.166 110.816 242.958 110.641 242.938 110.404C242.917 110.168 243.091 109.959 243.326 109.938L246.173 109.685C246.409 109.664 246.617 109.839 246.638 110.076C246.659 110.312 246.485 110.521 246.249 110.542L243.402 110.795ZM282.375 118.72C282.396 118.956 282.604 119.131 282.84 119.11L285.686 118.857C285.922 118.836 286.096 118.627 286.076 118.391C286.055 118.154 285.847 117.979 285.611 118L282.764 118.253C282.528 118.274 282.354 118.483 282.375 118.72Z" fill="#B9B3B8"/>
</g>
<path fill-rule="evenodd" clip-rule="evenodd" d="M170.444 124.947C170.049 124.842 169.731 124.731 169.483 124.621C169.433 124.599 169.391 124.579 169.355 124.561L170.041 100.081C170.045 99.9228 169.921 99.7909 169.763 99.7863C169.605 99.782 169.474 99.9068 169.469 100.065L168.779 124.719C168.776 124.818 168.824 124.911 168.906 124.966C169.118 125.108 169.566 125.307 170.297 125.502C171.058 125.704 171.986 125.856 173.096 125.939C173.254 125.951 173.391 125.832 173.403 125.674C173.414 125.517 173.296 125.379 173.139 125.367C172.063 125.287 171.169 125.14 170.444 124.947ZM220.532 125.279C220.687 125.246 220.785 125.093 220.752 124.938L215.916 102.298C215.883 102.143 215.731 102.045 215.577 102.078C215.422 102.111 215.324 102.263 215.357 102.418L220.193 125.058C220.226 125.213 220.378 125.312 220.532 125.279Z" fill="#B9B3B8"/>
<path fill-rule="evenodd" clip-rule="evenodd" d="M279.114 83.6854C279.114 83.6854 278.787 77.7148 286.944 73.1234C286.944 73.1234 290.508 70.995 293.04 71.0231C293.884 71.0326 294.543 71.2058 294.907 72.1196L306.527 67.1015C307.024 66.9028 307.555 66.7916 308.089 66.8159C308.776 66.8469 309.541 67.3954 309.487 68.3342C309.308 71.4802 304.314 73.7895 304.314 73.7895C304.314 73.7895 305.343 74.3056 305.686 75.8536C306.037 77.4398 305.515 78.649 305.515 78.649C305.515 78.649 306.582 78.9773 306.789 80.7146C306.866 81.354 306.852 82.5522 306.198 83.1475C306.198 83.1475 308.223 84.2689 307.022 87.2549C307.022 87.2549 304.421 92.3844 296.716 91.7402C296.716 91.7402 292.222 94.5016 287.125 95.2953C287.125 95.2953 281.544 85.5282 279.114 83.6854ZM150.758 182.641C148.061 185.507 147.057 190.929 147.057 190.929C147.057 190.929 140.64 202.284 140.494 206.007C140.299 210.963 143.877 209.336 143.877 209.336C143.463 211.357 143.669 211.991 145.074 212.622C145.999 213.038 147.482 211.591 147.482 211.591C148.127 214.731 149.752 213.991 150.252 213.764C150.269 213.756 150.284 213.749 150.299 213.743C151.393 213.254 153.249 209.827 153.249 209.827C152.583 214.411 156.81 214.116 157.001 213.734C157.191 213.353 158.59 206.72 158.59 206.72L164.57 185.068L157.412 184.094L150.758 182.641ZM199.227 69.3541C199.536 69.3541 191.766 76.5991 182.232 69.2701C182.232 69.2701 193.035 68.5237 199.227 69.3541Z" fill="#F7D3BB"/>
<path fill-rule="evenodd" clip-rule="evenodd" d="M289.305 84.0131C289.617 83.5185 289.8 82.4934 289.902 81.0518C289.973 80.0574 289.995 79.0246 289.989 78.1572C293.686 76.7081 295.187 74.5797 295.193 72.1201C295.193 71.9619 295.066 71.8331 294.908 71.8328C294.75 71.8323 294.622 71.9604 294.622 72.1187C294.616 74.3767 293.216 76.325 289.6 77.6927C289.487 77.7354 289.413 77.8447 289.415 77.9657C289.416 77.9846 289.416 78.0213 289.416 78.0744C289.424 78.9452 289.404 80.0009 289.332 81.011C289.237 82.3509 289.063 83.3241 288.822 83.7069C288.738 83.8408 288.778 84.0177 288.911 84.1023C289.045 84.1868 289.221 84.147 289.305 84.0131ZM304.568 73.6579C304.496 73.5171 304.324 73.462 304.183 73.5346L304.075 73.5905L303.933 73.6642L303.768 73.7491C303.437 73.9199 303.067 74.11 302.669 74.3151C301.53 74.9006 300.386 75.4863 299.311 76.0326L299.183 76.0976C296.792 77.3128 295.113 78.1458 294.479 78.423C292.757 79.1751 291.902 80.1701 291.82 81.2826C291.759 82.1092 292.171 82.947 292.685 83.327C293.243 83.7393 293.864 83.8299 295.15 83.5629C294.197 84.2643 293.624 85.0542 293.613 85.9428C293.598 87.1886 294.125 87.9312 294.998 88.2223C295.195 88.2876 295.395 88.3264 295.592 88.3438L295.577 88.3628C295.085 89.0142 294.887 89.7388 295.18 90.4808C295.466 91.204 295.959 91.69 296.627 91.9618C296.773 92.0211 296.939 91.9506 296.999 91.8038C297.058 91.657 296.988 91.4898 296.841 91.4302C296.316 91.2166 295.939 90.8444 295.712 90.2698C295.505 89.746 295.65 89.2167 296.033 88.7091C296.127 88.5844 296.228 88.472 296.329 88.374C296.358 88.3456 296.384 88.3218 296.405 88.3026C296.419 88.3 296.434 88.2971 296.45 88.294C296.548 88.2745 296.66 88.2509 296.787 88.2231C297.148 88.1431 297.55 88.0436 297.983 87.9229C299.219 87.578 300.455 87.1318 301.611 86.5733C302.568 86.1114 303.428 85.5907 304.168 85.0075C304.998 84.3537 305.595 83.8792 305.998 83.5549C306.14 83.4414 306.247 83.3542 306.325 83.2908C306.372 83.2518 306.399 83.2292 306.411 83.2191C306.532 83.1168 306.547 82.9358 306.445 82.8148C306.343 82.6941 306.163 82.6789 306.042 82.7813C306.033 82.789 306.008 82.8097 305.963 82.8464C305.887 82.9089 305.781 82.9946 305.641 83.1076C305.239 83.4305 304.644 83.9038 303.815 84.5564C303.11 85.1121 302.285 85.6116 301.363 86.0566C300.241 86.5991 299.035 87.0338 297.829 87.3704C297.407 87.4882 297.016 87.5854 296.664 87.6629C296.542 87.6901 296.433 87.7128 296.34 87.7311C296.323 87.7345 296.307 87.7377 296.293 87.7403C296.279 87.7429 296.267 87.7452 296.257 87.7472L296.234 87.7515L296.228 87.7526C296.225 87.7529 296.223 87.7535 296.22 87.7538C296.202 87.7572 296.172 87.7615 296.131 87.7661C295.828 87.7993 295.489 87.7819 295.179 87.6781C294.542 87.4656 294.173 86.946 294.185 85.9497C294.194 85.2019 294.792 84.4713 295.803 83.8069C296.172 83.5641 296.57 83.3485 296.968 83.1632C297.107 83.0981 297.236 83.0419 297.352 82.9943C297.391 82.9783 297.424 82.9651 297.449 82.9551C297.468 82.9479 297.482 82.9424 297.493 82.9384L297.498 82.9367C297.537 82.9249 297.576 82.9132 297.616 82.9012C300.105 82.1519 304.596 79.7807 305.697 78.87C305.818 78.7691 305.836 78.5885 305.735 78.4663C305.635 78.3442 305.455 78.327 305.333 78.4276C304.292 79.2889 299.869 81.6241 297.451 82.3521C294.518 83.2349 293.647 83.3264 293.024 82.865C292.664 82.5989 292.344 81.9486 292.39 81.3247C292.454 80.4485 293.164 79.6227 294.707 78.9486C295.357 78.665 297.037 77.8312 299.442 76.6092L299.57 76.5441C300.645 75.9973 301.79 75.4115 302.929 74.8254C303.328 74.6204 303.698 74.43 304.029 74.2591C304.145 74.1992 304.214 74.164 304.337 74.1003L304.445 74.0441C304.586 73.9716 304.641 73.7987 304.568 73.6579ZM155.849 201.622C155.902 201.473 156.066 201.395 156.214 201.448C156.363 201.501 156.441 201.665 156.388 201.814L153.519 209.923C153.466 210.072 153.303 210.15 153.154 210.097C153.005 210.044 152.927 209.88 152.98 209.731L155.849 201.622ZM152.267 202.151C152.13 202.073 151.955 202.122 151.878 202.26C151.868 202.276 151.85 202.309 151.824 202.356C151.78 202.434 151.729 202.525 151.672 202.627C151.508 202.921 151.326 203.25 151.13 203.607C150.569 204.627 150.009 205.667 149.486 206.667C149.385 206.86 149.286 207.05 149.19 207.236C148.187 209.175 147.493 210.652 147.211 211.5C147.161 211.651 147.241 211.813 147.391 211.863C147.541 211.913 147.703 211.832 147.753 211.682C148.022 210.871 148.709 209.411 149.697 207.5C149.793 207.315 149.891 207.126 149.992 206.934C150.513 205.938 151.072 204.901 151.63 203.884C151.826 203.528 152.008 203.2 152.171 202.907C152.228 202.805 152.278 202.715 152.322 202.637C152.348 202.59 152.366 202.558 152.375 202.542C152.453 202.404 152.404 202.229 152.267 202.151ZM147.301 200.731C147.39 200.601 147.568 200.568 147.698 200.658C147.828 200.748 147.861 200.926 147.772 201.057C147.762 201.071 147.742 201.1 147.713 201.146C147.663 201.223 147.604 201.315 147.539 201.423C147.35 201.732 147.139 202.101 146.912 202.528C146.26 203.752 145.608 205.197 145 206.854C144.698 207.674 144.414 208.529 144.151 209.417C144.106 209.569 143.947 209.655 143.796 209.61C143.644 209.565 143.558 209.406 143.603 209.254C143.87 208.354 144.157 207.487 144.463 206.655C145.081 204.973 145.744 203.504 146.408 202.258C146.64 201.821 146.857 201.442 147.051 201.123C147.12 201.011 147.181 200.914 147.233 200.833C147.266 200.783 147.288 200.749 147.301 200.731ZM147.151 190.659C147.002 190.607 146.839 190.686 146.787 190.835C146.776 190.867 146.763 190.917 146.749 190.984C146.658 191.445 146.732 191.965 147.091 192.452C147.281 192.71 147.542 192.94 147.879 193.138C148.015 193.218 148.19 193.171 148.269 193.034C148.349 192.898 148.303 192.722 148.167 192.642C147.895 192.483 147.693 192.305 147.55 192.111C147.298 191.769 147.248 191.411 147.31 191.095C147.318 191.056 147.325 191.032 147.327 191.024C147.379 190.874 147.3 190.711 147.151 190.659Z" fill="#371D0A"/>
<path fill-rule="evenodd" clip-rule="evenodd" d="M338.439 233.463C338.439 233.463 345.463 253.89 354.984 258.648C354.984 258.648 360.592 261.071 361.162 254.055L359.371 230.908L354.306 226.166L338.439 233.463Z" fill="#F3705A"/>
<path fill-rule="evenodd" clip-rule="evenodd" d="M331.04 96.2818C338.627 100.299 379.698 125.661 379.698 125.661L410.032 125.525C410.032 125.525 430.305 171.469 404.05 171.469C398.294 171.718 357.974 171.671 357.247 171.568C356.416 171.449 333.438 164.782 333.438 164.782L362.075 216.501C362.075 216.501 353.484 236.392 335.2 234.403L308.325 160.803C308.325 160.803 301.664 141.941 313.217 135.506C312.459 131.491 308.956 112.288 309.555 103.467C310.227 93.5872 322.984 92.0153 331.04 96.2818Z" fill="#3973B0"/>
<path fill-rule="evenodd" clip-rule="evenodd" d="M329.872 127.001L334.78 133.566L366.399 134.875L372.235 130.895C372.365 130.806 372.543 130.84 372.632 130.971C372.72 131.102 372.686 131.28 372.556 131.369L366.642 135.402C366.592 135.437 366.531 135.454 366.47 135.452L323.734 133.683C319.745 133.579 316.501 134.189 313.951 135.445C313.809 135.515 313.638 135.457 313.568 135.314C313.499 135.172 313.557 135 313.699 134.931C316.338 133.631 319.673 133.003 323.753 133.11L334.043 133.536L329.415 127.345C329.32 127.218 329.346 127.038 329.472 126.943C329.598 126.848 329.778 126.874 329.872 127.001ZM333.691 164.916C333.617 165.056 333.444 165.109 333.305 165.035L328.03 162.236C327.891 162.162 327.837 161.989 327.911 161.849C327.985 161.709 328.158 161.655 328.297 161.73L333.572 164.528C333.711 164.602 333.765 164.776 333.691 164.916Z" fill="#94C0E9"/>
<path fill-rule="evenodd" clip-rule="evenodd" d="M378.682 61.3646C377.243 58.3881 376.433 55.0328 376.433 51.4834C376.433 39.2048 386.122 29.251 398.075 29.251C410.027 29.251 419.717 39.2048 419.717 51.4834C419.717 55.0328 418.907 58.3881 417.467 61.3646H378.682Z" fill="#010101"/>
<path fill-rule="evenodd" clip-rule="evenodd" d="M410.63 58.4799C409.321 58.4799 408.151 57.9933 407.365 57.2269C407.081 56.9496 406.642 56.9218 406.341 57.181C404.143 59.0754 401.354 60.423 398.243 60.9747C397.844 61.0458 397.561 61.4082 397.585 61.8162L398.029 69.6798H390.5L390.849 63.4973C390.943 61.8521 389.701 60.2714 388.087 59.9967C382.496 59.0439 379.071 54.6128 379.127 48.112C379.205 39.0582 387.363 33.4876 396.349 33.4876C405.334 33.4876 411.337 38.6266 411.337 46.6767C411.337 48.1728 411.082 49.6145 410.614 50.9727C410.546 51.1686 410.683 51.3736 410.889 51.377C412.059 51.3977 414.933 51.627 414.918 54.9287C414.909 56.89 412.998 58.4799 410.63 58.4799Z" fill="#F7D3BB"/>
<path fill-rule="evenodd" clip-rule="evenodd" d="M410.628 51.2835C410.628 51.2835 403.428 48.1106 403.181 39.5397C403.181 39.5397 389.899 43.4668 382.172 39.6011C382.172 39.6011 384.726 36.9168 385.785 36.1807C387.84 34.7525 394.844 31.9469 394.844 31.9469L407.589 34.2462L413.006 40.9834L410.628 51.2835Z" fill="#010101"/>
<path fill-rule="evenodd" clip-rule="evenodd" d="M411.407 63.7775C411.763 63.842 412.056 63.4933 411.933 63.1501L409.496 56.3403C409.373 55.9971 408.927 55.9162 408.693 56.1952L404.055 61.7248C403.821 62.0035 403.975 62.4327 404.331 62.4972L411.407 63.7775ZM387.21 59.8212C385.77 59.4966 384.352 58.7981 383.258 57.9205L380.722 62.4665C380.541 62.7825 380.768 63.1776 381.13 63.1776H388.319C388.681 63.1776 388.908 62.7825 388.727 62.4665L387.21 59.8212Z" fill="#F3705A"/>
<path fill-rule="evenodd" clip-rule="evenodd" d="M400.45 49.8842C400.615 50.0521 400.884 50.0521 401.05 49.8842C401.216 49.7162 401.216 49.4439 401.05 49.2759C400.838 49.0608 400.461 48.7515 399.947 48.4441C397.949 47.2517 395.721 47.2082 393.565 49.0735C393.387 49.2277 393.366 49.4992 393.518 49.6798C393.67 49.8605 393.938 49.8819 394.116 49.7277C395.965 48.1279 397.805 48.1638 399.516 49.1853C399.777 49.3413 400.011 49.5084 400.213 49.6749C400.332 49.7727 400.412 49.8465 400.45 49.8842Z" fill="#010101"/>
<path fill-rule="evenodd" clip-rule="evenodd" d="M388.212 49.7978C388.33 50.0026 388.59 50.0712 388.792 49.951C388.995 49.8308 389.062 49.5672 388.944 49.3624C388.79 49.0977 388.506 48.7198 388.09 48.3422C386.41 46.8169 384.238 46.8169 381.811 49.2759C381.646 49.4439 381.646 49.7162 381.811 49.8842C381.977 50.0522 382.246 50.0522 382.412 49.8842C384.512 47.7556 386.172 47.7556 387.523 48.9828C387.723 49.1644 387.898 49.3596 388.044 49.5543C388.13 49.6687 388.187 49.7548 388.212 49.7978Z" fill="#010101"/>
<path fill-rule="evenodd" clip-rule="evenodd" d="M397.992 52.6011H387.245C387.001 52.6011 386.807 52.8091 386.822 53.056C386.832 53.2413 386.873 53.5487 386.963 53.9388C387.113 54.5854 387.353 55.2324 387.706 55.8392C388.741 57.6212 390.507 58.6818 393.114 58.6398C395.339 58.604 396.833 57.5398 397.69 55.8143C397.991 55.2086 398.19 54.5639 398.31 53.9198C398.382 53.532 398.411 53.2269 398.416 53.044C398.423 52.8016 398.231 52.6011 397.992 52.6011Z" fill="#E74B33"/>
<path fill-rule="evenodd" clip-rule="evenodd" d="M396.638 56.1447C396.472 56.0979 396.284 56.0515 396.078 56.0082C395.067 55.7956 394.017 55.7338 393.023 55.917C391.884 56.1269 390.927 56.6461 390.233 57.5321C390.062 57.7495 390.136 58.0712 390.385 58.1891C390.519 58.2529 390.751 58.3422 391.067 58.4298C392.718 58.8882 394.751 58.7841 396.258 57.6106C396.502 57.4211 396.755 57.1683 397.007 56.9358C397.246 56.7144 397.162 56.3139 396.855 56.2101C396.813 56.196 396.74 56.1732 396.638 56.1447Z" fill="#F3705A"/>
<path fill-rule="evenodd" clip-rule="evenodd" d="M353.671 88.9649C358.468 75.6957 372.266 71.0042 382.93 69.3971C383.438 68.2811 384.811 65.3754 385.761 64.422C386.947 63.2324 400.494 63.6289 402.339 64.2896C404.183 64.9508 404.825 69.7813 404.825 69.7813C412.437 71.1837 423.059 74.1915 427.232 80.2687C432.338 87.7039 438.904 99.1874 441.724 104.205C443.609 107.558 444.249 111.503 443.368 115.25C442.011 121.018 436.863 127.838 420.565 129.324C391.229 132 364.116 128.655 364.116 128.655C364.116 128.655 343.288 129.77 343.288 119.067C343.288 109.254 353.671 88.9649 353.671 88.9649Z" fill="#F2B08F"/>
<mask id="mask2_66_8" style="mask-type:luminance" maskUnits="userSpaceOnUse" x="343" y="63" width="101" height="68">
<path fill-rule="evenodd" clip-rule="evenodd" d="M353.671 88.9649C358.468 75.6957 372.266 71.0042 382.93 69.3971C383.438 68.2811 384.811 65.3754 385.761 64.422C386.947 63.2324 400.494 63.6289 402.339 64.2896C404.183 64.9508 404.825 69.7813 404.825 69.7813C412.437 71.1837 423.059 74.1915 427.232 80.2687C432.338 87.7039 438.904 99.1874 441.724 104.205C443.609 107.558 444.249 111.503 443.368 115.25C442.011 121.018 436.863 127.838 420.565 129.324C391.229 132 364.116 128.655 364.116 128.655C364.116 128.655 343.288 129.77 343.288 119.067C343.288 109.254 353.671 88.9649 353.671 88.9649Z" fill="white"/>
</mask>
<g mask="url(#mask2_66_8)">
<path d="M376.713 77.3914C376.274 77.3914 375.918 76.7712 375.918 76.3569C375.918 75.9425 376.274 75.4927 376.713 75.4927C377.152 75.4927 377.507 75.9425 377.507 76.3569C377.507 76.7712 377.152 77.3914 376.713 77.3914Z" fill="#F4F0F0"/>
<path d="M378.548 119.334C378.548 119.749 378.903 120.369 379.342 120.369C379.781 120.369 380.137 119.749 380.137 119.334C380.137 118.92 379.781 118.47 379.342 118.47C378.903 118.47 378.548 118.92 378.548 119.334Z" fill="#F4F0F0"/>
<path d="M345.415 120.234C345.415 120.649 345.771 121.269 346.21 121.269C346.649 121.269 347.004 120.649 347.004 120.234C347.004 119.82 346.649 119.37 346.21 119.37C345.771 119.37 345.415 119.82 345.415 120.234Z" fill="#F4F0F0"/>
<path d="M361.146 94.85C361.146 95.2431 361.431 95.8309 361.782 95.8309C362.133 95.8309 362.417 95.2431 362.417 94.85C362.417 94.4572 362.133 94.0305 361.782 94.0305C361.431 94.0305 361.146 94.4572 361.146 94.85Z" fill="#F4F0F0"/>
<path d="M372.033 118.333C371.681 118.333 371.397 117.745 371.397 117.353C371.397 116.96 371.681 116.533 372.033 116.533C372.384 116.533 372.668 116.96 372.668 117.353C372.668 117.745 372.384 118.333 372.033 118.333Z" fill="#F4F0F0"/>
<path d="M386.406 97.7285C386.406 98.1213 386.121 98.7094 385.77 98.7094C385.419 98.7094 385.135 98.1213 385.135 97.7285C385.135 97.3357 385.419 96.909 385.77 96.909C386.121 96.909 386.406 97.3357 386.406 97.7285Z" fill="#F4F0F0"/>
<path d="M357.942 103.924C358.354 104.065 358.913 103.598 359.063 103.208C359.214 102.819 359.042 102.281 358.63 102.14C358.218 101.998 357.72 102.306 357.57 102.695C357.42 103.084 357.53 103.782 357.942 103.924Z" fill="#F4F0F0"/>
<path d="M369.314 125.711C369.164 126.1 368.605 126.568 368.193 126.426C367.781 126.284 367.671 125.587 367.821 125.198C367.971 124.808 368.468 124.5 368.881 124.642C369.293 124.784 369.464 125.321 369.314 125.711Z" fill="#F4F0F0"/>
<path d="M352.147 107.474C352.583 107.524 353.016 106.95 353.069 106.538C353.123 106.127 352.828 105.64 352.392 105.589C351.957 105.538 351.546 105.944 351.492 106.356C351.439 106.766 351.712 107.423 352.147 107.474Z" fill="#F4F0F0"/>
<path d="M361.788 107.274C361.352 107.224 360.941 107.63 360.888 108.041C360.834 108.452 361.107 109.108 361.543 109.159C361.978 109.209 362.411 108.635 362.465 108.223C362.518 107.812 362.223 107.325 361.788 107.274Z" fill="#F4F0F0"/>
<path d="M371.395 108.259C370.959 108.208 370.686 107.552 370.74 107.141C370.793 106.729 371.204 106.324 371.639 106.374C372.075 106.425 372.37 106.912 372.316 107.323C372.263 107.734 371.83 108.309 371.395 108.259Z" fill="#F4F0F0"/>
<path d="M387.814 93.8662C387.761 94.2777 388.033 94.934 388.469 94.9845C388.904 95.035 389.337 94.4603 389.391 94.0492C389.445 93.638 389.15 93.1503 388.714 93.1001C388.279 93.0496 387.867 93.4554 387.814 93.8662Z" fill="#F4F0F0"/>
<path d="M360.82 85.9835C360.385 85.933 360.112 85.2767 360.165 84.8652C360.219 84.4544 360.63 84.0486 361.065 84.0991C361.501 84.1493 361.796 84.637 361.742 85.0482C361.689 85.4593 361.256 86.0339 360.82 85.9835Z" fill="#F4F0F0"/>
<path d="M378.361 86.6656C378.308 87.0768 378.581 87.7334 379.016 87.7836C379.452 87.834 379.885 87.2594 379.938 86.8485C379.992 86.4371 379.697 85.9496 379.261 85.8992C378.826 85.8487 378.415 86.2544 378.361 86.6656Z" fill="#F4F0F0"/>
<path d="M373.619 100.458C373.183 100.407 372.911 99.7511 372.964 99.3396C373.018 98.9287 373.429 98.523 373.864 98.5735C374.3 98.6239 374.595 99.1114 374.541 99.5223C374.488 99.9337 374.055 100.508 373.619 100.458Z" fill="#F4F0F0"/>
<path d="M350.082 122.742C350.029 123.154 350.302 123.81 350.738 123.86C351.173 123.911 351.606 123.336 351.659 122.925C351.713 122.514 351.418 122.026 350.982 121.976C350.547 121.926 350.136 122.331 350.082 122.742Z" fill="#F4F0F0"/>
<path d="M383.215 121.842C383.268 121.431 383.679 121.025 384.115 121.076C384.55 121.126 384.845 121.614 384.792 122.025C384.738 122.436 384.305 123.011 383.87 122.961C383.434 122.91 383.161 122.253 383.215 121.842Z" fill="#F4F0F0"/>
<path d="M381.241 79.9828C381.676 80.0336 382.11 79.459 382.163 79.0475C382.216 78.6363 381.921 78.1486 381.486 78.0982C381.05 78.048 380.639 78.4534 380.586 78.8649C380.532 79.276 380.806 79.9324 381.241 79.9828Z" fill="#F4F0F0"/>
<path d="M367.886 90.4929C367.555 90.7644 367.292 91.4248 367.58 91.7376C367.868 92.0501 368.597 91.8967 368.928 91.6249C369.259 91.3531 369.386 90.8046 369.098 90.4917C368.81 90.1792 368.217 90.2211 367.886 90.4929Z" fill="#F4F0F0"/>
<path d="M344.699 115.14C344.411 114.827 344.673 114.167 345.004 113.895C345.336 113.624 345.929 113.582 346.216 113.895C346.504 114.207 346.378 114.756 346.047 115.027C345.716 115.299 344.987 115.453 344.699 115.14Z" fill="#F4F0F0"/>
<path d="M379.179 114.127C379.51 113.856 379.636 113.307 379.349 112.994C379.061 112.682 378.468 112.724 378.136 112.995C377.805 113.267 377.543 113.927 377.831 114.24C378.119 114.552 378.848 114.399 379.179 114.127Z" fill="#F4F0F0"/>
<path d="M383.044 107.153C383.332 107.465 383.206 108.014 382.875 108.286C382.543 108.558 381.814 108.711 381.526 108.398C381.239 108.085 381.501 107.425 381.832 107.154C382.163 106.882 382.756 106.84 383.044 107.153Z" fill="#F4F0F0"/>
<path d="M375.643 92.7288C376.164 92.6597 376.667 93.1382 376.74 93.6308C376.813 94.1229 376.5 94.916 375.979 94.9851C375.457 95.0542 374.925 94.3732 374.852 93.8812C374.778 93.3888 375.121 92.7982 375.643 92.7288Z" fill="#F4F0F0"/>
<path d="M353.097 118.388C353.619 118.318 353.931 117.526 353.858 117.033C353.785 116.541 353.283 116.062 352.761 116.131C352.24 116.201 351.897 116.791 351.97 117.284C352.043 117.776 352.576 118.457 353.097 118.388Z" fill="#F4F0F0"/>
<path d="M388.141 117.15C388.662 117.08 389.164 117.559 389.238 118.052C389.311 118.544 388.998 119.336 388.477 119.406C387.955 119.475 387.423 118.794 387.349 118.302C387.276 117.81 387.619 117.219 388.141 117.15Z" fill="#F4F0F0"/>
<path d="M382.473 73.4061C382.547 73.8984 383.079 74.5791 383.6 74.51C384.122 74.4409 384.435 73.6478 384.362 73.1555C384.288 72.6635 383.786 72.1849 383.264 72.254C382.743 72.3229 382.4 72.9141 382.473 73.4061Z" fill="#F4F0F0"/>
<path d="M356.329 120.587C355.953 120.373 355.986 119.669 356.213 119.314C356.438 118.958 356.989 118.746 357.365 118.959C357.741 119.173 357.801 119.731 357.574 120.086C357.349 120.441 356.705 120.8 356.329 120.587Z" fill="#F4F0F0"/>
<path d="M389.663 125.089C389.437 125.444 389.403 126.149 389.78 126.362C390.156 126.576 390.799 126.217 391.025 125.862C391.251 125.507 391.191 124.949 390.815 124.735C390.439 124.522 389.889 124.734 389.663 125.089Z" fill="#F4F0F0"/>
<path d="M386.832 76.7092C386.456 76.4959 386.49 75.7911 386.716 75.4362C386.942 75.0812 387.492 74.8681 387.868 75.0818C388.244 75.2951 388.304 75.8539 388.078 76.2089C387.852 76.5642 387.209 76.9226 386.832 76.7092Z" fill="#F4F0F0"/>
<path d="M374.508 87.6477C374.177 87.9195 373.915 88.5798 374.203 88.8924C374.491 89.2052 375.22 89.0518 375.551 88.78C375.882 88.5081 376.008 87.9593 375.72 87.6468C375.433 87.334 374.84 87.3759 374.508 87.6477Z" fill="#F4F0F0"/>
<path d="M382.799 85.8777C382.511 85.5652 382.773 84.9048 383.104 84.633C383.436 84.3612 384.029 84.3193 384.317 84.6321C384.604 84.9447 384.478 85.4935 384.147 85.7653C383.816 86.0371 383.087 86.1905 382.799 85.8777Z" fill="#F4F0F0"/>
<path d="M351.627 111.05C351.296 111.322 351.033 111.982 351.321 112.295C351.609 112.607 352.338 112.454 352.669 112.182C353 111.911 353.127 111.362 352.839 111.049C352.551 110.737 351.958 110.778 351.627 111.05Z" fill="#F4F0F0"/>
<path d="M389.088 111.356C389.376 111.669 389.249 112.218 388.919 112.489C388.587 112.761 387.858 112.914 387.571 112.602C387.282 112.289 387.545 111.629 387.876 111.357C388.207 111.086 388.8 111.044 389.088 111.356Z" fill="#F4F0F0"/>
<path d="M350.762 101.381C351.094 101.11 351.22 100.561 350.932 100.248C350.644 99.9354 350.051 99.977 349.72 100.249C349.389 100.521 349.126 101.181 349.414 101.494C349.702 101.806 350.431 101.653 350.762 101.381Z" fill="#F4F0F0"/>
<path d="M361.183 122.75C361.471 123.063 361.344 123.612 361.013 123.884C360.682 124.156 359.953 124.309 359.665 123.996C359.377 123.683 359.64 123.023 359.971 122.751C360.302 122.48 360.895 122.438 361.183 122.75Z" fill="#F4F0F0"/>
<path d="M352.507 96.5936C352.357 96.9833 352.467 97.6803 352.879 97.8222C353.292 97.9639 353.85 97.4962 354 97.1069C354.151 96.7178 353.979 96.1796 353.567 96.0379C353.155 95.8966 352.657 96.2042 352.507 96.5936Z" fill="#F4F0F0"/>
<path d="M364.251 119.609C364.401 119.22 364.23 118.682 363.818 118.541C363.406 118.399 362.908 118.707 362.758 119.096C362.608 119.485 362.717 120.183 363.13 120.325C363.542 120.466 364.101 119.999 364.251 119.609Z" fill="#F4F0F0"/>
<path d="M361.391 113.609C361.541 113.219 361.37 112.682 360.958 112.54C360.545 112.398 360.048 112.706 359.898 113.096C359.748 113.485 359.858 114.182 360.27 114.324C360.682 114.466 361.241 113.998 361.391 113.609Z" fill="#F4F0F0"/>
<path d="M361.886 99.8712C361.482 100.033 360.869 99.7276 360.697 99.3462C360.526 98.9649 360.691 98.5531 361.095 98.3914C361.499 98.2294 361.988 98.3785 362.16 98.7599C362.331 99.1412 362.29 99.7092 361.886 99.8712Z" fill="#F4F0F0"/>
<path d="M388.638 70.4124C388.81 70.7937 389.423 71.0997 389.827 70.9377C390.231 70.7757 390.273 70.2077 390.101 69.8263C389.93 69.445 389.44 69.2959 389.036 69.4579C388.632 69.6196 388.467 70.031 388.638 70.4124Z" fill="#F4F0F0"/>
<path d="M372.411 121.262C372.582 121.643 372.541 122.212 372.137 122.373C371.733 122.535 371.12 122.23 370.948 121.848C370.777 121.467 370.942 121.056 371.346 120.894C371.75 120.732 372.239 120.881 372.411 121.262Z" fill="#F4F0F0"/>
<path d="M379.4 105.368C379.804 105.206 379.845 104.638 379.674 104.256C379.502 103.875 379.012 103.726 378.609 103.888C378.204 104.05 378.04 104.461 378.211 104.843C378.382 105.224 378.996 105.53 379.4 105.368Z" fill="#F4F0F0"/>
<path d="M389.483 101.095C389.079 101.257 388.466 100.951 388.294 100.569C388.123 100.188 388.288 99.7766 388.691 99.6149C389.095 99.4529 389.585 99.602 389.757 99.9833C389.928 100.365 389.887 100.933 389.483 101.095Z" fill="#F4F0F0"/>
<path d="M367.637 82.5674C367.809 82.9488 368.422 83.2547 368.826 83.0927C369.23 82.9307 369.271 82.3627 369.1 81.9813C368.928 81.6 368.438 81.4509 368.035 81.6129C367.631 81.7746 367.466 82.1863 367.637 82.5674Z" fill="#F4F0F0"/>
<path d="M386.608 80.3421C386.78 80.7235 386.738 81.2918 386.334 81.4535C385.93 81.6155 385.317 81.3098 385.145 80.9285C384.974 80.5471 385.139 80.1357 385.543 79.9737C385.947 79.8117 386.437 79.9608 386.608 80.3421Z" fill="#F4F0F0"/>
<path d="M365.181 86.8405C365.353 87.2219 365.966 87.5278 366.37 87.3658C366.774 87.2038 366.815 86.6358 366.644 86.2544C366.472 85.8731 365.982 85.724 365.579 85.886C365.175 86.0477 365.01 86.4595 365.181 86.8405Z" fill="#F4F0F0"/>
<path d="M375.432 109.343C375.261 108.962 375.425 108.55 375.829 108.388C376.233 108.226 376.723 108.376 376.895 108.757C377.066 109.138 377.025 109.707 376.621 109.868C376.217 110.03 375.604 109.724 375.432 109.343Z" fill="#F4F0F0"/>
<path d="M385.515 105.07C385.686 105.451 386.3 105.757 386.704 105.595C387.108 105.433 387.149 104.865 386.978 104.484C386.806 104.102 386.316 103.953 385.912 104.115C385.508 104.277 385.343 104.689 385.515 105.07Z" fill="#F4F0F0"/>
<path d="M367.006 103.868C366.602 104.03 365.988 103.724 365.817 103.342C365.646 102.961 365.81 102.55 366.214 102.388C366.618 102.226 367.108 102.375 367.28 102.756C367.451 103.138 367.41 103.706 367.006 103.868Z" fill="#F4F0F0"/>
<path d="M382.891 90.0682C383.063 90.4496 383.676 90.7555 384.08 90.5935C384.484 90.4315 384.526 89.8635 384.354 89.4822C384.183 89.1008 383.693 88.9517 383.289 89.1137C382.885 89.2754 382.72 89.6869 382.891 90.0682Z" fill="#F4F0F0"/>
<path d="M390.152 85.9577C389.748 86.1197 389.134 85.8138 388.963 85.4324C388.791 85.0511 388.956 84.6396 389.36 84.4779C389.764 84.3159 390.254 84.465 390.425 84.8463C390.597 85.2277 390.555 85.7954 390.152 85.9577Z" fill="#F4F0F0"/>
<path d="M373.439 82.8676C373.61 83.249 374.223 83.5546 374.627 83.3926C375.031 83.2306 375.073 82.6626 374.901 82.2813C374.73 81.8999 374.24 81.7508 373.836 81.9128C373.432 82.0745 373.267 82.4863 373.439 82.8676Z" fill="#F4F0F0"/>
<path d="M406.159 75.9927C406.599 75.9614 406.91 75.2742 406.878 74.8323C406.847 74.3902 406.456 73.936 406.016 73.9675C405.575 73.9988 405.253 74.504 405.284 74.9461C405.315 75.388 405.719 76.0242 406.159 75.9927Z" fill="#F4F0F0"/>
<path d="M407.492 120.866C407.523 121.308 407.213 121.995 406.773 122.026C406.332 122.058 405.928 121.422 405.897 120.98C405.866 120.538 406.189 120.033 406.629 120.001C407.069 119.97 407.46 120.424 407.492 120.866Z" fill="#F4F0F0"/>
<path d="M440.811 119.452C440.843 119.894 440.533 120.581 440.092 120.612C439.652 120.644 439.248 120.008 439.217 119.566C439.185 119.124 439.508 118.619 439.948 118.587C440.389 118.556 440.78 119.01 440.811 119.452Z" fill="#F4F0F0"/>
<path d="M423.103 93.5012C423.133 93.9204 422.891 94.5679 422.539 94.5928C422.187 94.618 421.857 94.0113 421.827 93.5921C421.797 93.1732 422.051 92.6978 422.403 92.6726C422.755 92.6474 423.073 93.082 423.103 93.5012Z" fill="#F4F0F0"/>
<path d="M413.954 119.332C414.307 119.306 414.548 118.659 414.518 118.24C414.488 117.821 414.17 117.386 413.818 117.411C413.466 117.436 413.212 117.912 413.242 118.331C413.272 118.75 413.602 119.357 413.954 119.332Z" fill="#F4F0F0"/>
<path d="M397.97 98.3816C398 98.8006 398.33 99.4076 398.683 99.3823C399.035 99.3571 399.276 98.7094 399.246 98.2905C399.216 97.8716 398.898 97.4369 398.546 97.4621C398.194 97.4871 397.941 97.9627 397.97 98.3816Z" fill="#F4F0F0"/>
<path d="M427.005 102.951C426.602 103.131 426.006 102.672 425.826 102.268C425.646 101.863 425.777 101.277 426.18 101.097C426.583 100.916 427.105 101.209 427.285 101.614C427.466 102.018 427.408 102.77 427.005 102.951Z" fill="#F4F0F0"/>
<path d="M417.241 127.007C417.421 127.411 418.017 127.87 418.42 127.69C418.823 127.508 418.88 126.757 418.7 126.352C418.52 125.947 417.998 125.655 417.595 125.835C417.192 126.016 417.061 126.602 417.241 127.007Z" fill="#F4F0F0"/>
<path d="M433.089 106.322C432.656 106.407 432.178 105.825 432.094 105.39C432.009 104.956 432.268 104.415 432.701 104.329C433.134 104.244 433.578 104.648 433.662 105.083C433.747 105.517 433.523 106.237 433.089 106.322Z" fill="#F4F0F0"/>
<path d="M423.399 106.801C423.832 106.715 424.276 107.119 424.361 107.553C424.445 107.988 424.221 108.708 423.788 108.793C423.354 108.878 422.876 108.296 422.792 107.861C422.707 107.427 422.966 106.885 423.399 106.801Z" fill="#F4F0F0"/>
<path d="M413.833 108.539C414.266 108.454 414.49 107.734 414.405 107.299C414.321 106.865 413.877 106.461 413.444 106.546C413.011 106.631 412.751 107.172 412.837 107.607C412.921 108.042 413.399 108.624 413.833 108.539Z" fill="#F4F0F0"/>
<path d="M396.265 94.3626C396.35 94.7975 396.126 95.5175 395.692 95.6024C395.259 95.6873 394.781 95.1055 394.696 94.6708C394.611 94.2358 394.87 93.6948 395.304 93.6096C395.737 93.5248 396.18 93.9279 396.265 94.3626Z" fill="#F4F0F0"/>
<path d="M422.759 84.0197C423.193 83.9345 423.417 83.2148 423.332 82.7799C423.247 82.3452 422.804 81.9418 422.371 82.0269C421.937 82.1118 421.678 82.6531 421.763 83.0881C421.848 83.5228 422.326 84.1046 422.759 84.0197Z" fill="#F4F0F0"/>
<path d="M405.207 86.0039C405.292 86.4388 405.067 87.1588 404.634 87.2437C404.201 87.3288 403.723 86.7468 403.638 86.3121C403.553 85.8771 403.812 85.3361 404.246 85.2509C404.679 85.166 405.122 85.5695 405.207 86.0039Z" fill="#F4F0F0"/>
<path d="M411.01 100.377C411.443 100.292 411.667 99.5721 411.582 99.1372C411.498 98.7025 411.054 98.2994 410.621 98.3842C410.188 98.4694 409.928 99.0104 410.014 99.4451C410.098 99.8801 410.576 100.462 411.01 100.377Z" fill="#F4F0F0"/>
<path d="M436.317 122.462C436.402 122.897 436.178 123.616 435.744 123.702C435.311 123.787 434.833 123.205 434.748 122.77C434.663 122.335 434.922 121.794 435.356 121.709C435.789 121.624 436.232 122.027 436.317 122.462Z" fill="#F4F0F0"/>
<path d="M402.997 123.876C402.913 123.441 402.469 123.038 402.036 123.123C401.603 123.208 401.344 123.749 401.429 124.184C401.513 124.619 401.991 125.201 402.424 125.116C402.858 125.031 403.082 124.311 402.997 123.876Z" fill="#F4F0F0"/>
<path d="M401.811 79.0816C401.378 79.1671 400.9 78.585 400.815 78.1501C400.73 77.7151 400.99 77.174 401.423 77.0889C401.856 77.004 402.299 77.4071 402.384 77.8421C402.469 78.2768 402.244 78.9968 401.811 79.0816Z" fill="#F4F0F0"/>
<path d="M416.01 89.3362C416.363 89.602 416.676 90.2876 416.411 90.642C416.145 90.9961 415.402 90.8845 415.049 90.6185C414.696 90.3521 414.528 89.7761 414.793 89.4217C415.058 89.0675 415.657 89.0698 416.01 89.3362Z" fill="#F4F0F0"/>
<path d="M441.145 113.967C441.41 113.612 441.097 112.927 440.744 112.661C440.391 112.394 439.793 112.392 439.527 112.746C439.262 113.101 439.431 113.677 439.784 113.943C440.136 114.209 440.88 114.32 441.145 113.967Z" fill="#F4F0F0"/>
<path d="M406.464 115.357C406.111 115.091 405.943 114.514 406.208 114.16C406.473 113.806 407.072 113.809 407.424 114.075C407.777 114.341 408.091 115.026 407.825 115.381C407.56 115.734 406.817 115.623 406.464 115.357Z" fill="#F4F0F0"/>
<path d="M402.057 108.194C401.792 108.548 401.96 109.124 402.313 109.39C402.666 109.657 403.409 109.768 403.675 109.414C403.94 109.059 403.626 108.374 403.274 108.108C402.921 107.842 402.322 107.84 402.057 108.194Z" fill="#F4F0F0"/>
<path d="M408.394 92.2772C407.865 92.2408 407.397 92.7873 407.361 93.3177C407.325 93.8479 407.699 94.6717 408.227 94.7081C408.756 94.7442 409.239 93.9798 409.275 93.4496C409.311 92.9192 408.923 92.3136 408.394 92.2772Z" fill="#F4F0F0"/>
<path d="M432.962 118.033C432.433 117.996 432.059 117.173 432.096 116.643C432.132 116.112 432.6 115.566 433.128 115.602C433.657 115.638 434.046 116.244 434.009 116.774C433.973 117.305 433.491 118.069 432.962 118.033Z" fill="#F4F0F0"/>
<path d="M397.699 119.223C397.17 119.187 396.702 119.733 396.666 120.264C396.629 120.794 397.004 121.617 397.532 121.654C398.061 121.69 398.544 120.926 398.58 120.396C398.616 119.865 398.227 119.259 397.699 119.223Z" fill="#F4F0F0"/>
<path d="M400.077 72.1543C400.04 72.6847 399.558 73.4491 399.029 73.413C398.5 73.3763 398.126 72.5528 398.163 72.0224C398.199 71.4922 398.667 70.9457 399.195 70.9821C399.724 71.0182 400.113 71.6241 400.077 72.1543Z" fill="#F4F0F0"/>
<path d="M429.885 120.61C430.246 120.356 430.159 119.606 429.906 119.244C429.652 118.881 429.083 118.694 428.722 118.948C428.361 119.203 428.343 119.803 428.597 120.166C428.85 120.528 429.523 120.865 429.885 120.61Z" fill="#F4F0F0"/>
<path d="M396.772 127.802C397.026 128.164 397.112 128.914 396.751 129.168C396.39 129.423 395.717 129.086 395.463 128.724C395.21 128.361 395.227 127.761 395.588 127.506C395.95 127.252 396.518 127.439 396.772 127.802Z" fill="#F4F0F0"/>
<path d="M395.952 75.9904C396.313 75.7358 396.226 74.9866 395.973 74.6241C395.719 74.2617 395.151 74.0739 394.789 74.3285C394.428 74.5831 394.411 75.1833 394.664 75.5457C394.918 75.9084 395.59 76.245 395.952 75.9904Z" fill="#F4F0F0"/>
<path d="M409.148 86.7754C409.501 87.0418 409.814 87.7274 409.549 88.0815C409.283 88.4356 408.54 88.3243 408.188 88.058C407.835 87.7919 407.666 87.2156 407.931 86.8614C408.197 86.5073 408.795 86.5093 409.148 86.7754Z" fill="#F4F0F0"/>
<path d="M400.694 85.4817C400.959 85.1276 400.645 84.442 400.293 84.1757C399.94 83.9096 399.341 83.9076 399.076 84.2617C398.811 84.6158 398.979 85.1921 399.332 85.4582C399.685 85.7246 400.428 85.8358 400.694 85.4817Z" fill="#F4F0F0"/>
<path d="M433.882 110.1C434.235 110.367 434.549 111.052 434.283 111.406C434.018 111.76 433.275 111.649 432.922 111.383C432.569 111.117 432.4 110.54 432.666 110.186C432.931 109.832 433.53 109.834 433.882 110.1Z" fill="#F4F0F0"/>
<path d="M396.309 113.111C396.044 113.465 396.212 114.042 396.565 114.307C396.918 114.574 397.662 114.685 397.927 114.331C398.192 113.977 397.879 113.292 397.526 113.025C397.173 112.759 396.575 112.757 396.309 113.111Z" fill="#F4F0F0"/>
<path d="M434.018 99.7241C433.666 99.458 433.497 98.8817 433.762 98.5276C434.028 98.1735 434.626 98.1755 434.979 98.4416C435.332 98.708 435.645 99.3935 435.38 99.7476C435.114 100.102 434.371 99.9905 434.018 99.7241Z" fill="#F4F0F0"/>
<path d="M425.177 123.266C424.912 123.62 425.08 124.196 425.433 124.463C425.786 124.729 426.529 124.84 426.794 124.486C427.06 124.132 426.747 123.446 426.394 123.18C426.041 122.914 425.443 122.912 425.177 123.266Z" fill="#F4F0F0"/>
<path d="M431.905 94.7422C432.085 95.1468 432.028 95.8986 431.625 96.0795C431.222 96.2601 430.625 95.8011 430.445 95.3965C430.265 94.9919 430.396 94.4059 430.799 94.2252C431.202 94.0446 431.725 94.3373 431.905 94.7422Z" fill="#F4F0F0"/>
<path d="M421.86 120.135C421.68 119.731 421.811 119.145 422.214 118.964C422.617 118.783 423.14 119.076 423.32 119.481C423.5 119.885 423.443 120.637 423.039 120.818C422.637 120.999 422.04 120.54 421.86 120.135Z" fill="#F4F0F0"/>
<path d="M424.277 113.529C424.097 113.125 424.228 112.539 424.631 112.358C425.034 112.177 425.556 112.47 425.736 112.875C425.916 113.279 425.859 114.031 425.456 114.212C425.053 114.393 424.457 113.934 424.277 113.529Z" fill="#F4F0F0"/>
<path d="M422.74 98.9104C423.158 99.0543 423.75 98.6841 423.894 98.2649C424.037 97.846 423.84 97.4188 423.422 97.2752C423.005 97.1312 422.525 97.3253 422.381 97.7445C422.238 98.1634 422.323 98.7664 422.74 98.9104Z" fill="#F4F0F0"/>
<path d="M393.663 69.4028C393.52 69.822 392.927 70.1919 392.51 70.0482C392.092 69.9043 392.008 69.3013 392.15 68.8824C392.294 68.4632 392.774 68.2691 393.192 68.413C393.609 68.5564 393.806 68.9839 393.663 69.4028Z" fill="#F4F0F0"/>
<path d="M413.796 122.483C413.653 122.902 413.738 123.505 414.155 123.649C414.573 123.793 415.165 123.423 415.309 123.003C415.452 122.585 415.255 122.158 414.837 122.014C414.42 121.87 413.939 122.064 413.796 122.483Z" fill="#F4F0F0"/>
<path d="M405.579 106.029C405.162 105.885 405.077 105.282 405.221 104.863C405.364 104.444 405.844 104.25 406.262 104.393C406.679 104.537 406.876 104.964 406.733 105.383C406.59 105.802 405.997 106.172 405.579 106.029Z" fill="#F4F0F0"/>
<path d="M395.137 102.193C395.555 102.337 396.147 101.967 396.291 101.548C396.433 101.129 396.237 100.701 395.819 100.558C395.401 100.414 394.921 100.608 394.778 101.027C394.635 101.446 394.719 102.049 395.137 102.193Z" fill="#F4F0F0"/>
<path d="M415.66 80.8642C415.516 81.2831 414.924 81.6533 414.506 81.5094C414.089 81.3654 414.004 80.7627 414.147 80.3435C414.291 79.9243 414.771 79.7302 415.189 79.8742C415.606 80.0178 415.803 80.445 415.66 80.8642Z" fill="#F4F0F0"/>
<path d="M396.452 79.8495C396.309 80.2687 396.393 80.872 396.811 81.0153C397.228 81.1593 397.821 80.7891 397.964 80.3702C398.107 79.951 397.911 79.5241 397.493 79.3801C397.076 79.2365 396.595 79.4306 396.452 79.8495Z" fill="#F4F0F0"/>
<path d="M418.448 85.2463C418.304 85.6655 417.712 86.0357 417.294 85.8917C416.877 85.7478 416.792 85.1448 416.935 84.7259C417.079 84.3067 417.559 84.1126 417.976 84.2565C418.394 84.4002 418.591 84.8274 418.448 85.2463Z" fill="#F4F0F0"/>
<path d="M409.862 109.985C410.006 109.566 409.809 109.139 409.391 108.995C408.974 108.851 408.493 109.045 408.35 109.465C408.207 109.884 408.292 110.487 408.709 110.63C409.127 110.774 409.719 110.404 409.862 109.985Z" fill="#F4F0F0"/>
<path d="M399.42 106.149C399.277 106.568 398.684 106.939 398.267 106.795C397.849 106.651 397.764 106.048 397.907 105.629C398.051 105.21 398.531 105.015 398.949 105.159C399.366 105.303 399.563 105.73 399.42 106.149Z" fill="#F4F0F0"/>
<path d="M417.905 103.54C418.322 103.684 418.915 103.314 419.058 102.895C419.201 102.476 419.005 102.049 418.587 101.905C418.169 101.761 417.689 101.955 417.546 102.374C417.403 102.794 417.487 103.396 417.905 103.54Z" fill="#F4F0F0"/>
<path d="M400.918 89.9584C400.775 90.3776 400.182 90.7478 399.764 90.6038C399.347 90.4599 399.262 89.8569 399.406 89.438C399.549 89.0188 400.029 88.8247 400.447 88.9686C400.864 89.1123 401.061 89.5395 400.918 89.9584Z" fill="#F4F0F0"/>
<path d="M393.32 86.0936C393.738 86.2375 394.331 85.8674 394.474 85.4484C394.617 85.0292 394.42 84.602 394.003 84.4584C393.585 84.3144 393.105 84.5088 392.961 84.9277C392.819 85.3469 392.903 85.9496 393.32 86.0936Z" fill="#F4F0F0"/>
<path d="M409.86 81.6C409.717 82.0189 409.124 82.3891 408.706 82.2451C408.289 82.1012 408.204 81.4985 408.348 81.0793C408.491 80.6604 408.971 80.466 409.389 80.6099C409.806 80.7536 410.003 81.1808 409.86 81.6Z" fill="#F4F0F0"/>
</g>
<path fill-rule="evenodd" clip-rule="evenodd" d="M391.335 63.4388C391.492 63.45 391.611 63.5874 391.599 63.7454L391.214 69.0995C391.202 69.2574 391.066 69.3761 390.908 69.3647C390.751 69.3535 390.633 69.2162 390.644 69.0582L391.029 63.7041C391.04 63.5461 391.177 63.4274 391.335 63.4388ZM388.348 63.8976C388.382 63.7428 388.284 63.5897 388.13 63.5555C387.976 63.5211 387.824 63.6186 387.789 63.7732L386.579 69.2377C386.545 69.3922 386.642 69.5453 386.796 69.5797C386.95 69.6141 387.103 69.5166 387.137 69.3621L388.348 63.8976ZM369.94 95.291C369.885 95.4395 369.961 95.6044 370.109 95.6595C370.257 95.7145 370.421 95.6388 370.476 95.4903L371.563 92.545C371.618 92.3965 371.543 92.2316 371.395 92.1766C371.247 92.1215 371.082 92.1972 371.028 92.3457L369.94 95.291ZM417.5 95.6798C417.599 95.8028 417.779 95.822 417.901 95.7225C418.024 95.623 418.043 95.4427 417.944 95.3194L415.661 92.4831C415.562 92.3598 415.382 92.3406 415.259 92.4401C415.136 92.5396 415.117 92.7202 415.216 92.8435L417.5 95.6798ZM391.808 103.696C391.878 103.555 392.05 103.497 392.191 103.568L395.374 105.164C395.515 105.235 395.572 105.407 395.501 105.549C395.431 105.691 395.259 105.748 395.118 105.677L391.936 104.081C391.794 104.01 391.737 103.838 391.808 103.696ZM395.506 63.7158C395.501 63.5576 395.369 63.4334 395.211 63.438C395.054 63.4429 394.93 63.5753 394.934 63.7336L395.1 69.1427C395.105 69.301 395.236 69.4252 395.394 69.4206C395.552 69.4157 395.676 69.2832 395.671 69.125L395.506 63.7158ZM399.895 63.7196C400.05 63.6886 400.201 63.7892 400.231 63.9446L401.277 69.1883C401.308 69.3435 401.208 69.4946 401.053 69.5255C400.898 69.5568 400.748 69.4561 400.716 69.3007L399.671 64.057C399.64 63.9016 399.74 63.7508 399.895 63.7196Z" fill="#E58857"/>
<path fill-rule="evenodd" clip-rule="evenodd" d="M422.781 95.4848H358.49L364.55 130.777H418.566L422.781 95.4848Z" fill="#B9B3B8"/>
<path fill-rule="evenodd" clip-rule="evenodd" d="M394.603 111.738C394.283 110.992 393.998 110.269 393.757 109.58C393.223 108.055 392.925 106.774 392.92 105.789L392.893 105.82C392.432 106.355 391.971 106.939 391.541 107.553C390.814 108.59 390.253 109.603 389.923 110.545C389.725 111.11 389.616 111.638 389.602 112.121C389.601 112.143 389.598 112.164 389.593 112.185C390.736 112.289 391.695 113.327 391.814 114.671C391.946 116.16 390.997 117.462 389.695 117.578C388.392 117.694 387.229 116.581 387.098 115.091C386.972 113.668 387.833 112.417 389.046 112.207C389.035 112.175 389.029 112.14 389.03 112.105C389.046 111.557 389.168 110.972 389.384 110.355C389.733 109.357 390.318 108.3 391.073 107.223C391.515 106.592 391.988 105.993 392.461 105.445C392.627 105.253 392.78 105.081 392.919 104.931C393.002 104.84 393.062 104.777 393.095 104.743C393.301 104.532 393.652 104.733 393.576 105.018C393.338 105.913 393.612 107.439 394.296 109.389C394.533 110.066 394.813 110.777 395.128 111.512C395.489 112.353 395.875 113.18 396.262 113.958C396.397 114.23 396.523 114.476 396.635 114.692C396.703 114.821 396.751 114.912 396.776 114.958C396.812 115.025 396.819 115.099 396.801 115.166C396.858 115.162 396.915 115.16 396.972 115.16C398.388 115.16 399.537 116.391 399.537 117.909C399.537 119.428 398.388 120.659 396.972 120.659C395.555 120.659 394.407 119.428 394.407 117.909C394.407 116.644 395.204 115.579 396.29 115.258C396.284 115.25 396.279 115.241 396.273 115.232C396.267 115.219 396.254 115.195 396.235 115.16C396.204 115.102 396.169 115.035 396.129 114.958C396.015 114.738 395.888 114.489 395.75 114.214C395.359 113.427 394.968 112.59 394.603 111.738Z" fill="#F4F0F0"/>
<path fill-rule="evenodd" clip-rule="evenodd" d="M67.7272 233.583H80.081L54.6649 274.118C53.8355 275.439 52.3863 276.242 50.8277 276.242C48.8939 276.242 47.6335 274.206 48.4921 272.469L67.7272 233.583Z" fill="#E3D4C5"/>
<path fill-rule="evenodd" clip-rule="evenodd" d="M162.049 233.583H149.696L175.112 274.118C175.941 275.439 177.39 276.242 178.949 276.242C180.883 276.242 182.143 274.206 181.285 272.469L162.049 233.583Z" fill="#E3D4C5"/>
<path fill-rule="evenodd" clip-rule="evenodd" d="M201.647 223.005C201.647 235.934 162.958 246.417 115.234 246.417C67.5101 246.417 28.822 235.934 28.822 223.005C28.822 210.077 67.5101 199.597 115.234 199.597C162.958 199.597 201.647 210.077 201.647 223.005Z" fill="#CDB1AA"/>
<path fill-rule="evenodd" clip-rule="evenodd" d="M88.0787 215.206L116.24 213.968L117.486 214.856V217.027L87.4217 236.358L58.014 235.352L57.9149 232.783L88.0787 215.206Z" fill="#E3D4C5"/>
<path fill-rule="evenodd" clip-rule="evenodd" d="M87.4062 234.38L116.24 215.613V209.305L87.4062 227.722L57.9842 226.77V233.672L87.4062 234.38Z" fill="#F4F0F0"/>
<path fill-rule="evenodd" clip-rule="evenodd" d="M88.0726 207.574L117.485 208.528L116.24 210.693V209.305L87.4156 227.688L58.0873 227.18L57.5681 226.3L88.0726 207.574Z" fill="#E3D4C5"/>
<path fill-rule="evenodd" clip-rule="evenodd" d="M143.807 206.533H160.086L159.462 216.907C159.273 220.041 156.682 222.486 153.549 222.486H150.344C147.211 222.486 144.62 220.041 144.432 216.907L143.807 206.533Z" fill="#F3705A"/>
<path fill-rule="evenodd" clip-rule="evenodd" d="M158.353 219.017L158.598 216.981C161.43 216.757 164.805 215.613 164.805 211.447C164.805 210.088 164.281 209.77 164.108 209.664C163.002 208.993 160.517 209.77 159.21 210.418L158.371 208.781C158.811 208.56 162.737 206.676 165.082 208.101C165.805 208.54 166.666 209.475 166.666 211.447C166.666 215.728 163.385 218.615 158.353 219.017Z" fill="#F3705A"/>
<path fill-rule="evenodd" clip-rule="evenodd" d="M160.086 206.705C160.086 208.141 156.442 209.305 151.947 209.305C147.452 209.305 143.807 208.141 143.807 206.705C143.807 205.268 147.452 204.104 151.947 204.104C156.442 204.104 160.086 205.268 160.086 206.705Z" fill="#E74B33"/>
<path fill-rule="evenodd" clip-rule="evenodd" d="M153.38 191.422C153.273 191.583 153.314 191.798 153.472 191.907C155.622 193.372 156.623 194.734 156.623 196.672C156.623 198.003 156.128 199.083 155.153 200.076C154.395 200.85 153.624 201.383 151.765 202.521C151.364 202.765 151.185 202.877 150.963 203.015C148.017 204.858 146.584 206.335 146.584 208.683C146.584 208.7 146.629 208.709 146.706 208.72C146.761 208.729 146.832 208.741 146.914 208.758C146.969 208.772 147.021 208.784 147.067 208.795C147.189 208.827 147.273 208.847 147.273 208.829C147.273 206.708 148.512 205.366 151.33 203.602C151.549 203.468 151.726 203.356 152.127 203.112C154.036 201.945 154.835 201.392 155.647 200.563C156.743 199.445 157.316 198.195 157.316 196.672C157.316 194.456 156.182 192.913 153.862 191.333C153.703 191.224 153.488 191.264 153.38 191.422ZM165.281 196.127C165.09 196.127 164.935 196.282 164.935 196.474C164.935 197.828 164.439 198.929 163.463 199.941C162.705 200.724 161.935 201.268 160.077 202.421C158.168 203.608 157.369 204.17 156.558 205.013C155.463 206.146 154.891 207.416 154.891 208.958C154.891 209.139 154.975 209.125 155.137 209.096C155.148 209.096 155.16 209.093 155.172 209.09C155.211 209.085 155.253 209.079 155.294 209.076C155.444 209.056 155.584 209.039 155.584 208.958C155.584 207.605 156.079 206.504 157.056 205.495C157.814 204.709 158.584 204.167 160.442 203.012C162.35 201.825 163.149 201.263 163.961 200.422C165.056 199.287 165.628 198.02 165.628 196.474C165.628 196.282 165.473 196.127 165.281 196.127Z" fill="#F4F0F0"/>
</svg>
