<svg width="485" height="534" viewBox="0 0 485 534" fill="none" xmlns="http://www.w3.org/2000/svg">
<path fill-rule="evenodd" clip-rule="evenodd" d="M369.794 381.645H5.46863C5.46863 381.645 -32.0679 199.528 89.5439 252.844C89.5439 252.844 80.7106 180.669 141.089 165.217C177.11 155.997 196.639 188.971 196.639 188.971C196.639 188.971 199.141 86.0354 270.205 115.069C341.269 144.102 307.238 221.699 307.238 221.699C307.238 221.699 342.108 227.672 338.266 270.263C336.274 292.339 315.245 307.215 315.245 307.215C315.245 307.215 366.792 302.993 369.794 381.645Z" fill="#FFF5EE"/>
<path fill-rule="evenodd" clip-rule="evenodd" d="M469.646 381.645H306.185C306.185 381.645 316.012 356.18 325.617 351.25C345.039 341.271 339.718 368.251 339.718 368.251C339.718 368.251 359.731 323.488 392.137 329.067C414.358 332.891 402.19 359.121 402.19 359.121C402.19 359.121 442.139 322.435 463.681 332.327C485.223 342.218 469.646 381.645 469.646 381.645Z" fill="#E3D4C5"/>
<path fill-rule="evenodd" clip-rule="evenodd" d="M148.339 36.3776L118.47 0L117.769 28.8633L148.339 36.3776ZM138.329 82.0329L150.577 50.6163L118.919 41.2256L138.329 82.0329Z" fill="#5BA092"/>
<path fill-rule="evenodd" clip-rule="evenodd" d="M117.769 28.8633L118.47 0L107.214 45.0307L117.769 28.8633ZM110.413 55.5273L138.329 82.0329L118.919 41.2256L110.413 55.5273Z" fill="#2F6858"/>
<path fill-rule="evenodd" clip-rule="evenodd" d="M148.339 36.378L136.96 46.6988L118.919 41.2261L115.207 47.6607L107.214 45.0312L117.769 28.8638L148.339 36.378Z" fill="#010101"/>
<path fill-rule="evenodd" clip-rule="evenodd" d="M465.729 90.2002C466.026 90.2002 466.268 90.4549 466.268 90.7687V108.175L472.589 101.509C472.799 101.287 473.141 101.287 473.351 101.509C473.562 101.731 473.562 102.091 473.351 102.313L467.03 108.979H483.536C483.833 108.979 484.075 109.234 484.075 109.548C484.075 109.862 483.833 110.116 483.536 110.116H467.03L473.351 116.782C473.562 117.004 473.562 117.364 473.351 117.586C473.141 117.808 472.799 117.808 472.589 117.586L466.268 110.92V128.326C466.268 128.64 466.026 128.895 465.729 128.895C465.431 128.895 465.19 128.64 465.19 128.326V110.92L458.869 117.586C458.658 117.808 458.317 117.808 458.106 117.586C457.896 117.364 457.896 117.004 458.106 116.782L464.427 110.116H447.922C447.624 110.116 447.383 109.862 447.383 109.548C447.383 109.234 447.624 108.979 447.922 108.979H464.428L458.106 102.313C457.896 102.091 457.896 101.731 458.106 101.509C458.317 101.287 458.658 101.287 458.869 101.509L465.19 108.175V90.7687C465.19 90.4549 465.431 90.2002 465.729 90.2002ZM378.779 182.106C378.779 181.792 378.537 181.537 378.239 181.537C377.942 181.537 377.7 181.792 377.7 182.106V209.537L367.48 198.758C367.269 198.537 366.928 198.537 366.718 198.758C366.507 198.98 366.507 199.34 366.718 199.563L376.938 210.341H350.568C350.27 210.341 350.029 210.595 350.029 210.909C350.029 211.223 350.27 211.478 350.568 211.478H376.938L366.718 222.256C366.507 222.478 366.507 222.838 366.718 223.06C366.928 223.282 367.269 223.282 367.48 223.06L377.7 212.282V240.092C377.7 240.405 377.942 240.66 378.239 240.66C378.537 240.66 378.779 240.405 378.779 240.092V212.282L388.999 223.06C389.209 223.282 389.55 223.282 389.761 223.06C389.972 222.838 389.972 222.478 389.761 222.256L379.541 211.478H405.552C405.849 211.478 406.091 211.223 406.091 210.909C406.091 210.595 405.849 210.341 405.552 210.341H379.541L389.761 199.563C389.972 199.34 389.972 198.98 389.761 198.758C389.55 198.537 389.209 198.537 388.999 198.758L378.779 209.537V182.106Z" fill="#CDB1AA"/>
<path d="M180.648 534C227.423 534 265.341 501.177 265.341 460.687C265.341 420.197 227.423 387.374 180.648 387.374C133.873 387.374 95.9545 420.197 95.9545 460.687C95.9545 501.177 133.873 534 180.648 534Z" fill="#7ACEBD"/>
<path fill-rule="evenodd" clip-rule="evenodd" d="M215.139 477.231C215.139 477.231 206.318 504.231 194.362 510.521C194.362 510.521 187.321 513.723 186.605 504.45L188.854 473.855L195.214 467.586L215.139 477.231Z" fill="#F3705A"/>
<path fill-rule="evenodd" clip-rule="evenodd" d="M224.429 295.909C214.903 301.218 163.329 334.742 163.329 334.742L125.239 334.561C125.239 334.561 99.782 395.289 132.75 395.289C139.979 395.619 190.608 395.556 191.522 395.42C192.564 395.263 221.418 386.45 221.418 386.45L185.458 454.811C185.458 454.811 196.246 481.104 219.205 478.474L252.953 381.192C252.953 381.192 261.317 356.26 246.809 347.755C247.761 342.447 252.161 317.066 251.408 305.406C250.565 292.347 234.546 290.269 224.429 295.909Z" fill="#3973B0"/>
<path fill-rule="evenodd" clip-rule="evenodd" d="M225.896 336.512L219.733 345.19L180.029 346.92L172.701 341.659C172.538 341.542 172.314 341.587 172.203 341.759C172.092 341.933 172.134 342.168 172.298 342.286L179.724 347.617C179.787 347.663 179.863 347.686 179.94 347.682L233.604 345.345C238.612 345.207 242.686 346.014 245.888 347.674C246.066 347.766 246.281 347.689 246.369 347.501C246.456 347.313 246.383 347.086 246.205 346.994C242.891 345.275 238.703 344.446 233.58 344.587L220.659 345.15L226.47 336.967C226.589 336.799 226.557 336.562 226.398 336.436C226.24 336.311 226.015 336.344 225.896 336.512ZM221.1 386.627C221.193 386.812 221.41 386.883 221.586 386.785L228.209 383.086C228.384 382.988 228.451 382.758 228.358 382.574C228.266 382.389 228.049 382.318 227.873 382.416L221.25 386.115C221.075 386.213 221.008 386.442 221.1 386.627Z" fill="#94C0E9"/>
<path fill-rule="evenodd" clip-rule="evenodd" d="M168.535 230.858C168.227 230.878 167.966 230.625 167.972 230.298C167.973 230.206 167.974 230.113 167.974 230.02C167.974 219.535 158.173 211.034 146.083 211.034C133.992 211.034 124.191 219.535 124.191 230.02C124.191 230.119 124.192 230.218 124.194 230.316C124.2 230.647 123.933 230.903 123.623 230.872C123.446 230.855 123.267 230.846 123.086 230.846C120.278 230.846 118.001 232.872 118.001 235.372C118.001 237.872 120.278 239.899 123.086 239.899C124.225 239.899 125.275 239.563 126.122 238.999C126.387 238.823 126.729 238.895 126.904 239.17C129.852 243.809 134.968 247.261 141.071 248.501C141.597 248.608 141.966 249.114 141.936 249.681L141.356 260.747H150.81L150.23 249.681C150.199 249.114 150.568 248.608 151.095 248.501C157.162 247.268 162.255 243.848 165.211 239.25C165.381 238.986 165.709 238.906 165.969 239.069C166.796 239.591 167.804 239.899 168.894 239.899C171.702 239.899 173.979 237.872 173.979 235.372C173.979 232.872 171.702 230.846 168.894 230.846C168.773 230.846 168.654 230.85 168.535 230.858Z" fill="#C68E80"/>
<path fill-rule="evenodd" clip-rule="evenodd" d="M150.35 209.667C150.64 208.791 156.861 189.528 144.18 188.442C140.228 188.104 136.155 188.771 132.746 191.01C129.83 192.924 128.412 195.752 126.964 198.641C126.148 200.27 125.322 201.918 124.212 203.432C121.019 207.791 116.338 210.528 111.28 211.643C109.025 212.14 106.558 212.276 104.059 212.414C98.6865 212.711 93.1699 213.015 89.3087 216.935C85.3357 220.969 83.01 226.057 84.1668 231.885C84.3375 232.745 84.5346 233.591 84.7303 234.43C85.368 237.165 85.9904 239.835 85.6339 242.746C85.0719 247.335 82.5368 250.726 79.9694 254.161C78.966 255.503 77.9577 256.852 77.0604 258.281C73.8655 263.37 74.6975 267.583 79.8219 270.687C86.0283 274.446 93.2942 271.897 98.3753 267.249C100.671 265.148 102.777 262.555 104.028 259.601C105.156 256.938 105.18 253.991 105.203 251.107C105.207 250.622 105.21 250.138 105.22 249.657C105.339 243.357 107.73 237.359 113.77 235.261C114.095 235.148 114.412 235.038 114.722 234.93C116.081 234.459 117.296 234.037 118.384 233.646C119.146 232.002 120.964 230.845 123.086 230.845C123.267 230.845 123.446 230.854 123.623 230.872C123.933 230.903 124.2 230.646 124.194 230.315C124.194 230.315 138.981 225.779 140.101 214.581C140.101 214.581 145.577 229.387 167.972 230.298C167.972 230.298 168.799 223.059 164.202 216.946C161.285 213.065 156.007 210.647 150.35 209.667Z" fill="#E58857"/>
<path fill-rule="evenodd" clip-rule="evenodd" d="M148.154 208.75C148.234 209.123 147.951 209.47 147.591 209.451C146.047 209.368 142.255 209.179 141.361 209.27C140.232 209.383 141.473 205.952 144.32 205.848C147.109 205.746 147.919 207.658 148.154 208.75Z" fill="#010101"/>
<path fill-rule="evenodd" clip-rule="evenodd" d="M137.272 234.581C137.063 234.803 136.726 234.803 136.518 234.581C136.31 234.359 136.31 233.999 136.518 233.777C136.785 233.493 137.257 233.084 137.903 232.678C140.411 231.102 143.209 231.044 145.917 233.51C146.141 233.713 146.167 234.072 145.976 234.311C145.785 234.55 145.449 234.578 145.225 234.374C142.902 232.26 140.593 232.307 138.444 233.657C138.116 233.863 137.822 234.084 137.568 234.304C137.419 234.434 137.318 234.531 137.272 234.581Z" fill="#010101"/>
<path fill-rule="evenodd" clip-rule="evenodd" d="M152.639 234.467C152.49 234.738 152.164 234.828 151.91 234.669C151.656 234.51 151.571 234.162 151.72 233.891C151.912 233.542 152.27 233.042 152.792 232.543C154.901 230.527 157.629 230.527 160.676 233.777C160.884 233.999 160.884 234.359 160.676 234.581C160.468 234.803 160.13 234.803 159.922 234.581C157.284 231.768 155.2 231.768 153.503 233.39C153.252 233.63 153.033 233.888 152.849 234.145C152.741 234.296 152.67 234.41 152.639 234.467Z" fill="#010101"/>
<path fill-rule="evenodd" clip-rule="evenodd" d="M140.358 238.172H153.852C154.159 238.172 154.402 238.447 154.384 238.774C154.371 239.019 154.32 239.425 154.207 239.941C154.019 240.795 153.717 241.65 153.274 242.452C151.974 244.808 149.757 246.21 146.483 246.154C143.689 246.107 141.813 244.7 140.737 242.42C140.359 241.619 140.109 240.767 139.959 239.915C139.869 239.403 139.832 239 139.825 238.758C139.816 238.437 140.057 238.172 140.358 238.172Z" fill="#E74B33"/>
<path fill-rule="evenodd" clip-rule="evenodd" d="M142.058 242.856C142.266 242.794 142.502 242.733 142.761 242.676C144.031 242.395 145.349 242.313 146.597 242.555C148.027 242.833 149.229 243.519 150.101 244.69C150.316 244.977 150.222 245.403 149.91 245.558C149.742 245.643 149.45 245.761 149.054 245.877C146.981 246.482 144.428 246.345 142.535 244.794C142.229 244.543 141.91 244.209 141.595 243.902C141.294 243.609 141.399 243.08 141.785 242.943C141.838 242.924 141.93 242.894 142.058 242.856Z" fill="#F3705A"/>
<path fill-rule="evenodd" clip-rule="evenodd" d="M192.672 270.456C192.499 270.214 192.326 270.018 192.155 269.874C186.754 265.33 163.046 260.98 163.046 260.98C163.046 260.98 162.039 256.532 160.757 255.179C159.476 253.826 140.299 253.99 139.46 254.432C138.622 254.875 137.503 259.746 137.503 259.746C132.5 259.998 128.049 261.28 123.352 262.668C116.021 264.083 105.494 268.065 97.3854 279.053C83.542 297.811 68.6542 330.361 70.4826 346.36C72.3109 362.36 91.047 369.249 109.4 345.533C113.49 340.248 116.179 336.783 119.005 332.688C118.29 334.095 117.633 337.584 119.005 337.801C136.894 340.636 162.402 339.515 176.968 337.801C178.182 361.879 185.101 368.695 191.154 373.282C195.981 376.942 202.4 377.049 207.452 373.746C212.393 370.516 218.18 364.133 218.28 351.926C218.456 330.564 213.18 313.289 207.376 290.999C204.635 280.474 198.444 274.175 192.672 270.456Z" fill="#2F6858"/>
<path fill-rule="evenodd" clip-rule="evenodd" d="M142.865 254.225C142.906 254.021 143.096 253.89 143.291 253.933C143.484 253.976 143.608 254.178 143.567 254.382L142.451 259.961C142.41 260.165 142.22 260.296 142.026 260.253C141.832 260.21 141.708 260.009 141.749 259.804L142.865 254.225ZM114.47 297.534L114.546 297.477L114.585 297.449L130.809 310.885C130.338 313.422 127.792 318.347 123.993 324.504C122.608 326.748 121.145 329.009 119.87 330.9C119.375 331.635 118.949 332.253 118.676 332.634C118.631 332.696 118.591 332.751 118.558 332.797C118.507 332.827 118.462 332.871 118.429 332.927C118.382 333.006 118.36 333.046 118.343 333.098L118.34 333.105L118.336 333.11C118.333 333.115 118.331 333.119 118.329 333.124C118.314 333.16 118.328 333.208 118.396 333.454L118.396 333.454C118.615 333.621 118.615 333.621 118.771 333.594H118.771L118.772 333.594C118.828 333.573 118.846 333.566 118.862 333.557C118.869 333.552 118.876 333.547 118.886 333.54C118.923 333.514 118.944 333.492 118.974 333.458C119.024 333.399 119.115 333.277 119.249 333.091C119.526 332.704 119.956 332.08 120.455 331.34C121.735 329.441 123.204 327.17 124.594 324.918C128.57 318.474 131.173 313.403 131.554 310.785C131.574 310.65 131.523 310.514 131.421 310.429L114.82 296.68C114.697 296.578 114.526 296.572 114.397 296.664C114.381 296.675 114.352 296.697 114.309 296.728C114.237 296.78 114.153 296.843 114.057 296.915C113.781 297.119 113.462 297.362 113.103 297.64C112.079 298.436 110.937 299.364 109.708 300.415C106.197 303.418 102.687 306.81 99.4093 310.521C97.1041 313.132 94.9965 315.811 93.1316 318.547C93.0156 318.717 93.0523 318.954 93.213 319.076C93.3738 319.199 93.5981 319.16 93.714 318.99C95.5603 316.282 97.6484 313.626 99.9343 311.038C103.187 307.354 106.674 303.986 110.16 301.004C111.38 299.96 112.512 299.04 113.528 298.251C113.884 297.975 114.199 297.736 114.47 297.534ZM176.951 310.228C176.967 309.16 176.985 308.19 177.002 307.335C177.008 307.04 177.014 306.78 177.019 306.557L198.724 300.551C200.069 303.97 201.369 309.567 202.595 316.73C203.343 321.105 204.019 325.795 204.609 330.484C204.815 332.126 204.997 333.65 205.151 335.018C205.205 335.496 205.252 335.921 205.291 336.287C205.305 336.415 205.317 336.527 205.327 336.621L205.339 336.735C205.361 336.943 205.538 337.094 205.735 337.071C205.932 337.048 206.074 336.861 206.053 336.653L206.04 336.537C206.035 336.487 206.029 336.431 206.023 336.371L206.004 336.201C205.965 335.834 205.918 335.408 205.864 334.928C205.709 333.557 205.527 332.029 205.32 330.384C204.728 325.684 204.052 320.983 203.301 316.595C202.029 309.164 200.679 303.406 199.263 299.95C199.192 299.779 199.014 299.687 198.842 299.734L176.576 305.896C176.421 305.939 176.312 306.085 176.308 306.253L176.307 306.306L176.305 306.402L176.301 306.529C176.296 306.755 176.291 307.019 176.285 307.318C176.267 308.175 176.249 309.147 176.233 310.216C176.151 315.538 176.129 321.066 176.201 326.232C176.264 330.743 176.397 334.665 176.61 337.828C176.624 338.037 176.796 338.194 176.994 338.179C177.191 338.165 177.34 337.983 177.326 337.775C177.114 334.628 176.981 330.719 176.918 326.221C176.847 321.064 176.869 315.543 176.951 310.228ZM147.826 253.925C147.628 253.935 147.474 254.112 147.483 254.321L147.707 259.585C147.715 259.794 147.883 259.956 148.081 259.947C148.279 259.937 148.432 259.76 148.424 259.551L148.2 254.287C148.191 254.078 148.024 253.916 147.826 253.925ZM152.15 254.344C152.129 254.136 152.272 253.949 152.469 253.927C152.666 253.905 152.843 254.056 152.864 254.264L153.384 259.449C153.405 259.657 153.262 259.844 153.065 259.866C152.868 259.888 152.691 259.737 152.671 259.529L152.15 254.344ZM157.153 254.366C156.959 254.414 156.839 254.617 156.884 254.821L157.999 259.901C158.044 260.105 158.237 260.232 158.43 260.185C158.623 260.137 158.743 259.934 158.698 259.73L157.583 254.65C157.538 254.446 157.346 254.319 157.153 254.366Z" fill="#5BA092"/>
<path fill-rule="evenodd" clip-rule="evenodd" d="M166.1 253.391L183.976 261.548C184.976 262.005 185.441 263.228 185.017 264.288L169.549 302.973C169.091 304.116 167.946 304.773 166.789 304.556L147.411 300.917C145.803 300.615 144.88 298.81 145.523 297.224L162.715 254.815C163.275 253.433 164.792 252.794 166.1 253.391Z" fill="#010101"/>
<path fill-rule="evenodd" clip-rule="evenodd" d="M165.637 293.987C165.637 293.987 157.546 286.731 155.697 282.746C153.656 278.35 156.768 278.301 156.768 278.301C154.332 272.226 159.936 273.84 159.936 273.84C157.724 270.304 159.581 268.789 160.964 269.083C164.184 269.769 171.33 275.604 171.33 275.604C170.452 274.538 169.322 273.488 168.178 272.425C166.172 270.56 164.121 268.654 163.304 266.544C160.759 259.975 167.997 263.869 171.268 266.849C174.193 269.515 181.536 276.249 181.536 276.249C181.536 276.249 179.77 270.885 179.77 267.036C179.77 263.189 182.53 259.807 183.855 262.839C184.148 263.509 184.845 265.251 185.686 267.351C187.114 270.919 188.955 275.519 189.928 277.648C191.474 281.03 198.933 300.102 198.933 300.102L177.124 306.046C177.124 306.046 170.402 303.531 165.637 293.987ZM125.939 277.188C119.298 281.224 114.599 296.978 114.599 296.978L131.2 310.728L135.117 304.643C135.117 304.656 135.118 304.668 135.119 304.681C135.121 304.704 135.123 304.728 135.118 304.751C134.414 307.671 137.742 308.505 139.587 307.126C147.495 301.217 143.67 296.764 143.67 296.764C147.506 292.272 144.163 289.326 144.163 289.326C147.862 282.572 142.274 281.854 142.274 281.854C151.447 277.979 156.295 270.577 151.355 270.577C146.415 270.577 125.939 277.188 125.939 277.188Z" fill="#C68E80"/>
<path fill-rule="evenodd" clip-rule="evenodd" d="M159.807 274.193C159.622 274.118 159.53 273.899 159.601 273.704C159.672 273.508 159.88 273.411 160.065 273.486C160.1 273.5 160.166 273.527 160.26 273.568C160.416 273.635 160.597 273.716 160.8 273.808C161.379 274.074 162.023 274.39 162.717 274.756C164.7 275.802 166.683 277.041 168.535 278.466C170.147 279.707 171.586 281.036 172.807 282.452C172.94 282.607 172.93 282.846 172.783 282.987C172.637 283.128 172.41 283.117 172.277 282.962C171.091 281.587 169.687 280.291 168.112 279.079C166.295 277.68 164.346 276.463 162.397 275.434C161.715 275.075 161.081 274.764 160.514 274.504C160.316 274.413 160.14 274.335 159.989 274.27C159.899 274.231 159.838 274.206 159.807 274.193ZM175.786 279.297C175.93 279.154 175.938 278.914 175.802 278.761C175.763 278.717 175.689 278.637 175.584 278.526C175.411 278.343 175.21 278.139 174.985 277.919C174.343 277.293 173.633 276.667 172.874 276.082C172.26 275.609 171.639 275.182 171.016 274.814C170.843 274.712 170.624 274.777 170.528 274.959C170.431 275.142 170.493 275.373 170.666 275.475C171.262 275.828 171.86 276.238 172.451 276.694C173.186 277.261 173.875 277.869 174.498 278.476C174.716 278.689 174.91 278.886 175.077 279.062C175.176 279.167 175.245 279.242 175.278 279.28C175.414 279.433 175.641 279.44 175.786 279.297ZM144.009 288.806C144.132 288.533 144.255 288.232 144.37 287.91C144.645 287.138 144.829 286.375 144.877 285.672C144.976 284.26 144.532 283.275 143.384 282.79C142.267 282.318 140.408 282.322 138.036 282.718C136.958 282.898 135.812 283.153 134.634 283.463C133.771 283.69 132.941 283.933 132.175 284.177C131.907 284.261 131.666 284.341 131.456 284.412C131.331 284.454 131.244 284.484 131.199 284.499C131.011 284.566 130.808 284.459 130.745 284.261C130.682 284.062 130.783 283.848 130.971 283.781C131.019 283.764 131.109 283.733 131.237 283.69C131.451 283.617 131.696 283.537 131.968 283.451C132.745 283.204 133.586 282.957 134.461 282.727C135.658 282.412 136.824 282.153 137.923 281.969C140.415 281.553 142.379 281.549 143.651 282.086C145.125 282.709 145.712 284.015 145.593 285.727C145.539 286.512 145.339 287.342 145.041 288.177C144.919 288.521 144.788 288.842 144.656 289.133C144.644 289.16 144.632 289.186 144.62 289.211C145.661 290.016 146.137 291.059 146.106 292.264C146.079 293.318 145.671 294.422 145.012 295.519C144.777 295.912 144.525 296.276 144.273 296.603C144.218 296.675 144.165 296.741 144.116 296.802C145.132 298.036 145.161 299.94 144.364 302.042C143.563 304.154 142.016 306.167 140.487 307.06C138.948 307.959 137.44 308.306 136.343 307.98C135.096 307.61 134.508 306.434 134.763 304.692C134.912 303.668 135.304 302.804 135.863 302.094C136.301 301.536 136.743 301.182 137.051 301.006C137.226 300.908 137.443 300.977 137.537 301.161C137.631 301.345 137.565 301.575 137.391 301.674C137.339 301.703 137.236 301.772 137.1 301.882C136.867 302.069 136.633 302.3 136.415 302.578C135.936 303.186 135.601 303.925 135.472 304.807C135.269 306.195 135.668 306.992 136.538 307.25C137.423 307.513 138.75 307.208 140.139 306.397C141.514 305.594 142.954 303.719 143.698 301.76C144.5 299.647 144.362 297.865 143.201 296.932C142.339 296.239 140.983 296.022 139.267 296.214C138.252 296.327 137.161 296.577 136.052 296.924C135.505 297.094 134.989 297.277 134.521 297.459C134.357 297.524 134.211 297.583 134.085 297.636C134.01 297.667 133.959 297.689 133.933 297.701C133.751 297.782 133.541 297.692 133.463 297.499C133.386 297.306 133.472 297.084 133.655 297.002C133.684 296.989 133.74 296.965 133.82 296.931C133.951 296.876 134.103 296.814 134.272 296.749C134.755 296.56 135.286 296.372 135.848 296.197C136.997 295.838 138.128 295.579 139.192 295.46C141.043 295.253 142.549 295.486 143.586 296.29C143.627 296.239 143.671 296.184 143.716 296.125C143.951 295.819 144.187 295.479 144.406 295.114C145.002 294.121 145.366 293.137 145.389 292.243C145.417 291.151 144.934 290.248 143.796 289.548C142.582 288.802 140.826 288.671 138.67 289.063C137.349 289.302 135.936 289.726 134.492 290.283C133.673 290.598 132.895 290.936 132.184 291.274C131.936 291.392 131.714 291.502 131.521 291.6C131.406 291.659 131.327 291.7 131.287 291.722C131.111 291.817 130.895 291.743 130.805 291.556C130.715 291.37 130.785 291.142 130.961 291.047C131.006 291.023 131.089 290.979 131.209 290.918C131.407 290.817 131.635 290.704 131.889 290.583C132.615 290.238 133.409 289.893 134.246 289.57C135.728 289 137.181 288.563 138.548 288.316C140.774 287.912 142.633 288.03 144.009 288.806ZM156.446 278.133C156.359 278.321 156.432 278.548 156.61 278.64C156.642 278.657 156.706 278.691 156.8 278.742C156.958 278.829 157.141 278.932 157.348 279.053C157.941 279.399 158.603 279.81 159.316 280.285C161.353 281.645 163.391 283.247 165.292 285.08C166.768 286.504 168.102 288.012 169.259 289.602C169.38 289.768 169.605 289.8 169.762 289.672C169.919 289.545 169.949 289.307 169.828 289.141C168.644 287.513 167.282 285.973 165.776 284.52C163.841 282.655 161.77 281.027 159.699 279.645C158.974 279.161 158.3 278.742 157.695 278.389C157.482 278.266 157.294 278.159 157.13 278.07C157.032 278.016 156.963 277.979 156.927 277.96C156.749 277.868 156.534 277.945 156.446 278.133Z" fill="#6D4038"/>
<path fill-rule="evenodd" clip-rule="evenodd" d="M330.081 449.597C337.655 447 353.439 445.34 361.032 472.09C361.032 472.09 382.545 471.987 394.728 473.75C408.946 475.807 409.311 482.611 415.153 485.859C428.852 493.474 438.906 494.314 438.954 495.976C439.102 501.136 418.705 494.881 416.207 494.004C416.207 494.004 420.036 505.126 414.839 530.406C414.653 531.31 413.865 531.938 412.989 531.875L410.466 531.694C409.539 531.627 408.819 530.816 408.819 529.837V515.743C408.819 515.03 408.25 514.465 407.575 514.504L407.535 514.507C406.94 514.542 406.463 515.039 406.425 515.666L405.562 529.969C405.504 530.948 404.731 531.711 403.798 531.711H401.857C400.908 531.711 400.128 530.922 400.09 529.924L399.252 507.493C399.252 507.493 369.52 514.976 357.497 514.568L355.716 532.062C355.625 532.961 354.933 533.66 354.076 533.72L353.163 533.785C352.306 533.845 351.531 533.248 351.327 532.369L347.776 517.068C347.641 516.487 347.131 516.09 346.563 516.125L346.387 516.136C345.793 516.173 345.318 516.671 345.28 517.296L344.405 532.047C344.351 532.953 343.683 533.686 342.825 533.781L341.037 533.979C340.114 534.082 339.273 533.415 339.111 532.454L330.996 484.362C330.996 484.362 312.77 469.711 321.598 456.152C323.633 453.027 326.658 450.77 330.081 449.597Z" fill="#9B7368"/>
<path fill-rule="evenodd" clip-rule="evenodd" d="M374.707 497.482C374.4 494.526 371.252 492.927 368.819 494.44C365.563 496.466 361.633 500.062 367.129 503.502C372.677 506.973 375.158 501.821 374.707 497.482Z" fill="#F7D3BB"/>
<path fill-rule="evenodd" clip-rule="evenodd" d="M339.053 455.409C338.76 456.771 337.84 457.713 336.999 457.513C336.159 457.312 335.715 456.045 336.008 454.683C336.301 453.32 337.221 452.378 338.061 452.579C338.902 452.779 339.346 454.046 339.053 455.409Z" fill="#010101"/>
<path fill-rule="evenodd" clip-rule="evenodd" d="M330.877 461.413C330.759 461.184 330.486 461.099 330.268 461.223C330.252 461.232 328.702 462.104 327.231 461.573C326.382 461.267 325.714 460.538 325.244 459.407L325.162 459.211L327.337 456.675C327.601 456.367 327.434 455.874 327.045 455.811L324.346 455.374C323.986 455.316 323.691 455.674 323.798 456.042L324.668 459.032L324.469 459.318C324.448 459.348 322.361 462.298 319.427 461.109C319.197 461.015 318.936 461.136 318.846 461.38C318.757 461.624 318.873 461.898 319.105 461.992C321.774 463.072 323.843 461.373 324.727 460.433C325.282 461.454 326.024 462.137 326.939 462.468C327.384 462.629 327.83 462.69 328.25 462.69C329.566 462.69 330.638 462.088 330.697 462.054C330.915 461.93 330.996 461.642 330.877 461.413Z" fill="#010101"/>
<path fill-rule="evenodd" clip-rule="evenodd" d="M346.224 480.087C349.874 485.307 355.167 467.283 356.796 461.268C354.463 456.912 351.818 453.912 349.078 451.9C347.765 456.137 342.374 474.58 346.224 480.087Z" fill="#6D4038"/>
<path fill-rule="evenodd" clip-rule="evenodd" d="M383.542 487.087C391 499.372 403.537 482.788 402.436 475.763C400.42 474.915 397.925 474.212 394.728 473.749C391.805 473.326 388.346 473.011 384.776 472.776C381.51 475.112 378.897 479.434 383.542 487.087Z" fill="#F7D3BB"/>
<path fill-rule="evenodd" clip-rule="evenodd" d="M320.036 469.261C317.753 472.034 312.246 479.793 315.481 486.794C318.527 493.384 322.148 482.251 323.73 476.445C322.241 474.32 320.874 471.879 320.036 469.261Z" fill="#6D4038"/>
</svg>
